<?xml version="1.0" standalone="no"?>
<!DOCTYPE svg PUBLIC "-//W3C//DTD SVG 20010904//EN"
 "http://www.w3.org/TR/2001/REC-SVG-20010904/DTD/svg10.dtd">
<svg version="1.0" xmlns="http://www.w3.org/2000/svg"
 width="776.000000pt" height="776.000000pt" viewBox="0 0 776.000000 776.000000"
 preserveAspectRatio="xMidYMid meet">
<metadata>
Created by potrace 1.11, written by Peter Selinger 2001-2013
</metadata>
<g transform="translate(0.000000,776.000000) scale(0.100000,-0.100000)"
fill="#000000" stroke="none">
<path d="M1939 7238 c-9 -7 -222 -371 -474 -808 -252 -437 -685 -1187 -962
-1667 -276 -480 -503 -877 -503 -883 0 -6 227 -403 503 -883 277 -480 710
-1230 962 -1667 252 -437 465 -801 474 -807 22 -19 3860 -19 3882 0 9 6 222
370 474 807 252 437 685 1187 962 1667 276 480 503 877 503 883 0 6 -227 403
-503 883 -277 480 -710 1230 -962 1667 -252 437 -465 801 -474 808 -12 9 -415
12 -1941 12 -1526 0 -1929 -3 -1941 -12z m344 -1990 c2 -7 55 -148 117 -313
62 -165 116 -304 120 -308 4 -5 19 22 34 60 14 37 68 181 120 318 l94 250 91
3 91 3 0 -466 0 -465 -55 0 -55 0 0 410 c0 226 -3 410 -7 410 -5 0 -62 -144
-128 -320 l-119 -320 -62 0 c-50 0 -63 3 -69 18 -3 9 -56 150 -117 312 -61
162 -114 299 -119 305 -5 5 -9 -168 -9 -403 l0 -412 -55 0 -55 0 0 465 0 465
89 0 c62 0 90 -4 94 -12z m1296 -224 c66 -19 122 -69 152 -137 22 -49 23 -66
27 -304 l4 -253 -56 0 -56 0 0 52 0 53 -32 -39 c-91 -111 -323 -118 -402 -12
-73 99 -58 245 34 317 52 42 134 59 278 59 l125 0 -6 46 c-6 58 -31 93 -87
122 -63 31 -179 31 -272 -2 l-68 -24 0 49 c0 27 3 49 8 50 4 0 39 8 77 19 87
23 205 25 274 4z m831 -39 c0 -54 0 -54 -26 -45 -57 22 -144 5 -195 -38 -65
-54 -73 -91 -77 -344 l-4 -228 -49 0 -49 0 0 345 0 345 50 0 50 0 0 -50 c0
-27 2 -50 5 -50 3 0 20 16 37 36 51 58 109 82 201 83 l57 1 0 -55z m515 44
c91 -23 95 -27 95 -79 l0 -48 -57 24 c-80 33 -190 33 -253 2 -92 -47 -138
-153 -127 -289 9 -112 49 -179 132 -222 55 -28 169 -27 245 2 30 11 56 21 58
21 2 0 2 -21 0 -47 l-3 -47 -55 -18 c-33 -10 -89 -17 -142 -17 -154 -1 -249
53 -310 177 -32 64 -33 71 -33 187 0 102 3 127 22 167 45 98 106 152 206 183
51 17 168 19 222 4z m731 -22 c124 -63 182 -209 162 -405 -14 -134 -89 -240
-195 -276 -66 -23 -180 -21 -245 4 -64 24 -129 86 -157 151 -49 110 -47 290 5
396 31 64 97 124 161 146 74 26 203 18 269 -16z m-2926 -1429 c0 -101 -1 -187
0 -193 0 -5 18 10 40 33 63 65 92 77 190 77 110 0 161 -27 206 -107 l29 -53 3
-272 3 -273 -50 0 -50 0 -3 248 c-3 277 -9 304 -77 349 -60 40 -169 26 -230
-30 -55 -51 -61 -82 -61 -334 l0 -231 -55 -4 -55 -3 0 488 0 487 55 0 56 0 -1
-182z m-1488 -275 l3 -418 233 -3 232 -2 0 -45 0 -44 -290 -3 -290 -3 0 468 0
467 55 0 55 0 2 -417z m1013 169 c99 -51 154 -146 163 -279 l5 -83 -265 0
c-146 0 -267 -3 -270 -6 -11 -11 20 -115 46 -155 70 -105 250 -123 439 -44 16
7 18 3 15 -41 l-3 -49 -55 -20 c-44 -15 -82 -19 -185 -20 -122 0 -133 2 -187
28 -136 67 -208 226 -179 398 24 149 99 244 224 285 61 20 201 13 252 -14z
m1646 -3 c42 -29 64 -55 80 -92 l12 -27 53 59 c67 74 123 96 221 88 71 -5 116
-30 152 -83 45 -65 51 -111 51 -378 l0 -251 -55 3 -55 4 0 249 c0 269 -4 292
-53 338 -18 16 -42 25 -76 29 -87 8 -154 -27 -194 -101 -21 -39 -22 -57 -25
-282 l-3 -240 -49 3 -48 4 -4 246 c-4 267 -9 293 -61 341 -18 16 -42 25 -76
29 -87 8 -154 -27 -194 -101 -21 -39 -22 -57 -25 -279 l-4 -238 -54 0 -54 0 2
348 3 347 53 3 52 3 0 -55 c0 -31 1 -56 3 -56 2 0 26 22 55 50 61 59 94 70
188 66 56 -2 79 -8 105 -27z m1209 4 c57 -25 97 -66 123 -123 19 -41 21 -68
25 -301 l4 -257 -51 -3 -51 -4 0 47 c0 26 -4 49 -8 52 -4 2 -21 -11 -36 -31
-66 -82 -227 -111 -332 -58 -88 44 -130 142 -105 248 16 69 53 114 120 146 51
23 69 26 201 29 80 2 149 7 153 11 4 5 3 29 -4 54 -16 63 -70 113 -135 123
-71 10 -186 -2 -239 -25 -26 -12 -49 -21 -52 -21 -2 0 -3 21 -1 48 3 45 5 48
43 60 113 38 268 40 345 5z m866 -2 c22 -12 50 -37 62 -56 46 -66 52 -111 52
-379 l0 -251 -47 0 -48 0 -5 250 c-6 280 -12 308 -79 352 -60 40 -169 26 -230
-30 -55 -51 -61 -82 -61 -334 l0 -233 -55 0 -55 0 0 351 0 350 53 -3 52 -3 5
-55 5 -55 22 28 c56 72 119 99 219 94 49 -3 82 -10 110 -26z m786 19 c75 -21
125 -85 147 -188 6 -30 11 -151 11 -282 l0 -230 -55 0 -55 0 0 248 c0 240 -1
250 -23 292 -61 115 -237 107 -312 -15 l-30 -48 -3 -241 -3 -241 -55 3 -54 4
2 346 3 347 53 3 52 3 0 -55 c0 -31 2 -56 5 -56 3 0 20 16 37 36 64 73 176
103 280 74z"/>
<path d="M3395 4673 c-79 -19 -119 -66 -117 -139 1 -91 55 -139 157 -138 121
1 202 85 213 221 l5 63 -119 -1 c-66 -1 -128 -3 -139 -6z"/>
<path d="M5425 4938 c-36 -19 -76 -62 -98 -103 -29 -56 -36 -209 -13 -289 22
-76 76 -130 143 -144 150 -33 253 79 253 273 0 121 -40 211 -114 256 -35 21
-137 26 -171 7z"/>
<path d="M2015 3392 c-51 -24 -101 -80 -114 -129 -22 -79 -36 -74 202 -71
l212 3 -3 35 c-6 56 -37 115 -77 146 -32 24 -49 29 -109 32 -53 2 -81 -2 -111
-16z"/>
<path d="M4895 3131 c-80 -20 -115 -62 -115 -139 0 -50 3 -58 38 -92 61 -61
159 -64 243 -7 46 31 88 117 91 187 l3 55 -115 2 c-63 1 -128 -2 -145 -6z"/>
</g>
</svg>
