<svg xmlns="http://www.w3.org/2000/svg" viewBox="0 0 225 315" height="315" width="225" stroke="#000" xmlns:xlink="http://www.w3.org/1999/xlink"><g fill="#e30613"><path id="g" d="M2.6 2.5l-.029 199.8c0 60.7 49.22 109.9 109.9 109.9 60.7 0 109.9-49.2 109.9-109.9V2.5z" stroke-width="4"/></g><use stroke-width="4" xlink:href="#a"/><g id="a" fill="#fff"><circle cy="42" cx="112.5" r="7.5"/><path d="M114.4 35.2V24h6.6v-4.06h-6.6V13h-3.8v6.94H104V24h6.6v11.2"/><circle cy="64" cx="112.5" r="22.5"/><path d="M87.2 66v7h50.6v-7z"/></g><use stroke-width="4" xlink:href="#b"/><path id="b" d="M90.87 75.5l.26 132.5h42.97V75.5z" fill="#fff"/><g transform="translate(1.32 1.25)"><use xlink:href="#c" transform="matrix(-1 0 0 1 222.4 0)"/><g id="c"><use stroke-width="4" xlink:href="#d"/><g id="d"><use xlink:href="#b" transform="matrix(-1 0 0 1 280.6 -1.25)"/><path fill="#fff" d="M29.389 49.749v22h50v-22h-7.14v11h-7.14v-11h-7.14v11h-7.15v-11h-7.14v11h-7.14v-11h-7.15zM50.272 35.616h-8.24l4.12-7.14-4.12-7.13h8.24l4.12-7.14 4.12 7.14h8.24l-4.12 7.13 4.12 7.14h-8.24l-4.12 7.13zM111.23 311.168c41.7-.699 77.7-23.799 93.399-53.399-7-27-10-50.5-10-79.5h-83.5"/></g><g id="e"><path stroke-width="2" fill="none" d="M135 232.7h-7"/><path d="M127.68 228.75c-2 2 1.5 2 1.5 4s-3.5 2-1.5 4c1.7 1.7 3.5-1.1 3.5-4 0-3.2-2-5.5-3.5-4z"/></g><path stroke-width="3" d="M111.1 196.8c24.6 0 33.7 23 33.7 30.4v78.4" fill="none"/><path stroke-width="2" d="M111 311l.5-104.2c13.9 0 24.2 12.9 24.2 24.3v77.5" fill="none"/><use xlink:href="#e" y="51"/></g></g><use stroke-width="4" xlink:href="#f"/><path id="f" d="M24.5 152v25h176v-25H187v12h-13.6v-12h-13.5v12h-13.6v-12h-13.5v12h-13.5v-12h-13.6v12H92.19v-12H78.66v12H65.12v-12H51.56v12H38.03v-12z" fill="#fff"/><use xlink:href="#g" fill="none"/></svg>