<svg version="1" xmlns="http://www.w3.org/2000/svg" width="1034.667" height="1034.667" viewBox="0 0 776.000000 776.000000"><path d="M193.9 52.2c-.9.7-22.2 37.1-47.4 80.8-25.2 43.7-68.5 118.7-96.2 166.7C22.7 347.7 0 387.4 0 388c0 .6 22.7 40.3 50.3 88.3 27.7 48 71 123 96.2 166.7 25.2 43.7 46.5 80.1 47.4 80.7 2.2 1.9 386 1.9 388.2 0 .9-.6 22.2-37 47.4-80.7s68.5-118.7 96.2-166.7c27.6-48 50.3-87.7 50.3-88.3 0-.6-22.7-40.3-50.3-88.3-27.7-48-71-123-96.2-166.7-25.2-43.7-46.5-80.1-47.4-80.8-1.2-.9-41.5-1.2-194.1-1.2s-192.9.3-194.1 1.2zm34.4 199c.2.7 5.5 14.8 11.7 31.3 6.2 16.5 11.6 30.4 12 30.8.4.5 1.9-2.2 3.4-6 1.4-3.7 6.8-18.1 12-31.8l9.4-25 9.1-.3 9.1-.3V343h-11v-41c0-22.6-.3-41-.7-41-.5 0-6.2 14.4-12.8 32l-11.9 32h-6.2c-5 0-6.3-.3-6.9-1.8-.3-.9-5.6-15-11.7-31.2s-11.4-29.9-11.9-30.5c-.5-.5-.9 16.8-.9 40.3V343h-11v-93h8.9c6.2 0 9 .4 9.4 1.2zm129.6 22.4c6.6 1.9 12.2 6.9 15.2 13.7 2.2 4.9 2.3 6.6 2.7 30.4l.4 25.3H365v-10.5l-3.2 3.9c-9.1 11.1-32.3 11.8-40.2 1.2-7.3-9.9-5.8-24.5 3.4-31.7 5.2-4.2 13.4-5.9 27.8-5.9h12.5l-.6-4.6c-.6-5.8-3.1-9.3-8.7-12.2-6.3-3.1-17.9-3.1-27.2.2l-6.8 2.4v-4.9c0-2.7.3-4.9.8-5 .4 0 3.9-.8 7.7-1.9 8.7-2.3 20.5-2.5 27.4-.4zm83.1 3.9c0 5.4 0 5.4-2.6 4.5-5.7-2.2-14.4-.5-19.5 3.8-6.5 5.4-7.3 9.1-7.7 34.4l-.4 22.8H401v-69h10v5c0 2.7.2 5 .5 5s2-1.6 3.7-3.6c5.1-5.8 10.9-8.2 20.1-8.3l5.7-.1v5.5zm51.5-4.4c9.1 2.3 9.5 2.7 9.5 7.9v4.8l-5.7-2.4c-8-3.3-19-3.3-25.3-.2-9.2 4.7-13.8 15.3-12.7 28.9.9 11.2 4.9 17.9 13.2 22.2 5.5 2.8 16.9 2.7 24.5-.2 3-1.1 5.6-2.1 5.8-2.1.2 0 .2 2.1 0 4.7l-.3 4.7-5.5 1.8c-3.3 1-8.9 1.7-14.2 1.7-15.4.1-24.9-5.3-31-17.7-3.2-6.4-3.3-7.1-3.3-18.7 0-10.2.3-12.7 2.2-16.7 4.5-9.8 10.6-15.2 20.6-18.3 5.1-1.7 16.8-1.9 22.2-.4zm73.1 2.2c12.4 6.3 18.2 20.9 16.2 40.5-1.4 13.4-8.9 24-19.5 27.6-6.6 2.3-18 2.1-24.5-.4-6.4-2.4-12.9-8.6-15.7-15.1-4.9-11-4.7-29 .5-39.6 3.1-6.4 9.7-12.4 16.1-14.6 7.4-2.6 20.3-1.8 26.9 1.6zM273 418.2c0 10.1-.1 18.7 0 19.3 0 .5 1.8-1 4-3.3 6.3-6.5 9.2-7.7 19-7.7 11 0 16.1 2.7 20.6 10.7l2.9 5.3.3 27.2.3 27.3h-10l-.3-24.8c-.3-27.7-.9-30.4-7.7-34.9-6-4-16.9-2.6-23 3-5.5 5.1-6.1 8.2-6.1 33.4v23.1l-5.5.4-5.5.3V400h11.1l-.1 18.2zm-148.8 27.5l.3 41.8 23.3.3 23.2.2v8.9l-29 .3-29 .3V404h11l.2 41.7zm101.3-16.9c9.9 5.1 15.4 14.6 16.3 27.9l.5 8.3h-26.5c-14.6 0-26.7.3-27 .6-1.1 1.1 2 11.5 4.6 15.5 7 10.5 25 12.3 43.9 4.4 1.6-.7 1.8-.3 1.5 4.1l-.3 4.9-5.5 2c-4.4 1.5-8.2 1.9-18.5 2-12.2 0-13.3-.2-18.7-2.8-13.6-6.7-20.8-22.6-17.9-39.8 2.4-14.9 9.9-24.4 22.4-28.5 6.1-2 20.1-1.3 25.2 1.4zm164.6.3c4.2 2.9 6.4 5.5 8 9.2l1.2 2.7 5.3-5.9c6.7-7.4 12.3-9.6 22.1-8.8 7.1.5 11.6 3 15.2 8.3 4.5 6.5 5.1 11.1 5.1 37.8v25.1l-5.5-.3-5.5-.4v-24.9c0-26.9-.4-29.2-5.3-33.8-1.8-1.6-4.2-2.5-7.6-2.9-8.7-.8-15.4 2.7-19.4 10.1-2.1 3.9-2.2 5.7-2.5 28.2l-.3 24-4.9-.3-4.8-.4-.4-24.6c-.4-26.7-.9-29.3-6.1-34.1-1.8-1.6-4.2-2.5-7.6-2.9-8.7-.8-15.4 2.7-19.4 10.1-2.1 3.9-2.2 5.7-2.5 27.9l-.4 23.8H344l.2-34.8.3-34.7 5.3-.3 5.2-.3v5.5c0 3.1.1 5.6.3 5.6.2 0 2.6-2.2 5.5-5 6.1-5.9 9.4-7 18.8-6.6 5.6.2 7.9.8 10.5 2.7zm120.9-.4c5.7 2.5 9.7 6.6 12.3 12.3 1.9 4.1 2.1 6.8 2.5 30.1l.4 25.7-5.1.3-5.1.4v-4.7c0-2.6-.4-4.9-.8-5.2-.4-.2-2.1 1.1-3.6 3.1-6.6 8.2-22.7 11.1-33.2 5.8-8.8-4.4-13-14.2-10.5-24.8 1.6-6.9 5.3-11.4 12-14.6 5.1-2.3 6.9-2.6 20.1-2.9 8-.2 14.9-.7 15.3-1.1.4-.5.3-2.9-.4-5.4-1.6-6.3-7-11.3-13.5-12.3-7.1-1-18.6.2-23.9 2.5-2.6 1.2-4.9 2.1-5.2 2.1-.2 0-.3-2.1-.1-4.8.3-4.5.5-4.8 4.3-6 11.3-3.8 26.8-4 34.5-.5zm86.6.2c2.2 1.2 5 3.7 6.2 5.6 4.6 6.6 5.2 11.1 5.2 37.9v25.1h-9.5l-.5-25c-.6-28-1.2-30.8-7.9-35.2-6-4-16.9-2.6-23 3-5.5 5.1-6.1 8.2-6.1 33.4V497h-11v-70.1l5.3.3 5.2.3.5 5.5.5 5.5 2.2-2.8c5.6-7.2 11.9-9.9 21.9-9.4 4.9.3 8.2 1 11 2.6zm78.6-1.9c7.5 2.1 12.5 8.5 14.7 18.8.6 3 1.1 15.1 1.1 28.2v23h-11v-24.8c0-24-.1-25-2.3-29.2-6.1-11.5-23.7-10.7-31.2 1.5l-3 4.8-.3 24.1-.3 24.1-5.5-.3-5.4-.4.2-34.6.3-34.7 5.3-.3 5.2-.3v5.5c0 3.1.2 5.6.5 5.6s2-1.6 3.7-3.6c6.4-7.3 17.6-10.3 28-7.4z"/><path d="M339.5 308.7c-7.9 1.9-11.9 6.6-11.7 13.9.1 9.1 5.5 13.9 15.7 13.8 12.1-.1 20.2-8.5 21.3-22.1l.5-6.3-11.9.1c-6.6.1-12.8.3-13.9.6zM542.5 282.2c-3.6 1.9-7.6 6.2-9.8 10.3-2.9 5.6-3.6 20.9-1.3 28.9 2.2 7.6 7.6 13 14.3 14.4 15 3.3 25.3-7.9 25.3-27.3 0-12.1-4-21.1-11.4-25.6-3.5-2.1-13.7-2.6-17.1-.7zM201.5 436.8c-5.1 2.4-10.1 8-11.4 12.9-2.2 7.9-3.6 7.4 20.2 7.1l21.2-.3-.3-3.5c-.6-5.6-3.7-11.5-7.7-14.6-3.2-2.4-4.9-2.9-10.9-3.2-5.3-.2-8.1.2-11.1 1.6zM489.5 462.9c-8 2-11.5 6.2-11.5 13.9 0 5 .3 5.8 3.8 9.2 6.1 6.1 15.9 6.4 24.3.7 4.6-3.1 8.8-11.7 9.1-18.7l.3-5.5-11.5-.2c-6.3-.1-12.8.2-14.5.6z"/></svg>