<svg width="170" height="174" viewBox="0 0 170 174" xmlns="http://www.w3.org/2000/svg" xmlns:xlink="http://www.w3.org/1999/xlink"><title>New-Google-Maps-logo</title><defs><path id="a" d="M.06 151.388V.029h151.299v151.359H.06z"/></defs><g fill="none" fill-rule="evenodd"><g transform="translate(0 22)"><mask id="b" fill="#fff"><use xlink:href="#a"/></mask><path d="M0 135.868V12.971C0 5.828 5.796.029 12.942.029h122.893L0 135.868" fill="#20995B" mask="url(#b)"/><path d="M0 138.447v-2.579L135.835.029h2.579c7.146 0 12.945 5.799 12.945 12.942v2.582L15.521 151.388h-2.579C5.796 151.388 0 145.589 0 138.447" fill="#FBD84C" mask="url(#b)"/></g><path fill="#517AB0" d="M15.521 173.388l60.159-60.155 60.155 60.155H15.521"/><path d="M135.835 173.388l-61.077-61.077 15.524-15.52 61.077 61.077v2.579c0 7.142-5.799 12.941-12.945 12.941h-2.579" fill="#FFF"/><path fill="#BCBCB7" d="M151.359 157.868L91.2 97.709l60.159-60.156v120.315"/><path d="M26.997 38.762c7.701-3.526 17.335-2.088 23.591 3.681-1.957 1.995-3.967 3.943-5.977 5.884-6.256-6.209-18.009-3.263-20.939 4.949-3.835 8.08 2.536 18.704 11.552 18.82 5.899.688 11.784-3.263 13.028-9.14-4.121.008-8.234-.031-12.348.031-.116-2.536-.131-5.08-.077-7.624 6.881.178 13.933-.394 20.714.279.519 5.033.163 10.376-2.543 14.791-4.245 7.903-14.266 11.351-22.749 9.356-10.485-2.172-18.333-12.928-16.902-23.583.734-7.516 5.814-14.328 12.65-17.444" fill="#F1F1EE"/><path d="M123.964 27.518c-5.818 1.298-10.7 6.444-11.191 12.466-.611 5.607 2.672 11.297 7.697 13.772 5.449 2.882 12.602 1.999 17.153-2.166 4.248-3.758 5.795-10.248 3.576-15.5-2.626-6.572-10.421-10.315-17.235-8.572zm.959-26.796h4.92c12.262.702 24.253 6.693 31.686 16.549 4.867 6.225 7.583 13.952 8.195 21.8v2.913c-.287 15.213-10.022 27.701-18.451 39.534-9.462 13.371-18.208 27.943-20.631 44.423-.649 2.793.129 6.701-3.207 7.962-.784-.612-1.697-1.117-2.248-1.97-.989-9.214-3.29-18.314-7.222-26.728-4.46-9.803-10.67-18.662-16.979-27.332-3.84-5.199-7.463-10.58-10.459-16.315-4.708-8.595-6.459-18.752-4.535-28.395 1.578-7.614 5.562-14.67 11.078-20.126C104.503 5.77 114.554 1.371 124.923.722z" fill="#CC463E"/><path d="M123.964 27.518c6.814-1.743 14.609 2 17.235 8.572 2.219 5.252.672 11.742-3.576 15.5-4.551 4.165-11.704 5.048-17.153 2.166-5.025-2.475-8.308-8.165-7.697-13.772.491-6.022 5.373-11.168 11.191-12.466" fill="#6D2A28"/></g></svg>