<?xml version="1.0" standalone="no"?>
<!DOCTYPE svg PUBLIC "-//W3C//DTD SVG 20010904//EN"
 "http://www.w3.org/TR/2001/REC-SVG-20010904/DTD/svg10.dtd">
<svg version="1.0" xmlns="http://www.w3.org/2000/svg"
 width="776.000000pt" height="776.000000pt" viewBox="0 0 776.000000 776.000000"
 preserveAspectRatio="xMidYMid meet">
<metadata>
Created by potrace 1.11, written by Peter Selinger 2001-2013
</metadata>
<g transform="translate(0.000000,776.000000) scale(0.100000,-0.100000)"
fill="#000000" stroke="none">
<path d="M1922 7208 c-11 -18 -448 -774 -971 -1681 l-951 -1647 969 -1678 968
-1677 1943 0 1943 0 968 1678 969 1677 -969 1678 -968 1677 -1941 3 -1940 2
-20 -32z m607 -2183 c35 -17 101 -90 101 -110 0 -24 13 -17 38 20 50 78 159
124 257 109 86 -12 154 -81 180 -179 11 -45 15 -116 15 -302 l0 -243 -59 0
-60 0 -3 263 c-3 228 -5 266 -21 294 -47 87 -206 86 -271 -1 -41 -56 -46 -88
-46 -327 l0 -229 -59 0 -60 0 -3 263 c-3 228 -5 266 -21 294 -22 41 -67 65
-123 65 -85 0 -135 -32 -170 -106 -23 -49 -24 -60 -24 -283 l0 -233 -60 0 -60
0 0 355 0 355 60 0 60 0 0 -52 0 -53 25 32 c31 39 80 70 131 82 48 12 137 5
173 -14z m1173 -7 c28 -12 64 -39 84 -62 59 -69 68 -118 69 -391 l0 -240 -57
-3 -58 -3 0 53 0 53 -30 -36 c-87 -106 -299 -118 -392 -22 -47 48 -59 82 -59
161 0 170 111 241 375 242 l109 0 -6 37 c-22 133 -204 182 -384 103 l-43 -19
0 54 0 53 50 17 c119 39 255 41 342 3z m786 26 c19 -6 22 -13 22 -60 l0 -54
-59 6 c-110 12 -169 -16 -214 -100 -21 -38 -22 -56 -25 -278 l-4 -238 -59 0
-59 0 0 355 0 355 60 0 60 0 0 -52 0 -53 25 31 c33 42 65 62 127 79 59 15 92
18 126 9z m574 -21 l53 -18 3 -52 c2 -29 -1 -53 -5 -53 -4 0 -31 9 -58 19
-153 58 -286 23 -348 -92 -19 -36 -22 -57 -22 -152 0 -94 3 -116 22 -151 70
-130 207 -158 396 -79 16 7 18 2 15 -46 l-3 -53 -50 -20 c-37 -14 -76 -20
-155 -20 -93 -1 -111 2 -160 25 -105 50 -172 145 -191 272 -32 218 76 397 265
437 57 12 174 4 238 -17z m663 1 c113 -39 184 -156 193 -318 10 -186 -54 -320
-181 -377 -42 -19 -69 -24 -142 -24 -79 0 -97 4 -147 28 -69 34 -120 90 -150
166 -31 79 -32 271 -2 347 69 171 241 242 429 178z m-4495 -1749 l0 -495 -55
0 -55 0 0 495 0 495 55 0 55 0 0 -495z m1178 302 l2 -187 31 34 c94 107 303
109 383 3 50 -65 56 -107 56 -389 l0 -258 -54 0 -54 0 -4 253 c-3 228 -5 256
-23 292 -27 53 -72 78 -141 77 -70 0 -120 -26 -159 -81 l-30 -43 -3 -249 -3
-249 -59 0 -60 0 0 495 0 496 58 -3 57 -3 3 -188z m-471 -103 c98 -47 154
-146 161 -281 l5 -83 -267 0 -266 0 0 -29 c0 -48 29 -114 68 -154 81 -83 241
-88 415 -12 15 6 17 1 17 -49 l0 -55 -72 -23 c-58 -18 -96 -23 -183 -23 -99 0
-116 3 -170 28 -113 52 -175 137 -196 266 -22 130 13 260 91 345 95 103 267
133 397 70z m1631 7 c43 -22 63 -43 86 -89 l17 -33 33 43 c19 24 58 57 87 73
45 25 65 29 124 29 86 0 143 -27 181 -83 48 -74 54 -114 54 -388 l0 -254 -57
3 -58 3 -5 265 c-4 232 -7 269 -23 293 -28 43 -62 60 -122 59 -77 -1 -135 -36
-167 -99 -22 -46 -23 -60 -26 -285 l-3 -238 -59 0 -59 0 -3 263 c-3 284 -6
300 -60 340 -19 14 -42 20 -82 19 -78 -1 -136 -35 -168 -99 -22 -46 -23 -60
-26 -285 l-3 -238 -60 0 -59 0 0 355 0 355 60 0 60 0 0 -52 0 -52 37 37 c39
41 80 66 128 78 44 12 131 1 173 -20z m1193 9 c61 -17 114 -63 145 -127 l29
-58 3 -263 3 -263 -58 3 -58 3 -3 43 -3 43 -44 -40 c-85 -78 -236 -94 -333
-34 -66 41 -97 98 -97 183 0 84 8 112 47 155 60 70 148 95 325 95 l103 0 0 34
c0 45 -36 97 -85 121 -55 28 -186 26 -269 -4 -33 -11 -63 -21 -68 -21 -4 0 -8
22 -8 50 l0 49 56 17 c119 34 225 39 315 14z m887 -11 c51 -25 84 -66 106
-132 13 -39 16 -96 16 -307 l0 -260 -54 0 -54 0 -4 253 c-3 223 -5 256 -22
290 -32 65 -97 92 -182 76 -60 -11 -111 -50 -135 -103 -16 -36 -19 -68 -19
-278 l0 -238 -60 0 -60 0 0 355 0 355 60 0 60 0 0 -51 0 -52 20 26 c72 91 216
120 328 66z m773 20 c41 -9 62 -21 98 -58 70 -70 74 -88 78 -393 l4 -268 -60
0 -60 0 -3 264 c-3 249 -4 266 -24 292 -39 52 -68 67 -132 67 -66 -1 -92 -11
-140 -56 -53 -51 -62 -100 -62 -349 l0 -218 -60 0 -60 0 0 355 0 355 60 0 60
0 0 -52 0 -52 44 43 c45 44 124 80 178 81 15 0 50 -5 79 -11z"/>
<path d="M3518 4669 c-77 -11 -117 -33 -134 -74 -19 -46 -18 -83 4 -124 26
-51 74 -73 149 -69 115 7 192 90 196 214 l2 59 -80 1 c-44 1 -106 -2 -137 -7z"/>
<path d="M5536 4940 c-102 -32 -162 -183 -136 -339 28 -165 151 -244 280 -178
151 76 159 413 11 500 -37 21 -115 30 -155 17z"/>
<path d="M1708 3395 c-69 -22 -138 -114 -138 -184 0 -8 59 -11 205 -11 l205 0
0 32 c0 48 -38 116 -80 144 -48 32 -127 39 -192 19z"/>
<path d="M4610 3130 c-109 -15 -141 -42 -147 -123 -7 -92 49 -147 150 -147 61
0 107 21 150 69 40 44 57 93 57 164 l0 47 -77 -1 c-43 -1 -103 -5 -133 -9z"/>
</g>
</svg>
