<svg version="1" xmlns="http://www.w3.org/2000/svg" width="1034.667" height="1034.667" viewBox="0 0 776.000000 776.000000"><path d="M192.2 55.2c-1.1 1.8-44.8 77.4-97.1 168.1L0 388l96.9 167.8 96.8 167.7h388.6l96.8-167.8L776 388l-96.9-167.8-96.8-167.7-194.1-.3-194-.2-2 3.2zm60.7 218.3c3.5 1.7 10.1 9 10.1 11 0 2.4 1.3 1.7 3.8-2 5-7.8 15.9-12.4 25.7-10.9 8.6 1.2 15.4 8.1 18 17.9 1.1 4.5 1.5 11.6 1.5 30.2V344h-11.9l-.3-26.3c-.3-22.8-.5-26.6-2.1-29.4-4.7-8.7-20.6-8.6-27.1.1-4.1 5.6-4.6 8.8-4.6 32.7V344h-11.9l-.3-26.3c-.3-22.8-.5-26.6-2.1-29.4-2.2-4.1-6.7-6.5-12.3-6.5-8.5 0-13.5 3.2-17 10.6-2.3 4.9-2.4 6-2.4 28.3V344h-12v-71h12v10.5l2.5-3.2c3.1-3.9 8-7 13.1-8.2 4.8-1.2 13.7-.5 17.3 1.4zm117.3.7c2.8 1.2 6.4 3.9 8.4 6.2 5.9 6.9 6.8 11.8 6.9 39.1v24l-5.7.3-5.8.3v-10.6l-3 3.6c-8.7 10.6-29.9 11.8-39.2 2.2-4.7-4.8-5.9-8.2-5.9-16.1 0-17 11.1-24.1 37.5-24.2h10.9l-.6-3.7c-2.2-13.3-20.4-18.2-38.4-10.3l-4.3 1.9v-10.7l5-1.7c11.9-3.9 25.5-4.1 34.2-.3zm78.6-2.6c1.9.6 2.2 1.3 2.2 6v5.4l-5.9-.6c-11-1.2-16.9 1.6-21.4 10-2.1 3.8-2.2 5.6-2.5 27.8l-.4 23.8H409v-71h12v10.5l2.5-3.1c3.3-4.2 6.5-6.2 12.7-7.9 5.9-1.5 9.2-1.8 12.6-.9zm57.4 2.1l5.3 1.8.3 5.2c.2 2.9-.1 5.3-.5 5.3s-3.1-.9-5.8-1.9c-15.3-5.8-28.6-2.3-34.8 9.2-1.9 3.6-2.2 5.7-2.2 15.2 0 9.4.3 11.6 2.2 15.1 7 13 20.7 15.8 39.6 7.9 1.6-.7 1.8-.2 1.5 4.6l-.3 5.3-5 2c-3.7 1.4-7.6 2-15.5 2-9.3.1-11.1-.2-16-2.5-10.5-5-17.2-14.5-19.1-27.2-3.2-21.8 7.6-39.7 26.5-43.7 5.7-1.2 17.4-.4 23.8 1.7zm66.3-.1c11.3 3.9 18.4 15.6 19.3 31.8 1 18.6-5.4 32-18.1 37.7-4.2 1.9-6.9 2.4-14.2 2.4-7.9 0-9.7-.4-14.7-2.8-6.9-3.4-12-9-15-16.6-3.1-7.9-3.2-27.1-.2-34.7 6.9-17.1 24.1-24.2 42.9-17.8zM123 448.5V498h-11v-99h11v49.5zm117.8-30.2l.2 18.7 3.1-3.4c9.4-10.7 30.3-10.9 38.3-.3 5 6.5 5.6 10.7 5.6 38.9V498h-10.8l-.4-25.3c-.3-22.8-.5-25.6-2.3-29.2-2.7-5.3-7.2-7.8-14.1-7.7-7 0-12 2.6-15.9 8.1l-3 4.3-.3 24.9-.3 24.9H229v-99.1l5.8.3 5.7.3.3 18.8zm-47.1 10.3c9.8 4.7 15.4 14.6 16.1 28.1l.5 8.3H157v2.9c0 4.8 2.9 11.4 6.8 15.4 8.1 8.3 24.1 8.8 41.5 1.2 1.5-.6 1.7-.1 1.7 4.9v5.5l-7.2 2.3c-5.8 1.8-9.6 2.3-18.3 2.3-9.9 0-11.6-.3-17-2.8-11.3-5.2-17.5-13.7-19.6-26.6-2.2-13 1.3-26 9.1-34.5 9.5-10.3 26.7-13.3 39.7-7zm163.1-.7c4.3 2.2 6.3 4.3 8.6 8.9l1.7 3.3 3.3-4.3c1.9-2.4 5.8-5.7 8.7-7.3 4.5-2.5 6.5-2.9 12.4-2.9 8.6 0 14.3 2.7 18.1 8.3 4.8 7.4 5.4 11.4 5.4 38.8v25.4l-5.7-.3-5.8-.3-.5-26.5c-.4-23.2-.7-26.9-2.3-29.3-2.8-4.3-6.2-6-12.2-5.9-7.7.1-13.5 3.6-16.7 9.9-2.2 4.6-2.3 6-2.6 28.5l-.3 23.8h-11.8l-.3-26.3c-.3-28.4-.6-30-6-34-1.9-1.4-4.2-2-8.2-1.9-7.8.1-13.6 3.5-16.8 9.9-2.2 4.6-2.3 6-2.6 28.5l-.3 23.8H311v-71h12v10.4l3.7-3.7c3.9-4.1 8-6.6 12.8-7.8 4.4-1.2 13.1-.1 17.3 2zm119.3-.9c6.1 1.7 11.4 6.3 14.5 12.7l2.9 5.8.3 26.3.3 26.3-5.8-.3-5.8-.3-.3-4.3-.3-4.3-4.4 4c-8.5 7.8-23.6 9.4-33.3 3.4-6.6-4.1-9.7-9.8-9.7-18.3 0-8.4.8-11.2 4.7-15.5 6-7 14.8-9.5 32.5-9.5H482v-3.4c0-4.5-3.6-9.7-8.5-12.1-5.5-2.8-18.6-2.6-26.9.4-3.3 1.1-6.3 2.1-6.8 2.1-.4 0-.8-2.2-.8-5v-4.9l5.6-1.7c11.9-3.4 22.5-3.9 31.5-1.4zm88.7 1.1c5.1 2.5 8.4 6.6 10.6 13.2 1.3 3.9 1.6 9.6 1.6 30.7v26h-10.8l-.4-25.3c-.3-22.3-.5-25.6-2.2-29-3.2-6.5-9.7-9.2-18.2-7.6-6 1.1-11.1 5-13.5 10.3-1.6 3.6-1.9 6.8-1.9 27.8V498h-12v-71h12v10.3l2-2.6c7.2-9.1 21.6-12 32.8-6.6zm77.3-2c4.1.9 6.2 2.1 9.8 5.8 7 7 7.4 8.8 7.8 39.3l.4 26.8h-12l-.3-26.4c-.3-24.9-.4-26.6-2.4-29.2-3.9-5.2-6.8-6.7-13.2-6.7-6.6.1-9.2 1.1-14 5.6-5.3 5.1-6.2 10-6.2 34.9V498h-12v-71h12v10.4l4.4-4.3c4.5-4.4 12.4-8 17.8-8.1 1.5 0 5 .5 7.9 1.1z"/><path d="M351.8 309.1c-7.7 1.1-11.7 3.3-13.4 7.4-1.9 4.6-1.8 8.3.4 12.4 2.6 5.1 7.4 7.3 14.9 6.9 11.5-.7 19.2-9 19.6-21.4l.2-5.9-8-.1c-4.4-.1-10.6.2-13.7.7zM553.6 282c-10.2 3.2-16.2 18.3-13.6 33.9 2.8 16.5 15.1 24.4 28 17.8 15.1-7.6 15.9-41.3 1.1-50-3.7-2.1-11.5-3-15.5-1.7zM170.8 436.5c-6.9 2.2-13.8 11.4-13.8 18.4 0 .8 5.9 1.1 20.5 1.1H198v-3.2c0-4.8-3.8-11.6-8-14.4-4.8-3.2-12.7-3.9-19.2-1.9zM461 463c-10.9 1.5-14.1 4.2-14.7 12.3-.7 9.2 4.9 14.7 15 14.7 6.1 0 10.7-2.1 15-6.9 4-4.4 5.7-9.3 5.7-16.4V462l-7.7.1c-4.3.1-10.3.5-13.3.9z"/></svg>