<?xml version="1.0" standalone="no"?>

<!DOCTYPE svg PUBLIC "-//W3C//DTD SVG 20010904//EN"

 "http://www.w3.org/TR/2001/REC-SVG-20010904/DTD/svg10.dtd">

<svg version="1.0" xmlns="http://www.w3.org/2000/svg"

 width="150.000000pt" height="150.000000pt" viewBox="0 0 150.000000 150.000000"

 preserveAspectRatio="xMidYMid meet">

<path fill="#fefefe" stroke="none" d="
M0 75

L0 0

L75 0

L150 0

L150 75

L150 150

L75 150

L0 150

L0 75

Z

"/>

<path fill="#f4f4f4" stroke="none" d="
M59 141

C42 138 33 134 25 126

C14 114 10 99 11 77

C12 53 19 33 30 22

C38 14 41 13 69 10

C72 10 75 9 75 8

C75 7 77 6 79 6

C82 4 83 5 96 11

C108 17 110 19 118 27

C132 41 138 54 138 74

C138 93 132 107 120 120

C107 132 89 140 70 141

C65 141 60 141 59 141

Z

M75 130

C73 130 70 130 67 130

C65 130 67 130 71 130

C75 130 77 130 75 130

Z

M59 129

C59 129 58 129 57 129

C57 129 57 129 58 129

C59 129 60 129 59 129

Z

M110 116

C111 114 111 114 109 115

C108 116 108 117 108 117

C108 118 108 117 110 116

Z

M31 115

C31 115 30 114 29 113

C27 112 27 112 28 114

C30 115 31 116 31 115

Z

M67 107

C67 107 66 107 65 107

C65 107 65 107 66 107

C67 107 68 107 67 107

Z

M83 107

C83 107 82 107 81 107

C81 107 81 107 82 107

C83 107 84 107 83 107

Z

M46 98

C46 98 45 97 44 96

C42 95 42 95 43 97

C45 98 46 99 46 98

Z

M68 96

C68 96 67 96 66 96

C66 96 66 96 67 96

C68 96 69 96 68 96

Z

M82 96

C82 96 81 96 80 96

C80 96 80 96 81 96

C82 96 83 96 82 96

Z

M21 89

C21 89 21 89 21 91

C21 92 21 92 21 92

C21 91 21 90 21 89

Z

M100 86

L103 83

L100 86

C97 89 96 90 97 90

C97 90 98 88 100 86

Z

M126 81

C126 81 126 81 126 82

C126 83 126 84 126 83

C126 83 126 82 126 81

Z

M127 67

C127 65 127 66 127 71

C127 75 127 76 127 74

C127 72 127 69 127 67

Z

M21 66

C21 66 21 66 21 68

C21 69 21 69 21 69

C21 68 21 67 21 66

Z

M53 68

C53 68 52 68 51 68

C51 68 51 68 52 68

C53 68 54 68 53 68

Z

M22 60

C22 60 22 60 22 61

C22 62 22 63 22 62

C22 62 22 61 22 60

Z

M45 59

C45 59 45 59 45 61

C45 62 45 62 45 62

C45 61 45 60 45 59

Z

M87 60

C87 60 87 60 87 61

C87 62 87 63 87 62

C87 62 87 61 87 60

Z

M126 58

C126 58 126 58 126 59

C126 60 126 61 126 60

C126 60 126 59 126 58

Z

M23 55

C23 55 23 55 23 56

C23 57 23 58 23 57

C23 57 23 56 23 55

Z

M100 57

C100 57 99 56 98 55

C96 54 96 54 97 56

C99 57 100 58 100 57

Z

M36 30

L39 27

L36 30

C33 33 32 34 33 34

C33 34 34 32 36 30

Z

M95 27

C95 27 94 27 93 27

C93 27 93 27 94 27

C95 27 96 27 95 27

Z

M67 19

C66 19 65 19 64 19

C63 19 63 19 65 19

C67 19 67 19 67 19

Z

"/>

<path fill="#cfcfcf" stroke="none" d="
M48 139

C24 132 13 115 11 87

C9 53 24 19 43 14

C45 13 52 12 58 11

C73 10 76 10 75 9

C75 8 77 6 81 5

C83 5 103 14 109 19

C120 27 126 34 132 45

C140 62 140 86 131 103

C123 120 106 133 85 138

C75 141 57 141 48 139

Z

M86 129

C96 127 102 123 110 115

C121 104 127 88 127 70

C128 51 120 37 105 28

C100 25 99 25 97 26

C94 26 93 26 87 23

C77 18 73 17 64 19

C44 21 34 28 28 42

C22 54 20 63 20 80

C20 110 30 124 55 129

C63 131 79 131 86 129

Z

M59 105

C52 102 48 100 43 94

C38 90 36 84 37 80

C37 76 39 76 41 81

C45 88 52 93 64 96

C78 99 92 96 101 86

C106 80 108 80 106 86

C105 94 96 102 87 105

C80 107 66 107 59 105

Z

M90 66

C87 62 87 59 91 56

C93 54 94 54 96 56

C100 58 101 63 97 66

C93 69 92 69 90 66

Z

M48 65

C44 61 46 55 52 55

C57 55 59 62 56 66

C53 68 51 68 48 65

Z

"/>

<path fill="#afafaf" stroke="none" d="
M49 139

C25 132 13 116 11 87

C9 58 22 24 39 16

C44 13 61 11 71 11

C75 11 76 10 76 9

C75 7 78 6 81 6

C85 5 106 16 113 22

C129 35 138 53 138 73

C138 107 116 132 82 139

C72 141 58 141 49 139

Z

M88 129

C97 127 103 123 110 115

C122 103 128 88 128 71

C128 51 120 37 105 28

C100 25 99 24 97 25

C94 26 93 26 85 22

C78 18 77 18 69 18

C59 18 47 22 39 26

C24 36 16 70 21 96

C23 105 25 111 29 116

C41 129 67 134 88 129

Z

M62 105

C47 101 38 92 37 81

C37 76 39 75 40 80

C42 85 50 92 58 95

C63 97 66 97 74 97

C83 97 85 97 90 94

C93 93 98 89 100 87

C103 84 106 82 106 82

C108 82 106 88 103 92

C100 98 94 103 86 105

C80 107 68 107 62 105

Z

M90 66

C89 66 89 63 89 61

C89 57 90 56 94 56

C99 56 101 61 98 65

C96 68 92 68 90 66

Z

M47 65

C45 61 47 55 51 55

C56 55 59 60 57 64

C55 67 49 67 47 65

Z

"/>

<path fill="#8f8f8f" stroke="none" d="
M51 139

C24 133 11 114 11 82

C11 51 23 23 39 16

C45 13 53 12 67 11

C75 10 76 10 76 9

C76 8 77 7 80 6

C83 5 84 6 94 11

C112 20 124 31 130 43

C135 53 137 62 137 75

C137 85 136 88 134 95

C128 115 110 131 87 138

C78 140 60 141 51 139

Z

M84 130

C107 126 126 103 128 75

C130 55 121 37 105 28

C101 25 99 25 96 25

C94 26 91 25 86 22

C74 16 63 16 47 22

C39 25 33 31 28 39

C22 50 20 59 20 75

C19 103 25 118 43 125

C55 131 69 133 84 130

Z

M62 105

C49 102 40 93 38 83

C36 76 38 75 41 82

C45 88 51 93 61 96

C76 100 92 96 101 86

C106 81 107 81 106 84

C106 91 98 100 90 104

C82 106 70 107 62 105

Z

M90 66

C88 62 88 58 90 57

C95 54 100 57 100 61

C100 66 92 70 90 66

Z

M48 65

C47 64 47 62 47 60

C47 57 47 56 49 55

C52 54 54 55 56 59

C57 61 57 62 56 64

C54 67 50 67 48 65

Z

"/>

<path fill="#6f6f6f" stroke="none" d="
M54 139

C41 137 28 130 22 122

C14 110 11 98 12 77

C12 59 15 48 21 36

C31 17 38 13 67 11

C74 10 76 10 76 9

C75 8 79 6 82 6

C84 5 106 17 112 22

C137 42 144 75 130 105

C126 113 114 125 105 130

C89 139 71 142 54 139

Z

M85 130

C101 127 113 117 121 100

C131 79 131 58 120 41

C116 35 113 33 106 28

C101 25 99 25 96 25

C94 26 91 25 86 22

C77 17 68 16 57 19

C41 23 33 29 27 42

C17 62 16 93 25 110

C28 116 34 121 42 125

C55 131 71 133 85 130

Z

M65 106

C53 103 45 98 40 90

C38 85 36 78 38 78

C39 78 40 79 41 81

C43 86 47 90 56 94

C62 97 63 97 74 97

C84 97 85 97 91 94

C94 93 98 89 101 86

C104 84 106 82 106 82

C107 82 106 85 105 87

C104 94 96 101 89 104

C82 106 71 107 65 106

Z

M90 66

C89 65 89 63 89 61

C89 55 96 54 98 59

C100 61 100 62 98 64

C95 68 92 68 90 66

Z

M48 65

C46 62 46 58 48 56

C50 54 51 54 54 56

C57 58 57 63 55 65

C54 67 50 67 48 65

Z

"/>

<path fill="#444444" stroke="none" d="
M59 140

C37 136 24 128 18 113

C7 90 11 48 28 26

C32 20 38 16 46 14

C51 13 71 10 76 10

C77 10 78 10 77 9

C76 8 76 7 79 7

C82 5 83 6 96 12

C107 18 110 20 118 27

C131 41 137 55 137 74

C137 93 131 107 119 119

C113 125 110 127 101 131

C96 134 88 137 85 138

C78 139 63 141 59 140

Z

M88 130

C110 124 127 101 128 74

C129 61 127 52 122 44

C117 36 113 32 106 28

C100 24 99 24 97 25

C94 26 93 25 86 22

C78 18 76 18 70 18

C56 18 41 23 34 31

C23 43 17 67 19 89

C22 110 29 121 45 127

C57 132 76 133 88 130

Z

M66 105

C51 103 38 92 38 81

C37 77 39 77 40 81

C44 92 65 100 81 97

C89 96 95 93 101 87

C103 84 106 82 106 82

C107 82 105 88 103 92

C98 102 83 108 66 105

Z

M90 65

C88 62 88 59 91 57

C95 54 99 56 99 61

C99 67 93 70 90 65

Z

M49 65

C47 64 47 62 47 61

C47 58 49 55 52 55

C54 55 57 59 57 61

C57 66 53 68 49 65

Z

"/>

<path fill="#3c3c3c" stroke="none" d="
M53 138

C52 136 51 136 51 137

C50 138 50 138 48 137

C47 136 46 135 46 137

C46 138 46 137 45 136

C44 135 43 135 43 136

C43 137 43 137 42 135

C41 134 41 134 40 134

C40 135 40 134 40 134

C40 133 39 133 39 133

C38 133 38 133 38 133

C38 132 37 132 37 132

C36 132 36 132 36 132

C36 131 35 131 35 131

C34 131 33 130 32 129

C31 128 31 128 31 128

C31 129 31 130 31 130

C30 130 29 128 29 127

C28 126 26 124 24 123

C22 121 22 121 23 120

C24 120 23 119 22 119

C20 118 20 118 21 117

C22 117 22 117 21 117

C20 117 20 116 20 116

C20 115 20 114 19 114

C17 114 17 114 19 114

C20 113 20 113 18 113

C16 112 16 112 18 112

C18 111 19 111 18 111

C17 111 17 110 17 109

C17 108 17 108 17 108

C16 108 16 107 16 106

C16 105 16 104 15 104

C13 103 13 103 14 103

C16 102 16 101 14 100

C13 98 13 98 13 98

C15 98 15 95 13 93

C12 92 12 91 12 90

C13 87 14 77 13 75

C12 73 12 72 13 70

C15 67 15 65 13 64

C13 64 13 63 14 62

C15 61 16 60 15 60

C14 59 14 58 15 57

C16 56 16 55 15 55

C14 54 15 53 16 53

C17 53 17 52 17 51

C17 50 17 50 18 50

C18 50 18 49 18 48

C18 47 18 47 19 47

C19 47 19 46 19 45

C19 44 19 44 19 44

C20 44 20 43 20 42

C20 41 20 41 20 41

C21 41 21 40 21 40

C21 39 21 39 21 39

C22 39 22 38 22 38

C22 37 22 36 23 36

C24 36 24 36 23 35

C21 35 21 35 23 35

C24 35 24 34 24 34

C24 33 24 33 25 33

C25 32 25 32 25 31

C25 31 25 30 26 30

C27 30 27 29 27 29

C27 28 28 27 29 26

C30 25 31 24 31 24

C31 23 31 22 32 21

C34 20 34 20 33 22

C31 24 31 24 33 22

C34 21 36 20 36 19

C36 18 36 18 37 18

C37 18 37 18 37 19

C37 19 37 19 38 18

C38 18 40 17 40 17

C41 17 42 17 42 16

C42 14 42 14 43 16

C43 17 44 17 44 16

C45 15 46 14 47 15

C48 15 50 15 51 14

C52 12 53 12 53 13

C54 15 57 15 58 13

C58 12 61 12 65 13

C67 13 69 13 69 13

C69 12 71 11 73 11

C76 11 78 10 78 9

C78 8 78 8 79 8

C80 8 81 8 81 7

C82 5 83 5 84 7

C84 9 84 9 85 8

C85 6 85 6 85 8

C85 9 86 9 87 9

C87 9 88 9 88 10

C88 10 88 10 89 10

C89 10 90 10 90 10

C90 11 90 11 91 11

C91 11 92 11 92 12

C92 12 92 12 93 12

C93 12 94 12 94 13

C94 14 94 14 95 13

C95 11 95 11 96 13

C96 15 96 15 97 14

C97 12 97 12 98 14

C98 16 98 16 99 15

C99 13 99 13 100 15

C100 17 100 17 101 16

C101 14 101 14 102 16

C102 18 102 18 103 17

C103 15 103 15 103 17

C103 18 104 18 104 18

C105 18 106 18 106 19

C107 21 108 21 109 21

C110 21 110 21 111 22

C111 24 112 24 113 24

C113 24 115 25 116 26

C117 28 119 30 120 31

C121 31 122 32 122 33

C122 34 122 35 124 36

C125 36 125 37 125 37

C125 38 125 39 126 39

C127 39 127 40 127 40

C127 41 127 42 128 42

C128 42 128 42 128 43

C128 43 128 44 129 44

C131 44 131 44 130 44

C128 45 128 45 129 45

C130 45 130 46 130 47

C130 47 130 48 130 48

C131 47 131 48 131 49

C130 50 131 51 132 51

C134 51 134 51 133 52

C131 52 131 53 132 53

C133 54 133 55 133 55

C133 56 133 57 134 57

C136 57 136 58 135 58

C133 59 133 60 135 61

C136 62 136 63 136 63

C134 64 134 68 136 69

C136 69 137 71 137 74

C137 76 136 78 136 78

C134 79 134 83 136 84

C136 84 136 85 135 86

C134 87 133 88 134 88

C135 89 135 89 134 90

C133 91 133 92 133 93

C133 93 133 94 132 95

C131 95 131 96 133 96

C134 97 134 97 132 97

C131 97 130 98 131 99

C131 100 131 101 130 101

C129 101 130 101 131 102

C132 102 132 102 130 103

C128 103 128 103 130 104

C131 104 131 104 129 105

C127 105 127 105 129 106

C130 106 130 106 128 106

C127 106 127 107 127 107

C127 108 127 109 126 109

C124 110 124 110 126 111

C127 111 127 111 125 111

C125 111 123 112 122 114

C121 115 121 116 121 115

C123 114 123 116 120 118

C118 120 116 121 116 121

C115 121 114 122 113 123

C112 125 111 125 111 125

C110 125 109 125 109 126

C109 127 108 127 108 127

C107 127 106 127 106 128

C106 130 106 130 106 129

C105 128 105 128 104 129

C104 130 103 130 103 130

C102 130 102 130 102 131

C101 131 101 131 101 131

C100 131 99 131 99 132

C99 132 98 132 97 132

C97 132 96 132 96 133

C96 135 96 135 96 134

C95 133 95 133 94 134

C93 136 93 136 92 134

C92 133 92 133 92 134

C92 135 91 135 90 135

C89 135 88 135 88 136

C87 138 87 138 86 136

C86 135 85 135 84 137

C84 138 83 138 82 137

C81 137 80 137 79 138

C78 139 77 139 77 139

C76 137 72 137 72 139

C72 139 69 140 66 140

C63 140 60 139 60 139

C59 137 56 137 55 139

C55 139 54 139 53 138

Z

M77 133

C74 133 69 133 66 133

C63 133 65 133 71 133

C77 133 80 133 77 133

Z

M59 132

C59 132 57 131 55 131

C52 131 52 131 53 131

C55 132 60 133 59 132

Z

M86 132

C85 132 84 132 83 132

C83 132 83 132 85 132

C86 132 86 132 86 132

Z

M94 130

C96 128 96 128 94 129

C88 131 88 130 93 128

C105 123 115 113 122 100

C127 89 129 80 128 68

C128 56 126 49 121 42

C118 38 118 37 120 38

C122 39 120 38 115 33

C113 30 111 29 111 29

C112 31 111 31 105 27

C100 24 99 24 97 25

C94 25 93 25 85 21

C77 18 75 17 69 17

C62 17 55 19 45 22

C37 25 31 32 27 42

C21 54 19 63 19 80

C19 107 26 119 45 127

C48 128 50 129 50 129

C47 130 36 124 32 120

C29 118 26 114 24 111

C23 108 22 106 22 107

C21 109 27 117 31 121

C37 126 47 131 51 130

C52 130 55 130 57 130

C63 132 92 131 94 130

Z

M111 118

C114 115 118 110 119 108

C120 106 120 106 119 108

C115 113 105 123 101 125

C95 128 95 129 100 126

C103 125 107 121 111 118

Z

M21 102

C20 101 20 101 20 101

C19 103 21 106 21 105

C21 105 21 104 21 102

Z

M124 100

C125 98 125 96 125 96

C125 96 124 98 123 100

C120 106 121 106 124 100

Z

M19 96

C19 96 19 96 19 98

C19 99 19 99 19 99

C19 98 19 97 19 96

Z

M18 91

C18 90 18 90 18 92

C18 94 18 94 18 94

C18 93 18 92 18 91

Z

M127 91

C127 90 127 90 127 91

C125 94 125 95 127 94

C127 93 127 91 127 91

Z

M17 75

C17 73 17 75 17 80

C17 84 17 86 17 84

C17 81 17 78 17 75

Z

M129 82

C129 82 129 82 129 84

C129 85 129 85 129 85

C129 84 129 83 129 82

Z

M130 65

C130 62 130 65 130 71

C130 76 130 79 130 76

C130 73 130 68 130 65

Z

M18 64

C18 63 18 64 18 66

C18 67 18 68 18 67

C18 66 18 65 18 64

Z

M19 58

C19 58 19 58 19 60

C19 61 19 61 19 61

C19 60 19 59 19 58

Z

M128 54

C127 49 123 41 122 40

C121 40 122 43 124 46

C126 50 128 54 128 56

C129 58 129 59 129 59

C129 58 129 56 128 54

Z

M20 54

C20 54 20 54 20 55

C20 56 20 57 20 56

C20 56 20 55 20 54

Z

M24 43

C24 42 24 43 24 44

C23 44 23 45 23 46

C23 47 23 46 24 46

C24 45 24 44 24 43

Z

M28 38

C28 36 28 36 28 36

C28 36 27 36 27 38

C26 39 26 40 26 40

C26 40 27 39 28 38

Z

M40 24

C42 23 43 21 43 22

C41 22 33 28 30 32

C29 34 29 34 32 31

C34 28 38 25 40 24

Z

M110 28

C110 28 107 26 104 25

C100 22 99 22 96 23

C94 23 93 23 86 20

C83 18 79 17 79 17

C79 17 82 19 86 21

C93 24 94 24 97 24

C99 23 100 23 104 26

C110 29 110 29 110 28

Z

M48 21

C48 20 49 20 48 20

C47 20 46 20 46 21

C45 21 44 21 45 21

C46 21 47 21 48 21

Z

M58 18

C60 17 60 17 58 17

C57 17 55 17 54 18

C51 19 54 19 58 18

Z

M65 16

C64 16 63 16 62 16

C61 16 62 16 64 16

C65 16 66 16 65 16

Z

M77 16

C76 16 75 16 74 16

C74 16 74 16 76 16

C77 16 77 16 77 16

Z

M59 104

C46 99 38 90 38 80

C37 76 39 77 40 81

C42 85 48 91 54 94

C60 97 71 99 78 98

C88 97 100 90 104 83

C105 82 106 81 106 82

C107 82 107 83 106 83

C105 84 105 85 105 87

C104 94 96 101 87 104

C80 106 66 106 59 104

Z

M71 104

C70 104 67 104 66 104

C65 104 66 104 69 104

C71 104 72 104 71 104

Z

M85 104

C86 103 85 103 81 103

C78 104 75 104 75 104

C74 105 83 104 85 104

Z

M63 103

C63 103 62 103 61 103

C61 103 61 103 62 103

C63 103 64 103 63 103

Z

M55 100

C52 99 48 96 46 94

L42 91

L45 94

C48 97 57 103 59 102

C60 102 58 101 55 100

Z

M96 99

C100 96 104 90 103 89

C103 88 103 87 104 87

C104 87 105 86 104 86

C104 85 103 86 101 88

C99 91 99 91 100 90

C103 88 103 89 100 93

C99 95 96 98 94 99

C92 100 90 101 91 101

C92 101 94 100 96 99

Z

M76 100

C75 100 72 100 71 100

C70 100 71 100 74 100

C76 100 77 100 76 100

Z

M68 99

C67 99 66 99 65 99

C64 99 64 99 66 99

C68 99 68 99 68 99

Z

M88 97

C90 96 91 96 90 96

C89 96 86 97 84 98

C80 99 80 99 82 99

C83 99 86 99 88 97

Z

M61 98

C58 96 57 96 59 98

C59 98 61 98 62 98

C62 98 62 98 61 98

Z

M53 94

C47 91 43 87 40 83

C39 81 39 81 39 82

C39 83 40 87 40 86

C40 86 42 87 44 89

C48 92 54 96 56 96

C57 96 55 95 53 94

Z

M97 92

C97 92 97 92 95 93

C94 94 93 95 93 95

C93 96 96 94 97 92

Z

M42 89

C42 88 41 88 41 88

C41 88 41 89 41 89

C42 91 43 91 42 89

Z

M90 65

C88 62 88 59 91 57

C93 56 94 55 96 56

C99 58 100 64 96 66

C93 68 92 68 90 65

Z

M96 65

C98 64 98 59 97 58

C96 58 96 59 96 61

C97 64 96 64 94 65

C93 65 92 65 91 64

C91 64 91 63 91 64

C90 67 93 67 96 65

Z

M92 58

C93 58 92 57 92 58

C91 58 90 59 90 61

C90 62 90 63 90 61

C90 60 91 59 92 58

Z

M49 65

C46 62 46 59 48 57

C50 55 54 55 55 57

C59 64 53 69 49 65

Z

M54 65

C55 65 56 63 56 62

C56 58 54 56 51 57

L48 57

L51 57

C55 58 56 62 53 64

C51 66 51 66 54 65

Z

M48 59

C48 59 48 59 48 61

C48 62 48 62 48 62

C48 61 48 60 48 59

Z

M114 34

L111 30

L115 33

C118 37 119 38 118 38

C118 38 116 36 114 34

Z

"/>

<path fill="#060606" stroke="none" d="
M66 132

C69 132 74 132 76 132

C79 132 77 132 71 132

C66 132 63 132 66 132

Z

M56 131

C57 131 58 131 59 131

C59 131 59 131 58 131

C56 131 56 131 56 131

Z

M83 131

C84 131 85 131 85 131

C86 131 85 131 84 131

C83 131 83 131 83 131

Z

M97 127

C97 127 97 126 99 126

C100 125 101 125 101 125

C101 125 100 126 99 127

C97 127 97 127 97 127

Z

M40 126

C40 125 40 125 41 125

C43 126 43 127 42 127

C41 127 40 126 40 126

Z

M109 118

C112 115 114 113 114 113

C115 113 113 115 110 118

C107 120 105 123 105 123

C104 123 106 120 109 118

Z

M29 118

L27 115

L30 117

C32 120 33 121 32 121

C32 121 31 119 29 118

Z

M24 110

C24 110 24 109 24 109

C24 109 25 109 25 110

C26 112 25 112 24 110

Z

M66 105

C67 105 68 105 69 105

C69 105 69 105 67 105

C65 105 65 105 66 105

Z

M79 105

C80 105 81 105 82 105

C82 105 82 105 81 105

C79 105 79 105 79 105

Z

M52 101

C48 99 49 98 53 100

C57 102 57 103 56 102

C55 102 54 102 52 101

Z

M91 102

C91 102 91 101 92 101

C93 101 93 101 93 102

C92 102 91 103 91 102

Z

M121 101

C121 100 122 100 122 100

C123 100 122 101 122 102

C121 103 121 103 121 101

Z

M73 99

C74 99 75 99 75 99

C76 99 75 99 74 99

C73 99 73 99 73 99

Z

M99 97

C100 96 101 95 101 95

C102 95 101 96 100 97

C98 98 97 100 97 100

C96 100 97 98 99 97

Z

M20 97

C20 96 20 96 20 96

C20 97 20 98 20 98

C20 99 20 98 20 97

Z

M44 95

L41 91

L45 94

C48 98 49 99 48 99

C48 99 46 97 44 95

Z

M65 98

C66 98 67 98 67 98

C68 98 67 98 66 98

C65 98 65 98 65 98

Z

M80 98

C81 98 82 98 83 98

C83 98 83 98 82 98

C80 98 80 98 80 98

Z

M52 94

C52 93 52 93 53 93

C55 94 55 95 54 95

C53 95 52 94 52 94

Z

M19 92

C19 90 19 90 19 90

C19 91 19 92 19 93

C19 93 19 93 19 92

Z

M40 89

C40 89 40 88 40 88

C40 88 41 88 41 89

C42 91 41 91 40 89

Z

M44 87

L41 84

L44 87

C47 90 48 91 47 91

C47 91 46 89 44 87

Z

M18 79

C18 76 18 74 18 76

C18 78 18 81 18 82

C18 84 18 82 18 79

Z

M128 83

C128 82 128 82 128 82

C128 83 128 84 128 84

C128 85 128 84 128 83

Z

M38 81

C38 79 38 78 39 78

C39 78 39 84 38 84

C38 84 38 82 38 81

Z

M40 82

C40 82 40 81 40 81

C40 81 41 81 41 82

C42 84 41 84 40 82

Z

M129 70

C129 65 129 63 129 65

C129 68 129 72 129 74

C129 77 129 75 129 70

Z

M19 66

C19 64 19 64 19 65

C19 66 19 67 19 68

C19 68 19 68 19 66

Z

M97 65

C97 64 98 63 98 63

C99 63 98 64 97 65

C95 67 95 67 97 65

Z

M56 61

C56 59 56 59 56 60

C56 61 56 62 56 63

C56 63 56 63 56 61

Z

M47 61

C47 59 47 59 47 59

C47 60 47 61 47 62

C47 62 47 62 47 61

Z

M89 61

C89 60 89 60 89 60

C89 61 89 62 89 62

C89 63 89 62 89 61

Z

M20 60

C20 59 20 59 20 59

C20 60 20 61 20 61

C20 62 20 61 20 60

Z

M128 58

C128 57 128 57 128 57

C128 58 128 59 128 59

C128 60 128 59 128 58

Z

M90 57

C91 57 92 56 92 57

C92 57 92 58 91 58

C89 58 89 58 90 57

Z

M54 57

C53 56 52 56 53 56

C54 56 55 56 55 57

C56 58 55 58 54 57

Z

M124 47

C123 44 123 44 124 46

C125 47 126 48 126 49

C126 50 125 50 124 47

Z

M28 38

C28 36 29 36 29 36

C29 36 29 36 29 38

C28 39 27 40 27 40

C27 40 27 39 28 38

Z

M114 33

L110 29

L114 33

C118 37 119 38 118 38

C118 38 116 36 114 33

Z

M30 34

C30 34 30 33 31 32

C33 31 33 31 32 33

C30 34 30 35 30 34

Z

M107 28

C105 26 105 26 107 27

C108 28 110 29 110 29

C110 30 109 30 107 28

Z

M37 27

C37 27 37 26 38 25

C40 24 40 24 39 26

C37 27 37 28 37 27

Z

M93 25

C94 25 95 25 95 25

C96 25 95 25 94 25

C93 25 93 25 93 25

Z

M101 25

C100 24 99 24 100 24

C101 24 102 24 102 25

C103 26 102 26 101 25

Z

M86 22

C83 20 83 19 87 21

C88 22 90 23 90 23

C90 24 89 24 86 22

Z

M53 19

C54 19 55 19 55 19

C56 19 55 19 54 19

C53 19 53 19 53 19

Z

M57 18

C58 18 59 18 59 18

C60 18 59 18 58 18

C57 18 57 18 57 18

Z

M63 17

C64 17 65 17 66 17

C66 17 66 17 64 17

C62 17 62 17 63 17

Z

M74 17

C75 17 76 17 76 17

C77 17 76 17 75 17

C74 17 74 17 74 17

Z

"/>

</svg>

