<svg version="1" xmlns="http://www.w3.org/2000/svg" width="50" height="50" viewBox="0 0 150.000000 150.000000"><path fill="#fefefe" d="M0 75V0h150v150H0V75z"/><path fill="#f4f4f4" d="M59 141c-17-3-26-7-34-15-11-12-15-27-14-49 1-24 8-44 19-55 8-8 11-9 39-12 3 0 6-1 6-2s2-2 4-2c3-2 4-1 17 5 12 6 14 8 22 16 14 14 20 27 20 47 0 19-6 33-18 46-13 12-31 20-50 21H59zm16-11h-4 4zm-16-1h-2 2zm51-13c1-2 1-2-1-1-1 1-1 2-1 2 0 1 0 0 2-1zm-79-1l-2-2c-2-1-2-1-1 1 2 1 3 2 3 1zm36-8h-2 2zm16 0h-2 2zm-37-9l-2-2c-2-1-2-1-1 1 2 1 3 2 3 1zm22-2h-2 2zm14 0h-2 2zm-61-7zm79-3l3-3-3 3c-3 3-4 4-3 4 0 0 1-2 3-4zm26-5zm1-14zM21 66zm32 2h-2 2zm-31-8zm23-1zm42 1zm39-2zM23 55zm77 2l-2-2c-2-1-2-1-1 1 2 1 3 2 3 1zM36 30l3-3-3 3c-3 3-4 4-3 4 0 0 1-2 3-4zm59-3h-2 2zm-28-8h-2 2z"/><path fill="#cfcfcf" d="M48 139c-24-7-35-24-37-52-2-34 13-68 32-73 2-1 9-2 15-3 15-1 18-1 17-2 0-1 2-3 6-4 2 0 22 9 28 14 11 8 17 15 23 26 8 17 8 41-1 58-8 17-25 30-46 35-10 3-28 3-37 1zm38-10c10-2 16-6 24-14 11-11 17-27 17-45 1-19-7-33-22-42-5-3-6-3-8-2-3 0-4 0-10-3-10-5-14-6-23-4-20 2-30 9-36 23-6 12-8 21-8 38 0 30 10 44 35 49 8 2 24 2 31 0zm-27-24c-7-3-11-5-16-11-5-4-7-10-6-14 0-4 2-4 4 1 4 7 11 12 23 15 14 3 28 0 37-10 5-6 7-6 5 0-1 8-10 16-19 19-7 2-21 2-28 0zm31-39c-3-4-3-7 1-10 2-2 3-2 5 0 4 2 5 7 1 10s-5 3-7 0zm-42-1c-4-4-2-10 4-10 5 0 7 7 4 11-3 2-5 2-8-1z"/><path fill="#afafaf" d="M49 139c-24-7-36-23-38-52s11-63 28-71c5-3 22-5 32-5 4 0 5-1 5-2-1-2 2-3 5-3 4-1 25 10 32 16 16 13 25 31 25 51 0 34-22 59-56 66-10 2-24 2-33 0zm39-10c9-2 15-6 22-14 12-12 18-27 18-44 0-20-8-34-23-43-5-3-6-4-8-3-3 1-4 1-12-3-7-4-8-4-16-4-10 0-22 4-30 8-15 10-23 44-18 70 2 9 4 15 8 20 12 13 38 18 59 13zm-26-24c-15-4-24-13-25-24 0-5 2-6 3-1 2 5 10 12 18 15 5 2 8 2 16 2 9 0 11 0 16-3 3-1 8-5 10-7 3-3 6-5 6-5 2 0 0 6-3 10-3 6-9 11-17 13-6 2-18 2-24 0zm28-39c-1 0-1-3-1-5 0-4 1-5 5-5 5 0 7 5 4 9-2 3-6 3-8 1zm-43-1c-2-4 0-10 4-10 5 0 8 5 6 9-2 3-8 3-10 1z"/><path fill="#8f8f8f" d="M51 139c-27-6-40-25-40-57 0-31 12-59 28-66 6-3 14-4 28-5 8-1 9-1 9-2s1-2 4-3 4 0 14 5c18 9 30 20 36 32 5 10 7 19 7 32 0 10-1 13-3 20-6 20-24 36-47 43-9 2-27 3-36 1zm33-9c23-4 42-27 44-55 2-20-7-38-23-47-4-3-6-3-9-3-2 1-5 0-10-3-12-6-23-6-39 0-8 3-14 9-19 17-6 11-8 20-8 36-1 28 5 43 23 50 12 6 26 8 41 5zm-22-25c-13-3-22-12-24-22-2-7 0-8 3-1 4 6 10 11 20 14 15 4 31 0 40-10 5-5 6-5 5-2 0 7-8 16-16 20-8 2-20 3-28 1zm28-39c-2-4-2-8 0-9 5-3 10 0 10 4 0 5-8 9-10 5zm-42-1c-1-1-1-3-1-5 0-3 0-4 2-5 3-1 5 0 7 4 1 2 1 3 0 5-2 3-6 3-8 1z"/><path fill="#6f6f6f" d="M54 139c-13-2-26-9-32-17-8-12-11-24-10-45 0-18 3-29 9-41 10-19 17-23 46-25 7-1 9-1 9-2-1-1 3-3 6-3 2-1 24 11 30 16 25 20 32 53 18 83-4 8-16 20-25 25-16 9-34 12-51 9zm31-9c16-3 28-13 36-30 10-21 10-42-1-59-4-6-7-8-14-13-5-3-7-3-10-3-2 1-5 0-10-3-9-5-18-6-29-3-16 4-24 10-30 23-10 20-11 51-2 68 3 6 9 11 17 15 13 6 29 8 43 5zm-20-24c-12-3-20-8-25-16-2-5-4-12-2-12 1 0 2 1 3 3 2 5 6 9 15 13 6 3 7 3 18 3 10 0 11 0 17-3 3-1 7-5 10-8 3-2 5-4 5-4 1 0 0 3-1 5-1 7-9 14-16 17-7 2-18 3-24 2zm25-40c-1-1-1-3-1-5 0-6 7-7 9-2 2 2 2 3 0 5-3 4-6 4-8 2zm-42-1c-2-3-2-7 0-9s3-2 6 0 3 7 1 9c-1 2-5 2-7 0z"/><path fill="#444" d="M59 140c-22-4-35-12-41-27-11-23-7-65 10-87 4-6 10-10 18-12 5-1 25-4 30-4 1 0 2 0 1-1s-1-2 2-2c3-2 4-1 17 5 11 6 14 8 22 15 13 14 19 28 19 47s-6 33-18 45c-6 6-9 8-18 12-5 3-13 6-16 7-7 1-22 3-26 2zm29-10c22-6 39-29 40-56 1-13-1-22-6-30s-9-12-16-16c-6-4-7-4-9-3-3 1-4 0-11-3-8-4-10-4-16-4-14 0-29 5-36 13-11 12-17 36-15 58 3 21 10 32 26 38 12 5 31 6 43 3zm-22-25c-15-2-28-13-28-24-1-4 1-4 2 0 4 11 25 19 41 16 8-1 14-4 20-10 2-3 5-5 5-5 1 0-1 6-3 10-5 10-20 16-37 13zm24-40c-2-3-2-6 1-8 4-3 8-1 8 4 0 6-6 9-9 4zm-41 0c-2-1-2-3-2-4 0-3 2-6 5-6 2 0 5 4 5 6 0 5-4 7-8 4z"/><path fill="#3c3c3c" d="M53 138c-1-2-2-2-2-1-1 1-1 1-3 0-1-1-2-2-2 0 0 1 0 0-1-1s-2-1-2 0 0 1-1-1c-1-1-1-1-2-1 0 1 0 0 0 0 0-1-1-1-1-1h-1c0-1-1-1-1-1h-1c0-1-1-1-1-1-1 0-2-1-3-2l-1-1v2c-1 0-2-2-2-3-1-1-3-3-5-4-2-2-2-2-1-3 1 0 0-1-1-1-2-1-2-1-1-2 1 0 1 0 0 0s-1-1-1-1c0-1 0-2-1-2-2 0-2 0 0 0 1-1 1-1-1-1-2-1-2-1 0-1 0-1 1-1 0-1s-1-1-1-2v-1c-1 0-1-1-1-2s0-2-1-2c-2-1-2-1-1-1 2-1 2-2 0-3l-1-2c2 0 2-3 0-5-1-1-1-2-1-3 1-3 2-13 1-15s-1-3 0-5c2-3 2-5 0-6 0 0 0-1 1-2s2-2 1-2c-1-1-1-2 0-3s1-2 0-2c-1-1 0-2 1-2s1-1 1-2 0-1 1-1v-2c0-1 0-1 1-1v-3c1 0 1-1 1-2v-1c1 0 1-1 1-1v-1c1 0 1-1 1-1 0-1 0-2 1-2s1 0 0-1c-2 0-2 0 0 0 1 0 1-1 1-1 0-1 0-1 1-1v-2s0-1 1-1 1-1 1-1c0-1 1-2 2-3l2-2c0-1 0-2 1-3 2-1 2-1 1 1-2 2-2 2 0 0 1-1 3-2 3-3s0-1 1-1v1l1-1 2-1c1 0 2 0 2-1 0-2 0-2 1 0 0 1 1 1 1 0 1-1 2-2 3-1 1 0 3 0 4-1 1-2 2-2 2-1 1 2 4 2 5 0 0-1 3-1 7 0h4c0-1 2-2 4-2 3 0 5-1 5-2s0-1 1-1 2 0 2-1c1-2 2-2 3 0 0 2 0 2 1 1 0-2 0-2 0 0 0 1 1 1 2 1 0 0 1 0 1 1h2c0 1 0 1 1 1 0 0 1 0 1 1h1s1 0 1 1 0 1 1 0c0-2 0-2 1 0 0 2 0 2 1 1 0-2 0-2 1 0 0 2 0 2 1 1 0-2 0-2 1 0 0 2 0 2 1 1 0-2 0-2 1 0 0 2 0 2 1 1 0-2 0-2 0 0 0 1 1 1 1 1 1 0 2 0 2 1 1 2 2 2 3 2s1 0 2 1c0 2 1 2 2 2 0 0 2 1 3 2 1 2 3 4 4 5 1 0 2 1 2 2s0 2 2 3c1 0 1 1 1 1 0 1 0 2 1 2s1 1 1 1c0 1 0 2 1 2v1s0 1 1 1h1c-2 1-2 1-1 1s1 1 1 2v1c1-1 1 0 1 1-1 1 0 2 1 2 2 0 2 0 1 1-2 0-2 1-1 1 1 1 1 2 1 2 0 1 0 2 1 2 2 0 2 1 1 1-2 1-2 2 0 3 1 1 1 2 1 2-2 1-2 5 0 6 0 0 1 2 1 5 0 2-1 4-1 4-2 1-2 5 0 6 0 0 0 1-1 2s-2 2-1 2c1 1 1 1 0 2s-1 2-1 3c0 0 0 1-1 2-1 0-1 1 1 1 1 1 1 1-1 1-1 0-2 1-1 2 0 1 0 2-1 2s0 0 1 1c1 0 1 0-1 1-2 0-2 0 0 1 1 0 1 0-1 1-2 0-2 0 0 1h-1c-1 0-1 1-1 1 0 1 0 2-1 2-2 1-2 1 0 2h-1s-2 1-3 3c-1 1-1 2-1 1 2-1 2 1-1 3-2 2-4 3-4 3-1 0-2 1-3 2-1 2-2 2-2 2-1 0-2 0-2 1s-1 1-1 1c-1 0-2 0-2 1v1c-1-1-1-1-2 0 0 1-1 1-1 1-1 0-1 0-1 1h-1c-1 0-2 0-2 1h-2s-1 0-1 1v1c-1-1-1-1-2 0-1 2-1 2-2 0 0-1 0-1 0 0s-1 1-2 1-2 0-2 1c-1 2-1 2-2 0 0-1-1-1-2 1 0 1-1 1-2 0-1 0-2 0-3 1s-2 1-2 1c-1-2-5-2-5 0 0 0-3 1-6 1s-6-1-6-1c-1-2-4-2-5 0 0 0-1 0-2-1zm24-5h-6 6zm-18-1s-2-1-4-1h-2c2 1 7 2 6 1zm27 0h-3 3zm8-2c2-2 2-2 0-1-6 2-6 1-1-1 12-5 22-15 29-28 5-11 7-20 6-32 0-12-2-19-7-26-3-4-3-5-1-4s0 0-5-5c-2-3-4-4-4-4 1 2 0 2-6-2-5-3-6-3-8-2-3 0-4 0-12-4-8-3-10-4-16-4-7 0-14 2-24 5-8 3-14 10-18 20-6 12-8 21-8 38 0 27 7 39 26 47 3 1 5 2 5 2-3 1-14-5-18-9-3-2-6-6-8-9-1-3-2-5-2-4-1 2 5 10 9 14 6 5 16 10 20 9h6c6 2 35 1 37 0zm17-12c3-3 7-8 8-10s1-2 0 0c-4 5-14 15-18 17-6 3-6 4-1 1 3-1 7-5 11-8zm-90-16l-1-1c-1 2 1 5 1 4v-3zm103-2c1-2 1-4 1-4l-2 4c-3 6-2 6 1 0zM19 96zm-1-5zm109 0c0-1 0-1 0 0-2 3-2 4 0 3v-3zM17 75zm112 7zm1-17zM18 64zm1-6zm109-4c-1-5-5-13-6-14-1 0 0 3 2 6 2 4 4 8 4 10 1 2 1 3 1 3 0-1 0-3-1-5zM20 54zm4-11v1c-1 0-1 1-1 2s0 0 1 0v-3zm4-5v-2s-1 0-1 2c-1 1-1 2-1 2l2-2zm12-14c2-1 3-3 3-2-2 0-10 6-13 10-1 2-1 2 2-1 2-3 6-6 8-7zm70 4s-3-2-6-3c-4-3-5-3-8-2-2 0-3 0-10-3-3-2-7-3-7-3s3 2 7 4c7 3 8 3 11 3 2-1 3-1 7 2 6 3 6 3 6 2zm-62-7c0-1 1-1 0-1s-2 0-2 1h-1 3zm10-3c2-1 2-1 0-1-1 0-3 0-4 1-3 1 0 1 4 0zm7-2h-1 1zm12 0h-3 3zm-18 88c-13-5-21-14-21-24-1-4 1-3 2 1 2 4 8 10 14 13s17 5 24 4c10-1 22-8 26-15 1-1 2-2 2-1 1 0 1 1 0 1-1 1-1 2-1 4-1 7-9 14-18 17-7 2-21 2-28 0zm12 0h-2 2zm14 0c1-1 0-1-4-1-3 1-6 1-6 1-1 1 8 0 10 0zm-22-1h-2 2zm-8-3c-3-1-7-4-9-6l-4-3 3 3c3 3 12 9 14 8 1 0-1-1-4-2zm41-1c4-3 8-9 7-10 0-1 0-2 1-2 0 0 1-1 0-1 0-1-1 0-3 2-2 3-2 3-1 2 3-2 3-1 0 3-1 2-4 5-6 6s-4 2-3 2 3-1 5-2zm-20 1h-2 2zm-8-1h-2 2zm20-2c2-1 3-1 2-1s-4 1-6 2c-4 1-4 1-2 1 1 0 4 0 6-2zm-27 1c-3-2-4-2-2 0h2zm-8-4c-6-3-10-7-13-11-1-2-1-2-1-1s1 5 1 4c0 0 2 1 4 3 4 3 10 7 12 7 1 0-1-1-3-2zm44-2l-2 1-2 2c0 1 3-1 4-3zm-55-3c0-1-1-1-1-1v1c1 2 2 2 1 0zm48-24c-2-3-2-6 1-8 2-1 3-2 5-1 3 2 4 8 0 10-3 2-4 2-6-1zm6 0c2-1 2-6 1-7-1 0-1 1-1 3 1 3 0 3-2 4-1 0-2 0-3-1 0 0 0-1 0 0-1 3 2 3 5 1zm-4-7c1 0 0-1 0 0-1 0-2 1-2 3 0 1 0 2 0 0 0-1 1-2 2-3zm-43 7c-3-3-3-6-1-8s6-2 7 0c4 7-2 12-6 8zm5 0c1 0 2-2 2-3 0-4-2-6-5-5h-3 3c4 1 5 5 2 7-2 2-2 2 1 1zm-6-6zm66-25l-3-4 4 3c3 4 4 5 3 5l-4-4z"/><path fill="#060606" d="M66 132h5-5zm-10-1h2-2zm27 0h1-1zm14-4s0-1 2-1c1-1 2-1 2-1l-2 2h-2zm-57-1c0-1 0-1 1-1 2 1 2 2 1 2s-2-1-2-1zm69-8l5-5c1 0-1 2-4 5-3 2-5 5-5 5-1 0 1-3 4-5zm-80 0l-2-3 3 2c2 3 3 4 2 4 0 0-1-2-3-3zm-5-8v-1s1 0 1 1c1 2 0 2-1 0zm42-5h1-1zm13 0h2-2zm-27-4c-4-2-3-3 1-1s4 3 3 2c-1 0-2 0-4-1zm39 1s0-1 1-1 1 0 1 1c-1 0-2 1-2 0zm30-1c0-1 1-1 1-1 1 0 0 1 0 2-1 1-1 1-1-1zm-48-2h1-1zm26-2l2-2c1 0 0 1-1 2-2 1-3 3-3 3-1 0 0-2 2-3zm-79 0v-1 1zm24-2l-3-4 4 3c3 4 4 5 3 5l-4-4zm21 3h1-1zm15 0h2-2zm-28-4c0-1 0-1 1-1 2 1 2 2 1 2s-2-1-2-1zm-33-2v-2 2zm21-3v-1s1 0 1 1c1 2 0 2-1 0zm4-2l-3-3 3 3c3 3 4 4 3 4 0 0-1-2-3-4zm-26-8v-3 3zm110 4v-1 1zm-90-2c0-2 0-3 1-3 0 0 0 6-1 6v-3zm2 1v-1s1 0 1 1c1 2 0 2-1 0zm89-12v-5 5zM19 66v-1 1zm78-1c0-1 1-2 1-2 1 0 0 1-1 2-2 2-2 2 0 0zm-41-4v-1 1zm-9 0v-2 2zm42 0v-1 1zm-69-1v-1 1zm108-2v-1 1zm-38-1c1 0 2-1 2 0 0 0 0 1-1 1-2 0-2 0-1-1zm-36 0c-1-1-2-1-1-1s2 0 2 1c1 1 0 1-1 0zm70-10c-1-3-1-3 0-1 1 1 2 2 2 3s-1 1-2-2zm-96-9c0-2 1-2 1-2v2l-2 2s0-1 1-2zm86-5l-4-4 4 4c4 4 5 5 4 5 0 0-2-2-4-5zm-84 1s0-1 1-2c2-1 2-1 1 1-2 1-2 2-2 1zm77-6c-2-2-2-2 0-1 1 1 3 2 3 2 0 1-1 1-3-1zm-70-1s0-1 1-2c2-1 2-1 1 1-2 1-2 2-2 1zm56-2h1-1zm8 0c-1-1-2-1-1-1s2 0 2 1c1 1 0 1-1 0zm-15-3c-3-2-3-3 1-1 1 1 3 2 3 2 0 1-1 1-4-1zm-33-3h1-1zm4-1h1-1zm6-1h1-1zm11 0h1-1z"/></svg>