<svg width="50" height="50" viewBox="0 0 354 366" xmlns="http://www.w3.org/2000/svg"><defs><linearGradient x1="89.953%" y1="97.002%" x2=".072%" y2="-1.145%" id="a"><stop stop-color="#ACACAC" offset="0%"/><stop stop-color="#E9E9E9" offset="100%"/></linearGradient><radialGradient cx="51.742%" cy="97.266%" fx="51.742%" fy="97.266%" r="49.256%" gradientTransform="matrix(1 0 0 .17197 0 .805)" id="b"><stop stop-color="#25303B" offset="0%"/><stop stop-color="#25303B" stop-opacity="0" offset="100%"/></radialGradient><linearGradient x1="50.703%" y1="96.514%" x2="3.213%" y2=".211%" id="c"><stop stop-color="#24303A" offset="0%"/><stop stop-color="#394958" offset="100%"/></linearGradient><linearGradient x1="49.045%" y1="96.507%" x2="96.292%" y2="0%" id="d"><stop stop-color="#24303A" offset="0%"/><stop stop-color="#394958" offset="100%"/></linearGradient><linearGradient x1="84.591%" y1="35.578%" x2="10.552%" y2="55.882%" id="e"><stop stop-color="#E5E5E5" offset="0%"/><stop stop-color="#FFF" offset="100%"/></linearGradient><linearGradient x1="42.1%" y1="0%" x2="42.1%" y2="100%" id="f"><stop stop-color="#FFF" offset="0%"/><stop stop-color="#FFF" stop-opacity=".532" offset="50%"/><stop stop-color="#FFF" stop-opacity="0" offset="100%"/></linearGradient><linearGradient x1="50%" y1="100%" x2="50%" y2="0%" id="g"><stop stop-color="#FFF" offset="0%"/><stop stop-color="#FFF" stop-opacity="0" offset="100%"/></linearGradient></defs><g fill="none" fill-rule="evenodd"><path fill-opacity=".569" fill="#000" d="M313.854 365.107l-62.557-88.652H102.593l-62.251 88.64z"/><path fill="#7F8082" d="M287.153 289.75l-23.106 48.268-15.91-60.104zm-212.746 0l15.73 48.268 15.91-60.104z"/><path stroke="#D6D6D6" fill="url(#a)" stroke-linejoin="round" d="M.985 129.194l-.012.018 32.791 207.806h56.373l-4.605-48.267h28.923l3.684 48.267h118.09l3.683-48.267h28.74l-4.605 48.267h56.74l32.424-207.806-.011-.018H.985z" transform="translate(0 1)"/><path fill="url(#b)" d="M81.558 256.94l16.956-63.529-1.192-128.31-31.799 64.093z" transform="translate(0 1)"/><path fill="#293441" d="M203.328 53.532h70.27l-1.443 155.314H197.91zm-50.828.097l-68.445.042 1.622 154.621h69.684z"/><path fill="#2D3948" d="M91.139 194.411l-9.58 63.53h191.625l-11.39-63.077z"/><path fill="url(#c)" d="M273.184 256.94l-16.64-63.077.625-129.169 32.195 64.496z" transform="translate(0 1)"/><path fill="url(#d)" d="M81.705 256.94l16.81-63.529-1.193-128.31-31.797 64.09z" transform="translate(0 1)"/><path fill="#2D3B48" d="M145.316 89.428l6.327 134.88h49.285l7.939-134.88z"/><path stroke="#D6D6D6" fill="url(#e)" stroke-linejoin="round" d="M353.2 129.194L272.65.35H81.15L.986 129.194h64.54L97.151 65.35h52l-3.835 23.078h63.551l-3.359-23.777h51.796l32.06 64.543z" transform="translate(0 1)"/><path fill="#363F49" opacity=".449" d="M205.508 65.651l52.235.043 31.62 64.5-16.179 127.746H151.643l62.822-127.746z"/><path fill="url(#f)" opacity=".3" d="M214.465 129.194L151.643 256.94H81.558L65.523 129.193z" transform="translate(0 1)"/><path fill="url(#g)" opacity=".2" d="M97.15 65.35h52l-3.834 23.078h63.551l5.598 40.766H65.523z" transform="translate(0 1)"/><g fill-rule="nonzero"><g transform="translate(220.349 152.106)"><ellipse fill="#05F0FF" opacity=".8" cx="9.006" cy="32.202" rx="8.946" ry="31.717"/><ellipse stroke="#06EFFE" stroke-width="1.002" fill="#FFF" opacity=".9" stroke-linecap="round" cx="9.006" cy="32.67" rx="6.953" ry="28.081"/><ellipse stroke="#06EFFE" stroke-width="1.004" fill="#FEFFFF" opacity=".9" stroke-linecap="round" cx="9.006" cy="32.749" rx="6.953" ry="25.968"/></g><g transform="translate(119.156 156.582)"><ellipse fill="#05F0FF" opacity=".8" cx="9.006" cy="32.202" rx="8.946" ry="31.717"/><ellipse stroke="#06EFFE" stroke-width="1.002" fill="#FFF" opacity=".9" stroke-linecap="round" cx="9.006" cy="32.67" rx="6.953" ry="28.081"/><ellipse stroke="#06EFFE" stroke-width="1.004" fill="#FEFFFF" opacity=".9" stroke-linecap="round" cx="9.006" cy="32.749" rx="6.953" ry="25.968"/></g></g><path stroke="#D6D6D6" stroke-linejoin="round" d="M97.15 66.35h52l-3.834 23.078h63.551l-3.359-23.777 52.235.043 31.62 64.5-16.179 127.746H81.558L65.523 130.194z"/><path d="M288.836 130.194H65.367" stroke="#FFF" fill="#FFF" opacity=".343"/></g></svg>