<svg width="50" height="50" viewBox="0 0 256 291" xmlns="http://www.w3.org/2000/svg"><g fill="none"><path fill="#264DE4" d="M127.844 290.088L23.662 261.166.445.766h255.11l-23.241 260.36z"/><path fill="#2965F1" d="M212.417 244.547l19.86-222.49H128V267.95z"/><path fill="#EBEBEB" d="M53.669 118.636l2.862 31.937H128v-31.937zm-5.752-64.641l2.903 31.937H128V53.995zM128 201.58l-.14.037-35.568-9.604-2.274-25.471h-32.06l4.474 50.146 65.421 18.16.147-.04z"/><path fill="#FFF" d="M202.127 118.636l5.765-64.641H127.89v31.937h45.002l-2.906 32.704H127.89v31.937h39.327l-3.708 41.42-35.62 9.614v33.226l65.473-18.145.48-5.396 7.506-84.08z"/></g></svg>