<svg version="1" xmlns="http://www.w3.org/2000/svg" width="50" height="50" viewBox="0 0 68.000000 68.000000"><path fill="#fefefe" d="M0 34V0h68v68H0V34z"/><path fill="#dbe8f1" d="M10 57L0 46V22l11-11L22 0h11c7 0 11 0 11 1L27 18 11 34l11 10c6 6 11 10 11 10 1 0 6-4 11-10l11-10-5-6-6-6 6-5c3-3 5-5 6-5 0-1 3 2 6 4l5 5v12l1 12-12 11-11 12H21L10 57z"/><path fill="#96d3f8" d="M11 56L0 45V22l9-10C15 7 20 2 22 1c3-1 20-1 21-1 0 1-7 8-16 17L11 34l11 11 12 11 11-11 11-11-5-6c-3-3-5-6-5-6 0-1 9-11 10-11l6 6 6 5v23L56 56 45 68H22L11 56z"/><path fill="#94c6e5" d="M11 56L0 45V22c1 0 1 5 1 10L0 43l21-21L42 1l-9-1H23h20c0 1-7 8-16 17L11 34l11 11 12 11 11-11 11-11-5-6c-3-3-5-6-5-6 0-1 9-11 10-11l6 6 6 5-1 12v11-10l-1-10-21 20-21 21 10 1h11-11l-12 1-11-12zm44 0c10-10 12-11 12-10L56 57 45 67l10-11zM11 11c5-5 9-10 9-10 1 0-3 5-8 10C6 16 2 21 2 21c-1 0 3-5 9-10z"/><path fill="#86bbdd" d="M11 56C0 44 0 45 7 37l4-4 11 12 12 11-5 5c-3 3-6 6-7 6 0 0-6-5-11-11zm56-22V24l-6 5-5 5-5-6c-3-2-5-5-5-6s9-10 10-10 3 2 6 5l6 5-1 11v10-9zM30 0h4-4z"/><path fill="#73a8c9" d="M11 56C0 45 0 45 6 38l4-4 5 4c3 3 8 7 12 11l7 7-6 5-6 6c-1 0-6-5-11-11zm40-28c-3-3-5-6-5-6 0-1 9-10 10-10s3 2 6 5l5 5-5 6-6 6-5-6z"/><path fill="#5599c2" d="M11 56C5 51 1 46 1 45s2-4 5-6l4-5 12 11 12 11-5 5c-3 2-6 5-7 5s-6-4-11-10zm39-28l-5-6 6-5 5-6 5 5c3 3 6 5 6 6s-3 3-6 6l-5 6-6-6z"/><path fill="#448fbd" d="M11 56C0 45 0 44 7 38l4-4 11 11 11 11-4 5c-3 2-6 5-6 5-1 0-6-5-12-10zm40-29l-6-5 6-5 5-6 5 6 6 5-5 5c-3 3-5 6-5 6-1 0-3-3-6-6z"/><path fill="#3389bc" d="M11 56c-5-6-9-10-9-11s2-3 4-6l5-4 11 10 11 11-5 5c-3 2-6 5-6 5-1 0-5-5-11-10zm40-29l-6-5 5-5 6-4c1 0 3 2 6 4l4 5-5 5-5 6-5-6z"/></svg>