<svg preserveAspectRatio="xMidYMid" width="50" height="50" viewBox="0 0 47 35" xmlns="http://www.w3.org/2000/svg"><defs><radialGradient fx="50%" fy="50%" gradientTransform="matrix(.43493 0 0 1 .283 0)" id="a"><stop offset="0%"/><stop stop-opacity="0" offset="100%"/></radialGradient><radialGradient cx="35.246%" cy="49.369%" fx="35.246%" fy="49.369%" r="57.242%" gradientTransform="matrix(.81793 0 0 1 .064 0)" id="b"><stop stop-color="#857C63" offset="0%"/><stop stop-color="#221F19" offset="100%"/></radialGradient><linearGradient x1="88.868%" y1="26.026%" x2="11.4%" y2="71.948%" id="c"><stop offset="0%"/><stop stop-opacity="0" offset="100%"/></linearGradient><linearGradient x1="28.289%" y1="31.21%" x2="107.678%" y2="150.928%" id="d"><stop stop-color="#FFF" offset="0%"/><stop stop-color="#FFF" stop-opacity="0" offset="100%"/></linearGradient><radialGradient cy="14.824%" fx="50%" fy="14.824%" r="55.238%" gradientTransform="scale(1 .99975)" id="e"><stop stop-color="#FFF" offset="0%"/><stop stop-color="#B9B9B0" offset="100%"/></radialGradient><radialGradient cx="49.139%" cy="28.077%" fx="49.139%" fy="28.077%" r="55.772%" gradientTransform="matrix(1 0 0 .71015 0 .081)" id="f"><stop stop-color="#5B676B" offset="0%"/><stop stop-color="#141718" offset="100%"/></radialGradient><linearGradient x1="52.969%" y1="11.913%" x2="48.108%" y2="92.975%" id="g"><stop stop-color="#FFF" offset="0%"/><stop stop-color="#FFF" stop-opacity="0" offset="100%"/></linearGradient><radialGradient cy="14.824%" fx="50%" fy="14.824%" r="55.238%" gradientTransform="scale(1 .99975)" id="h"><stop stop-color="#FFF" offset="0%"/><stop stop-color="#B9B9B0" offset="100%"/></radialGradient><linearGradient x1="51.288%" y1="74.272%" x2="8.395%" y2="39.254%" id="i"><stop stop-color="#6E3D09" offset="0%"/><stop stop-color="#EA8113" offset="24.242%"/><stop stop-color="#5C3307" offset="62.121%"/><stop stop-color="#E07C12" offset="100%"/></linearGradient><linearGradient x1="28.389%" y1="47.497%" x2="59.066%" y2="75.054%" id="j"><stop stop-color="#BDBDBD" offset="0%"/><stop stop-color="#E2E2E2" offset="33.333%"/><stop stop-color="#A3A3A3" offset="66.667%"/><stop stop-color="#DDD" offset="100%"/></linearGradient><radialGradient cx="71.13%" cy="22.383%" fx="71.13%" fy="22.383%" r="37.918%" gradientTransform="matrix(.64553 0 0 1 .252 0)" id="k"><stop stop-color="#696969" offset="0%"/><stop offset="100%"/></radialGradient><linearGradient x1="108.164%" y1="52.088%" x2="24.945%" y2="123.853%" id="l"><stop stop-color="#FFF" offset="0%"/><stop stop-color="#FFF" stop-opacity="0" offset="100%"/></linearGradient><linearGradient x1="57.895%" y1="60.851%" x2="24.291%" y2="75.002%" id="m"><stop offset="0%"/><stop stop-opacity="0" offset="100%"/></linearGradient></defs><g fill="none" fill-rule="evenodd"><path d="M42.375 23.937c0 2.836-3.478 5.457-9.125 6.875-5.647 1.417-12.603 1.417-18.25 0-5.647-1.418-9.125-4.039-9.125-6.875 0-2.835 3.478-5.456 9.125-6.874 5.647-1.417 12.603-1.417 18.25 0 5.647 1.418 9.125 4.039 9.125 6.874z" fill="url(#a)" transform="translate(-1)"/><path d="M11.374 4.468s2.875 5.928 9.6 5.76c14.092-.353 16.563-7.705 16.917-8.765.353-1.061.894-.9 1.02.08 4.596 41.72-31.897 23.82-33.193 16.713 7.247-2.12 5.48-6.187 5.48-6.187l.176-7.601z" stroke="#2E3436" fill="url(#b)" transform="translate(-1)"/><path d="M16.738 22.066c6.739 1.348 10.17.098 12.179-1.453-.53-.685-1.436-1.436-1.436-1.436s2.353.654 3.182 1.724c.826 1.066.306 1.723.09 3.088-.481-1.199-1.38-1.648-1.501-2.124-1.807 2.497-6.307 2.393-12.514.201z" fill="url(#c)" transform="translate(-1)"/><path d="M37.969 3.844a12.252 12.252 0 0 1-2.688 3.094C32.65 9.117 28.231 11.1 21 11.28c-4.224.105-6.953-1.934-8.625-3.75L12.25 12c.136.419.415 1.39-.063 2.719-.514 1.429-2.154 2.891-4.968 4 .25.522.495 1.043 1.25 1.781 1.028 1.005 2.457 2.088 4.156 3.063 3.398 1.948 7.802 3.493 11.906 3.562 4.105.07 7.857-1.235 10.438-5 2.378-3.471 3.682-9.348 3-18.281z" stroke="url(#d)" opacity=".185" transform="translate(-1)"/><path d="M18.71 13.395a4.066 4.066 0 1 1-8.131.002 4.066 4.066 0 0 1 8.132-.002z" stroke="#888A85" fill="url(#e)" transform="translate(-1)"/><path d="M11.43 17.461c0 3.368-1.94 6.099-4.331 6.099-2.392 0-4.331-2.73-4.331-6.099 0-3.368 1.939-6.099 4.33-6.099 2.393 0 4.332 2.73 4.332 6.099z" stroke="#000" fill="url(#f)" transform="rotate(-35.808 6.599 19.009)"/><path d="M16.553 13.997a1.958 1.958 0 1 1-3.915.002 1.958 1.958 0 0 1 3.915-.002z" stroke="#000" fill="#2E3436"/><path d="M6.917 12.388c-.798 0-1.553.447-2.188 1.344-.634.898-1.093 2.234-1.093 3.719 0 1.485.46 2.821 1.093 3.719.635.897 1.39 1.343 2.188 1.343.798 0 1.577-.476 2.219-1.375.641-.898 1.093-2.206 1.093-3.687 0-1.481-.452-2.789-1.093-3.688-.642-.898-1.42-1.375-2.219-1.375z" stroke="url(#g)" opacity=".281" transform="rotate(-36.833 6.433 18.953)"/><path d="M5.834 15.251c0 .758-.337 1.459-.884 1.838a1.517 1.517 0 0 1-1.768 0c-.547-.38-.884-1.08-.884-1.838s.337-1.458.884-1.837a1.517 1.517 0 0 1 1.768 0c.547.379.884 1.08.884 1.837zm9.364-2.157a1.355 1.355 0 1 1-2.71 0 1.355 1.355 0 0 1 2.71 0z" fill="#FFF"/><path d="M27.815 13.837a4.773 4.773 0 1 1-9.546.002 4.773 4.773 0 0 1 9.546-.002z" stroke="#888A85" fill="url(#h)" transform="translate(-1)"/><path d="M25.456 14.544a2.298 2.298 0 1 1-4.596.002 2.298 2.298 0 0 1 4.596-.002z" stroke="#000" fill="#2E3436"/><path d="M23.865 13.483a1.591 1.591 0 1 1-3.182 0 1.591 1.591 0 0 1 3.182 0z" fill="#FFF"/><path d="M9.2 7.953l1.508 1.41c3.392-2.593 6.947-8.169 6.947-8.169.804-.911-.047-1.524-.88-.974 0 0-5.271 4.11-7.575 7.733z" stroke="#673907" fill="url(#i)" fill-rule="nonzero" stroke-linecap="round" transform="rotate(-106.415 30.424 7.78)"/><path d="M6.32 11.71l.913.787 3.452-2.994.112-.287.444-.008c-.177-.635-1.195-1.781-1.957-1.781l.033.443-.272.154-2.725 3.687z" stroke="#888A85" fill="url(#j)" fill-rule="nonzero" stroke-linecap="round" transform="rotate(-106.415 30.424 7.78)"/><path d="M38.512 27.71l2.554 1.096" stroke="#FFF" stroke-linecap="round" stroke-linejoin="round"/><path d="M.268 15.757c4.244 0 7.466.506 8.076-2.583.491-2.488-2.93-3.68-4.627-1.459a54.934 54.934 0 0 1-3.45 4.042z" fill="url(#k)" fill-rule="nonzero" transform="rotate(-106.415 30.424 7.78)"/><path d="M42.025 27.767a1.052 1.052 0 1 1 .595 2.017 1.052 1.052 0 0 1-.595-2.017z" fill="#FFF" fill-rule="nonzero" opacity=".528"/><path d="M37.44 26.27a.71.71 0 1 1 .401 1.362.71.71 0 0 1-.401-1.361z" fill="#FFF" fill-rule="nonzero"/><path d="M3.03 15.001s1.513.038 2.486-.574c.345-.216.616.264.201.442-.897.384-2.687.132-2.687.132z" fill="url(#l)" fill-rule="nonzero" opacity=".428" transform="rotate(-106.415 30.424 7.78)"/><path d="M24.003 23.737c1.497.143 2.85-.273 3.412-.475.098-.555.537-1.62 2.046-1.691l-.53-.928s-1.967 1.348-4.066 1.746l-.862 1.348z" fill="url(#m)" transform="translate(-1)"/></g></svg>