<svg version="1" xmlns="http://www.w3.org/2000/svg" width="50" height="50" preserveAspectRatio="xMidYMid" viewBox="0 0 512.000000 512.000000"><path fill="#fefefe" d="M0 256V0h512v512H0V256z"/><path fill="#c2c2c2" d="M56 482c-10-2-19-12-23-22-2-5-2-12-2-173V113c3-12 9-21 19-26l7-3h106l106-1 5-6c6-10 22-26 33-32 9-6 21-11 33-15 7-2 11-2 28-2s21 0 28 2c21 6 37 15 52 30 10 10 16 18 22 30 15 32 13 63-5 99-4 9-19 31-28 44l-5 7-1 102v101l-81-81-80-81-20 20c-11 11-21 20-20 21 0 1 36 37 80 81l80 81-166-1c-91 0-166 0-168-1zm90-248c13-5 22-12 28-23 5-8 7-16 7-28v-10l-11-1h-27l-16 1v19h16c18 0 17-1 13 7-2 5-9 12-15 15-4 2-7 2-14 2-8 0-10 0-16-3-8-4-13-9-17-18-3-6-3-8-3-15s0-9 3-15c6-12 16-19 30-20 9-1 15 1 21 5l5 3 7-8 7-7-2-2c-3-3-14-9-21-11-8-2-21-2-29 0-15 4-29 15-36 28-5 9-6 17-6 28-1 25 18 49 43 55 9 2 24 1 33-2z"/><path fill="#fbdb43" d="M55 482c-10-3-19-12-22-23-2-7-2-344 0-351 3-10 11-18 21-22 4-2 11-2 110-2l106-1 5-7c13-21 38-38 66-45 8-3 11-3 27-3s19 0 28 3c64 17 98 79 77 138-6 18-17 37-44 75-28 39-46 77-51 109-2 6-3 13-3 16-1 4-1 6-4 8l-3 3-3-3c-3-2-3-3-4-11-4-32-17-65-36-95-4-7-10-16-12-19l-4-5-19 18c-14 15-18 18-19 17s-6 3-22 20l-21 20 81 81 81 80H225c-140 0-166 0-170-1zm87-246c12-3 24-11 31-22 5-9 8-17 8-30l1-11-3-1h-54l1 10v10h16c9 0 17 1 17 1s-1 3-3 5c-2 6-8 12-14 15-4 2-6 2-15 2-10 0-11 0-16-3-7-3-12-10-16-17-3-4-3-6-3-15 0-8 0-10 3-16 6-11 15-17 28-19 7-1 16 1 21 5l5 3 8-8 8-8-3-2c-5-4-17-10-26-11-33-7-65 18-67 53-3 34 28 64 62 61 3 0 8-1 11-2z"/><path fill="#5184c3" d="M151 405c43-44 79-79 80-79s37 35 80 79l79 79H72l79-79zM32 277c0-140 0-165 1-169 3-10 11-18 21-22 4-2 11-2 110-2l106-1 5-7c13-21 38-38 66-45 8-3 11-3 27-3s19 0 28 3c64 17 98 79 77 138-6 18-17 37-44 75-28 39-46 77-51 109-2 6-3 13-3 16-1 4-1 6-4 8l-3 3-3-3c-3-2-3-3-4-11-4-32-17-65-36-96-5-7-14-21-22-31-7-11-16-24-20-30-4-5-7-10-7-10 0-1-55 54-123 121L32 442V277zm110-41c12-3 24-11 31-22 5-9 8-17 8-30l1-11-3-1h-54l1 10v10h16c9 0 17 1 17 1s-1 3-3 5c-2 6-8 12-14 15-4 2-6 2-15 2-10 0-11 0-16-3-7-3-12-10-16-17-3-4-3-6-3-15 0-8 0-10 3-16 6-11 15-17 28-19 7-1 16 1 21 5l5 3 8-8 8-8-3-2c-5-4-17-10-26-11-33-7-65 18-67 53-3 34 28 64 62 61 3 0 8-1 11-2z"/><path fill="#db4b3d" d="M32 276V109l2-5c4-7 11-14 18-17l6-3h106l106-1 5-7c14-22 38-38 66-45 8-3 11-3 27-3s19 0 28 3c64 17 98 79 77 138-6 18-17 37-44 75-28 39-46 77-51 109-2 6-3 13-3 16-1 4-1 6-4 8l-3 3-3-3c-3-2-3-3-4-11-4-32-17-65-36-96-5-7-14-21-22-31-7-11-16-24-20-30-4-5-7-10-7-10 0-1-55 54-123 121L31 442l1-166zm110-40c20-5 34-20 38-39 1-4 1-11 1-16l1-8-4-1h-53l1 10v10l16 1h16l-2 5c-3 6-11 13-17 16-7 2-18 2-25-1-8-2-15-9-19-17-3-6-3-8-3-16s0-10 3-16c6-10 14-17 27-19 5-1 7-1 13 1 4 1 8 3 11 5l4 3 8-8c9-9 9-9-1-15-17-10-38-11-56-2-9 4-22 16-26 26-11 22-7 48 11 66 15 15 36 20 56 15z"/><path fill="#21a462" d="M32 276V109l2-5c4-7 11-14 18-17l6-3h211c0 1-2 5-4 9-5 12-7 22-8 35-1 20 3 38 13 58l6 12-122 122L31 442l1-166zm110-40c20-5 34-20 38-39 1-4 1-11 1-16l1-8-4-1h-53l1 10v10l16 1h16l-2 5c-3 6-11 13-17 16-7 2-18 2-25-1-8-2-15-9-19-17-3-6-3-8-3-16s0-10 3-16c6-10 14-17 27-19 5-1 7-1 13 1 4 1 8 3 11 5l4 3 8-8c9-9 9-9-1-15-17-10-38-11-56-2-9 4-22 16-26 26-11 22-7 48 11 66 15 15 36 20 56 15zm219-65c-12-1-25-12-30-23-3-8-2-22 1-29 4-7 12-15 19-18 5-3 7-3 17-3s11 0 17 3c7 4 15 11 19 18 3 7 4 21 1 29-7 16-25 26-44 23z"/><path fill="#812c27" d="M361 171c-12-1-25-12-30-23-3-8-2-22 1-29 4-7 12-15 19-18 5-3 7-3 17-3s11 0 17 3c7 4 15 11 19 18 3 7 4 21 1 29-7 16-25 26-44 23z"/></svg>