<svg width="50" height="50" viewBox="0 0 250 336" preserveAspectRatio="xMidYMid" xmlns="http://www.w3.org/2000/svg"><g fill="none"><path d="M16.9 82.4s5.7 22.1 6.6 29.5c.8 7.4-14.8 23.8-14.8 32S12 166.8 30 174.2c18 7.4 20.5 26.2 20.5 37.7 0 11.5-6.6 33.6-6.6 33.6s-4.1 54.9 18 64.7C84 320 79.1 320 84 320c4.9 0 41 14.8 62.3 9 21.3-5.7 27-12.3 27-12.3s21.3 1.6 27.9-17.2c6.6-18.8 10.7-58.2 8.2-76.2s-5.7-41.8 9-50c14.8-8.2 30.3-18 27.9-26.2-2.5-8.2-15.6-19.7-15.6-19.7s-3.3-20.5-.8-25.4c2.5-4.9 17.2-17.2 9-26.2s-22.9-9-22.9-9l-18.8 1.6s-32-28.7-73.8-27c-41.8 1.6-68 27-68 27s-13.9-4.9-26.2 0c-12.3 5-14.8.1-12.3 14z" fill="#FBA919"/><path d="M91.8 204.4s-16.2 24.8-28.1 42.4c-1.8 2.7 11.9 2.9 11.9 2.9l16.2-45.3zm7.7-51.4s-4.9 12.2-7.6 18.7c-2.9 7-14 10.5-14 10.5s5.7-6 5.7-21.3c0-6.4 8.3-9 8.3-9l7.6 1.1z" fill="#E78724"/><path d="M94.6 159.9s-10 11.9-28.6 5.2-20.5-30.5-20.5-37.2c0-6.7 35.3 6.7 40.1 9.5 4.8 2.8 13.7 14.4 9 22.5zM24.3 32.4s17.2-3.3 28.6 5.7c11.5 9.1 14.8 16.2 14.8 16.2L48.4 69.7S39.1 65.4 36.2 53c-2.9-12.5-1-18.2-11.9-20.6z" fill="#E78724"/><path d="M89.5 125.4c-7.4-10.5-19.6-15.1-29.3-15.8-16.6-1.3-24.5 4.6-24.5 4.6s27.2 1.2 35 11.4c14.6 19.2 35.9 20.7 39.3 16.5-3.9.2-8.3-1.8-12.9-6.1-2.9-2.8-5.2-7.2-7.6-10.6zm-45.8 37.2s-30.2-10.4-24.4-20.9c5.7-10.5 1.2-16.2 1.2-16.2S3.6 138 7.9 151.4c2.6 8.2 7.1 14.1 31.4 25.5 11.7 21.6 2.4 60.6 3 60.8.9.3 16.4-7.6 15.3-44.1-.4-11.2-1.3-26.4-13.9-31zM83.2 51.1c-12.6 6.4-30 15.4-30 15.4l6.8 3.4c-.7 1.1-1 1.7-1 1.7l7 3.2s17.1 12.4 27.5 20.3C90 84.4 79.8 67.5 79.8 67.5s-2.8-7.8 3.4-16.4zm42 261.8c-38.9 0-52-19.7-52-19.7l6.1 14.8c2.3 6.4 26.8 26.3 45.9 26.3v-21.4z" fill="#E78724"/><path d="M77.4 279.9s3.6 21.9 17.9 21.9c12.2 0 15.8-18.5 15.8-22.3l-33.7.4zm-23.8-33c1.3-3.5 5.7-17.7 7.2-30.5 1.7-15.4 1.1-38 1.1-38s-3.8 14.8-7.2 17.2c-3.3 2.4-9.5 18.6-9.5 18.6s-3.3 24.2-4.9 32.3c4.3.8 8-1.8 13.3.4zM19 151.2s8.1-2.9 10.5-20.5c2.4-17.7-2.9-32.9-2.9-32.9s.5 24.3-2.4 29.1c-2.9 4.8-5.2 6.2-8.6 12.4-3.3 6.1 1.5 10 3.4 11.9z" fill="#E78724"/><path d="M28.7 36.6l-1.7-1c-4.8.1 1.7 1 1.7 1z" fill="#FDC168"/><path d="M89.8 45.8s-7.6-1.3-11.5-7c-3.8-5.7-14.6-17.2-31.9-17.3-17.2-.1-34.3 4.6-34.3 4.6L27 35.5c1.6-.1 4.3 0 8.9.1 18.7.6 21.6 19.1 21.6 19.1l65.9-9.1" fill="#FBA919"/><path d="M96.2 147.9s-8.9 8.9-22.6 6c-13.7-2.9-22-8.9-22.6-19.4-.6-10.5 2.9-14.6 2.9-14.6s15.3 4.8 22.6 11.1c7.2 6.4 12.6 16.6 19.7 16.9z" fill="#FFF"/><path d="M85.4 144.8s-7.7 3.5-16.4.7C57.7 141.7 56.9 130 56.9 130s-6.9 20.4 12.5 24.3c15.6 3.1 24.8-5.9 24.8-5.9l-8.8-3.6z" fill="#C9C9C9"/><path d="M90.9 41.5c-.8-17.5 13.5-31.4 18.4-32 .3 3-.3 14.5 4.7 18 1.4-9.4 6.3-19.8 25.6-26.6-4.1 10.9-.6 20.1 1.2 24.4 13.2-11.9 22-10 22-10s-9.1 15.8-5.6 26.1c-26.4-1.9-66.2 2.9-66.3.1zm-56 26.6c-6.3-5.2-1.6-10.1-2.1-16-.3-3.2-.5-6.1-1.6-7.8-5.8-9.2-19.5-11.9-19.6-12L5.2 31l4.3-5c.6-.6 18-17.3 45-8.6C73.4 23.5 87.4 44.2 87.9 45l-9.5 4.5c-.1-.2-11.2-19.6-27.4-24.8-13.1-4.2-25.2-.2-30.4 2.4 5.5 2.2 12.7 6.2 17 13 2 3.2 2.4 7.3 2.7 11.2.4 5.2.8 10.1 4.7 13.3l-10.1 3.5zM18 144.4s7.9-9.8 10.3-29c.9-7.5-.7-22.4-3.3-28.2.5 14.1-3.1 28.2-3.1 28.2s-2.4 26.2-3.9 29z" fill="#463014"/><path d="M59.9 58.2s-2.5-11.1-9.6-16.8c-9.9-7.9-22.1-3.7-22.2-3.7l-1.8-5.4c.6-.2 14.5-4.6 27.3 4.4 12.9 9 14.4 17.2 14.6 18.2l-8.3 3.3zM43 137.4s-4.2-6-3.4-12.5c.4-3.2 1.9-6.6 4.6-7.7 5-2.2 7.2 3.5 7.2 3.5s-7.1 1.6-8.4 16.7z" fill="#463014"/><path d="M88.7 146.5c.2.3.3.5.3.5s-13 9.8-26.3-.1c-7.1-5.3-6.5-18.4-4.3-24 5.7 1.3 10.5 3.6 14.5 6.3-5.1-4.5-9.5-7.9-9.5-8l-5.8-1.6-11.2-3.9c-.1.9-4.2 20.1 7.6 33.2 5.2 5.8 29.8 18.8 41.5-3.4l-6.8 1z" fill="#463014"/><path d="M87.5 147.9c7.3 11.1 25.8 4.8 25.5-7 0 0-12.3 6.8-23.2-5.7-6.4-7.3-26.7-27.5-54.4-20.8 19 4.2 44.3 21.6 52.1 33.5z" fill="#463014"/><path d="M32.7 179.3c1.8 1 8 7.4 8 17.1 0 4.8-.5 29-2.9 43.8 3.6 2.3 6.1 2.8 9.7 5.2 1.8-17.1 3.1-42 2.5-52-.7-11.4-6.8-19.1-12.5-22.4-1.8-1-3.6-2-5.5-3-9.7-5.3-19.8-10.7-19.8-20 0-7.3 2.8-9.5 5.8-11.9l.3-.3c2-1.6 4.2-3.4 5.6-6.4 3.6-8.2 4.2-28.9 0-34.2-2.1-2.6-7.7-11.5-6.1-17.4.6-2.3 2-3.9 4.4-5.1 2.5-1.3 5.8-1.9 9.9-1.9 8 0 16.9 2.4 21.5 3.9C70 80 89.8 95 95.5 99.4c.2.1.3.2.3.2l3.6 2.5-2.3-3.8c-.1-.2-14.5-23.9-40.3-32.6-5-1.7-14.8-4.5-24.5-4.5-5.8 0-10.6 1-14.5 3-4.7 2.4-7.9 6.3-9.2 11.1-3.2 11.9 7.3 25.2 7.7 25.6 1.2 2.2 1.8 18.2-1.1 24.6-.4.9-1.5 1.8-2.8 2.9-.4.3-.9.7-1.4 1.1-4 3-10.1 7.6-10.1 18.2 0 14.5 14.7 22.3 26.4 28.6 1.9 1.1 3.8 2.1 5.4 3z" fill="#463014"/><path d="M34.9 68.1c-6.3-5.2-1.6-10.1-2.1-16-.3-3.2-.5-6.1-1.6-7.8-5.8-9.2-19.5-11.9-19.6-12L5.2 31l4.3-5c.6-.6 18-17.3 45-8.6C73.4 23.5 87.4 44.2 87.9 45l-9.5 4.5c-.1-.2-11.2-19.6-27.4-24.8-13.1-4.2-25.2-.2-30.4 2.4 5.5 2.2 12.7 6.2 17 13 2 3.2 2.4 7.3 2.7 11.2.4 5.2.8 10.1 4.7 13.3l-10.1 3.5z" fill="#463014"/><path d="M34.7 69.2l-.4-.3c-4.7-3.9-3.8-7.7-3-11.4.4-1.7.8-3.5.6-5.3-.3-3-.5-5.9-1.4-7.4-5.5-8.7-18.9-11.5-19-11.5l-8-1.6 5.3-6.2c0-.1 11.2-11.4 30.2-11.4 5.2 0 10.5.9 15.8 2.6 19.7 6.4 33.8 27.8 33.9 28l.6.9L78 50.8l-.4-.7C76.4 48 65.8 30.5 50.7 25.7c-3.7-1.2-7.6-1.8-11.6-1.8-7.2 0-13 2-16.2 3.3 5.2 2.3 11.5 6.3 15.5 12.6 2.2 3.4 2.5 7.6 2.9 11.7.4 5 .8 9.8 4.3 12.7l1.3 1.1-12.2 3.9z" fill="#463014"/><path d="M59.9 58.2s-2.5-11.1-9.6-16.8c-9.9-7.9-22.1-3.7-22.2-3.7l-1.8-5.4c.6-.2 14.5-4.6 27.3 4.4 12.9 9 14.4 17.2 14.6 18.2l-8.3 3.3z" fill="#463014"/><path d="M59.2 59.5l-.2-1.1c0-.1-2.5-10.8-9.3-16.2-3.8-3.1-8.5-4.6-13.8-4.6-4.1 0-7.2 1-7.5 1.1l-.9.3-2.4-7.3.9-.3c.4-.1 4.1-1.3 9.3-1.3 6.9 0 13.4 2 18.8 5.8C67.3 45.2 68.9 53.7 69 54.7l.1.7-9.9 4.1zM35.9 35.7c5.7 0 10.8 1.7 15 5 6 4.8 8.8 13.2 9.7 16.2l6.5-2.6c-.6-2.3-3.2-9.2-14-16.8-5.2-3.6-11.2-5.5-17.8-5.5-3.6 0-6.4.6-7.8.9l1.2 3.6c1.4-.3 4-.8 7.2-.8zm58.8 260.8c-2.8 0-5.7-1-7.7-2.8-1.5-1.3-6.7-6.1-9-11.9-.9-2.2-.7-3.9.6-5.2.9-.9 2.6-1.9 6.2-1.9H104c2.7 0 4.7.6 5.8 1.7 1.4 1.5 1 3.4.6 4.4-.7 1.7-3.6 7.4-8.5 12.7-1.7 1.9-4.3 3-7.2 3zm3-147.9l-10.2-.7s2.6 4.6 4.3 10.5c1.9 6.7-1.7 16.5-1.7 16.5s13.5-15.3 7.6-26.3zM85 323.4c-36.2-2.8-49-37-49-44.2h9.5-4.7 4.7c0 3.1 9.7 32.4 40.3 34.7l-.8 9.5z" fill="#463014"/><path d="M74.8 262c-.6-3.3-.6-6.4.1-9.4-2.8-2.1-7.7-2.8-11.4-4-3-1.9-18.5 2-29.8-11.7-14.1-17.1-11.1-27.2-11.1-27.2-3.6 4-7.1 2.5-12.6 21.2s2.6 31.8 17.7 44.9c7.1 6.2 17.2 8.7 25.9 9.7-2.9-2.9 5-3.2 10.4-5.2-.4-4.4.3-8.6 3.6-12.1 2-2.1 4.5-3.3 7.1-4.3.1-.3.3-.7.4-1-.2-.3-.3-.6-.3-.9z" fill="#FFF"/><path d="M63.8 280.1c-.3-.9-.6-1.9-.8-2.8-.3-1-1.5-4 0-.6-.4-.9-.7-1.7-.8-2.6-24.5 0-45.8-16.8-41.7-52.2-3.2-4.3-7.7 8.6-7.7 8.6S.5 266.1 32.2 279.9c10.5 4.6 19.9 7.9 22.1 6.6 4.6.9 8.7-2.3 10.3-4.4-.3-.7-.6-1.3-.8-2z" fill="#C9C9C9"/><path d="M74.3 256.9c0-3 .6-5.9 2.1-8.8l.3-.6c-9.4-.1-20.3-1-29.5-4.7-10.2-4.1-22.9-18-25-34.3 0 0-19.1 14.8-13.5 46.3 5.3 29.7 30.1 39.3 58.4 41 0-.2-3.2-6.8-2.2-10.8-16.1 1.2-34-5-42.7-19.3-7.9-13.1-5.7-35.4-2.5-38.6 8 25.1 36.7 30.2 54.6 29.8z" fill="#463014"/><path d="M77.3 238.9c-5.1 14.9-15.5 27-15.5 27s14.3-.7 15.1-3.2c.6-1.9 12.9-30.8 17.7-64.6-4.5 7.4-16.9 39.5-17.3 40.8z" fill="#463014"/><path d="M158.4 204.4s16.2 24.8 28.1 42.4c1.8 2.7-11.9 2.9-11.9 2.9l-16.2-45.3zm-7.7-51.4s4.9 12.2 7.6 18.7c2.9 7 14 10.5 14 10.5s-5.7-6-5.7-21.3c0-6.4-8.3-9-8.3-9l-7.6 1.1z" fill="#E78724"/><path d="M155.6 159.9s10 11.9 28.6 5.2 20.5-30.5 20.5-37.2c0-6.7-35.3 6.7-40.1 9.5-4.7 2.9-13.8 14.4-9 22.5zm70.3-127.5s-17.2-3.3-28.6 5.7c-11.5 9.1-14.8 16.2-14.8 16.2l19.3 15.3s9.3-4.3 12.2-16.7c2.8-12.4.9-18.1 11.9-20.5z" fill="#E78724"/><path d="M160.6 125.4c7.4-10.5 19.6-15.1 29.3-15.8 16.6-1.3 24.5 4.6 24.5 4.6s-27.2 1.2-35 11.4c-14.6 19.2-35.9 20.7-39.3 16.5 3.9.2 8.3-1.8 12.9-6.1 2.9-2.8 5.3-7.2 7.6-10.6zm45.9 37.2s30.2-10.4 24.4-20.9c-5.7-10.5-1.2-16.2-1.2-16.2s16.8 12.6 12.5 25.9c-2.6 8.2-7.1 14.1-31.4 25.5-11.7 21.6-2.4 60.6-3 60.8-.9.3-16.4-7.6-15.3-44.1.5-11.2 1.4-26.4 14-31zM167 51.1c12.6 6.4 30 15.4 30 15.4l-6.8 3.4c.7 1.1 1 1.7 1 1.7l-7 3.2s-17.1 12.4-27.6 20.3c3.5-10.7 13.7-27.6 13.7-27.6s2.9-7.8-3.3-16.4zm-42 261.8c38.9 0 52-19.7 52-19.7l-6.1 14.8c-2.3 6.4-26.8 26.3-45.9 26.3v-21.4z" fill="#E78724"/><path d="M172.7 279.9s-3.6 21.9-17.9 21.9c-12.2 0-15.8-18.5-15.8-22.3l33.7.4zm23.9-33c-1.3-3.5-5.7-17.7-7.2-30.5-1.7-15.4-1.1-38-1.1-38s3.8 14.8 7.2 17.2c3.3 2.4 9.5 18.6 9.5 18.6s3.3 24.2 4.9 32.3c-4.3.8-8-1.8-13.3.4zm34.6-95.7s-8.1-2.9-10.5-20.5c-2.4-17.7 2.9-32.9 2.9-32.9s-.5 24.3 2.4 29.1c2.9 4.8 5.2 6.2 8.6 12.4 3.2 6.1-1.5 10-3.4 11.9z" fill="#E78724"/><path d="M221.5 36.6l1.7-1c4.8.1-1.7 1-1.7 1z" fill="#FDC168"/><path d="M160.4 45.8s7.6-1.3 11.5-7c3.8-5.7 14.6-17.2 31.9-17.3 17.2-.1 34.3 4.6 34.3 4.6l-14.9 9.4c-1.6-.1-4.3 0-8.9.1-18.7.6-21.6 19.1-21.6 19.1l-65.9-9.1" fill="#FBA919"/><path d="M154 147.9s8.9 8.9 22.6 6c13.7-2.9 22-8.9 22.6-19.4.6-10.5-2.9-14.6-2.9-14.6s-15.3 4.8-22.6 11.1c-7.3 6.3-12.7 16.6-19.7 16.9z" fill="#FFF"/><path d="M164.8 144.8s7.7 3.5 16.4.7c11.3-3.8 12.1-15.5 12.1-15.5s6.9 20.4-12.5 24.3c-15.6 3.1-24.8-5.9-24.8-5.9l8.8-3.6z" fill="#C9C9C9"/><path d="M215.3 68.1c6.3-5.2 1.6-10.1 2.1-16 .3-3.2.5-6.1 1.6-7.8 5.8-9.2 19.5-11.9 19.6-12L245 31l-4.3-5c-.6-.6-18-17.3-45-8.6-18.9 6.1-32.9 26.8-33.4 27.6l9.5 4.5c.1-.2 11.2-19.6 27.4-24.8 13.1-4.2 25.2-.2 30.4 2.4-5.5 2.2-12.7 6.2-17 13-2 3.2-2.4 7.3-2.7 11.2-.4 5.2-.9 10.1-4.7 13.3l10.1 3.5zm16.8 76.3s-7.9-9.8-10.3-29c-.9-7.5.7-22.4 3.3-28.2-.5 14.1 3.1 28.2 3.1 28.2s2.5 26.2 3.9 29z" fill="#463014"/><path d="M190.3 58.2s2.5-11.1 9.6-16.8c9.9-7.9 22.1-3.7 22.2-3.7l1.8-5.4c-.6-.2-14.5-4.6-27.3 4.4-12.9 9-14.4 17.2-14.6 18.2l8.3 3.3zm16.9 79.2s4.2-6 3.4-12.5c-.4-3.2-1.9-6.6-4.5-7.7-5-2.2-7.2 3.5-7.2 3.5s7 1.6 8.3 16.7z" fill="#463014"/><path d="M161.5 146.5c-.2.3-.3.5-.3.5s13 9.8 26.3-.1c7.1-5.3 6.5-18.4 4.3-24-5.7 1.3-10.5 3.6-14.5 6.3 5.1-4.5 9.5-7.9 9.5-8l5.8-1.6 11.2-3.9c.1.9 4.2 20.1-7.6 33.2-5.2 5.8-29.8 18.8-41.5-3.4l6.8 1z" fill="#463014"/><path d="M162.7 147.9c-7.3 11.1-25.8 4.8-25.5-7 0 0 12.3 6.8 23.2-5.7 6.4-7.3 26.8-27.5 54.4-20.8-19 4.2-44.3 21.6-52.1 33.5z" fill="#463014"/><path d="M217.4 179.3c-1.8 1-8 7.4-8 17.1 0 4.8.5 29 2.9 43.8-3.6 2.3-6.1 2.8-9.7 5.2-1.8-17.1-3.1-42-2.5-52 .7-11.4 6.8-19.1 12.5-22.4 1.8-1 3.6-2 5.5-3 9.7-5.3 19.8-10.7 19.8-20 0-7.3-2.8-9.5-5.8-11.9l-.3-.3c-2-1.6-4.2-3.4-5.6-6.4-3.6-8.2-4.2-28.9 0-34.2 2.1-2.6 7.7-11.5 6.1-17.4-.6-2.3-2-3.9-4.4-5.1-2.5-1.3-5.8-1.9-9.9-1.9-8 0-16.9 2.4-21.5 3.9-16.3 5.3-36.1 20.3-41.8 24.7-.2.1-.3.2-.3.2l-3.6 2.5 2.3-3.8c.1-.2 14.5-23.9 40.3-32.6 5-1.7 14.8-4.5 24.5-4.5 5.8 0 10.6 1 14.5 3 4.7 2.4 7.9 6.3 9.2 11.1 3.2 11.9-7.3 25.2-7.7 25.6-1.2 2.2-1.8 18.2 1.1 24.6.4.9 1.5 1.8 2.8 2.9.4.3.9.7 1.4 1.1 4 3 10.1 7.6 10.1 18.2 0 14.5-14.7 22.3-26.4 28.6-2 1.1-3.8 2.1-5.5 3z" fill="#463014"/><path d="M199.9 66.4c-2.3-4-8.3-11.6-22-18.3-15.3-7.5-33.1-11.3-52.8-11.3-19.7 0-37.4 3.8-52.8 11.3-13.7 6.7-19.7 14.3-22 18.3l-1 1.3 11.8 2.6.4-.5.2-.4c.2-.8 1.8-5 14.9-11.4 14-6.8 30.4-10.3 48.6-10.3 18.2 0 34.6 3.5 48.6 10.3 13.1 6.4 14.7 10.6 14.9 11.4l.2.4.4.5 11.8-2.6-1.2-1.3z" fill="#463014"/><path d="M215.3 68.1c6.3-5.2 1.6-10.1 2.1-16 .3-3.2.5-6.1 1.6-7.8 5.8-9.2 19.5-11.9 19.6-12L245 31l-4.3-5c-.6-.6-18-17.3-45-8.6-18.9 6.1-32.9 26.8-33.4 27.6l9.5 4.5c.1-.2 11.2-19.6 27.4-24.8 13.1-4.2 25.2-.2 30.4 2.4-5.5 2.2-12.7 6.2-17 13-2 3.2-2.4 7.3-2.7 11.2-.4 5.2-.9 10.1-4.7 13.3l10.1 3.5z" fill="#463014"/><path d="M203.2 65.1l1.3-1.1c3.5-2.9 3.9-7.7 4.4-12.7.3-4 .7-8.2 2.9-11.7 4-6.3 10.3-10.2 15.5-12.6-3.1-1.3-9-3.3-16.2-3.3-4 0-7.9.6-11.6 1.8-15 4.9-25.7 22.4-26.9 24.4l-.5.7-11.1-5.1.6-.9c.1-.2 14.2-21.6 33.9-28 5.3-1.7 10.6-2.6 15.8-2.6 19 0 30.2 11.3 30.3 11.4l5.3 6.2-8 1.6c-.1 0-13.5 2.8-19 11.5-.9 1.5-1.2 4.3-1.4 7.4-.2 1.8.2 3.6.6 5.3.8 3.7 1.6 7.5-3 11.4l-.4.3-12.5-4z" fill="#463014"/><path d="M190.3 58.2s2.5-11.1 9.6-16.8c9.9-7.9 22.1-3.7 22.2-3.7l1.8-5.4c-.6-.2-14.5-4.6-27.3 4.4-12.9 9-14.4 17.2-14.6 18.2l8.3 3.3z" fill="#463014"/><path d="M181 55.5l.1-.7c.1-.9 1.8-9.5 14.9-18.8 5.4-3.8 11.9-5.8 18.8-5.8 5.2 0 8.9 1.1 9.3 1.3l.9.3-2.4 7.3-.9-.3c-.3-.1-3.4-1.1-7.5-1.1-5.3 0-9.9 1.6-13.8 4.6-6.7 5.4-9.2 16.1-9.3 16.2l-.2 1.1-9.9-4.1zm40.5-18.9l1.2-3.6c-1.4-.4-4.2-.9-7.8-.9-6.6 0-12.5 1.8-17.7 5.5-10.8 7.6-13.4 14.5-14 16.8l6.5 2.6c.9-3 3.7-11.4 9.7-16.2 4.1-3.3 9.3-5 15-5 3.1-.1 5.7.4 7.1.8zm-73.3 257c-4.9-5.3-7.8-10.9-8.5-12.7-.4-1-.9-2.9.6-4.4 1.1-1.1 3.1-1.7 5.8-1.7h19.2c3.6 0 5.3 1 6.2 1.9 1.2 1.2 1.4 3 .6 5.2-2.3 5.8-7.4 10.6-9 11.9-2 1.7-4.9 2.8-7.7 2.8-2.8-.1-5.4-1.2-7.2-3zm4.3-145l10.2-.7s-2.6 4.6-4.3 10.5c-1.9 6.7 1.7 16.5 1.7 16.5s-13.5-15.3-7.6-26.3z" fill="#463014"/><path d="M125.1 112.2c-6.5 0-14.9-.2-21.3-4.7 0 0 8.3 14.6 21.3 14.6v-1.8 1.8c13 0 21.3-14.6 21.3-14.6-6.4 4.5-14.8 4.7-21.3 4.7z" fill="#E78724"/><path d="M143 112.1c-6.5 3.9-12.3 5.3-17.9 5.4-5.5-.1-11.4-1.5-17.9-5.4 0 0 9.5 11.6 17.8 11.7 8.5-.1 18-11.7 18-11.7zm22.2 211.3l-.7-9.4c30.6-2.4 40.2-31.6 40.2-34.7h9.5c0 7-12.8 41.3-49 44.1z" fill="#463014"/><path d="M175.4 262c.6-3.3.6-6.4-.1-9.4 2.8-2.1 7.7-2.8 11.4-4 3-1.9 18.6 2 29.8-11.7 14.1-17.1 11.1-27.2 11.1-27.2 3.6 4 7.1 2.5 12.6 21.2s-2.6 31.8-17.7 44.9c-7.1 6.2-17.2 8.7-25.9 9.7 2.9-2.9-5-3.2-10.4-5.2.4-4.4-.3-8.6-3.6-12.1-2-2.1-4.5-3.3-7.1-4.3-.1-.3-.3-.7-.4-1 .2-.3.2-.6.3-.9z" fill="#FFF"/><path d="M186.3 280.1c.3-.9.6-1.9.8-2.8.3-1 1.5-4 0-.6.4-.9.7-1.7.8-2.6 24.5 0 45.8-16.8 41.7-52.2 3.2-4.3 7.7 8.6 7.7 8.6s12.3 35.6-19.4 49.4c-10.5 4.6-19.9 7.9-22.1 6.6-4.6.9-8.7-2.3-10.3-4.4.4-.7.6-1.3.8-2z" fill="#C9C9C9"/><path d="M175.8 256.9c0-3-.6-5.9-2.1-8.8l-.3-.6c9.4-.1 20.3-1 29.5-4.7 10.2-4.1 22.9-18 25-34.3 0 0 19.1 14.8 13.5 46.3-5.3 29.7-30.1 39.3-58.4 41 0-.2 3.2-6.8 2.2-10.8 16.1 1.2 34-5 42.7-19.3 7.9-13.1 5.7-35.4 2.4-38.6-7.8 25.1-36.5 30.2-54.5 29.8z" fill="#463014"/><path d="M187.3 264.3c-3.4-3.7-9.6-8-23.9-8H87c-14.3 0-20.6 4.4-23.9 8-4.9 5.3-5.7 12.7-2.3 22 9.1 24.6 21.8 49.6 64.4 49.7 42.6 0 55.4-25.1 64.4-49.7 3.4-9.2 2.6-16.6-2.3-22zm-6.7 20.3c-4.3 12.4-15.9 42.3-55.5 42.4-39.6-.1-51.2-30-55.5-42.4-2.4-6.9-2.2-11.9.6-15.1 1.9-2.2 6.2-4.7 16.1-4.7h77.6c9.9 0 14.2 2.6 16.1 4.7 2.8 3.1 3 8.2.6 15.1z" fill="#463014"/><path d="M172.9 238.9c5.1 14.9 15.5 27 15.5 27s-14.3-.7-15.1-3.2c-.6-1.9-12.9-30.8-17.7-64.6 4.5 7.4 16.8 39.5 17.3 40.8z" fill="#463014"/></g></svg>