<?xml version="1.0" encoding="UTF-8"?>
<svg width="250px" height="336px" viewBox="0 0 250 336" version="1.1" xmlns="http://www.w3.org/2000/svg" xmlns:xlink="http://www.w3.org/1999/xlink">
    <!-- Generator: Sketch 43.2 (39069) - http://www.bohemiancoding.com/sketch -->
    <title>grunt-1</title>
    <desc>Created with Sketch.</desc>
    <defs></defs>
    <g id="Page-1" stroke="none" stroke-width="1" fill="none" fill-rule="evenodd">
        <g id="grunt-1" fill-rule="nonzero">
            <path d="M16.9,82.4 C16.9,82.4 22.6,104.5 23.5,111.9 C24.3,119.3 8.7,135.7 8.7,143.9 C8.7,152.1 12,166.8 30,174.2 C48,181.6 50.5,200.4 50.5,211.9 C50.5,223.4 43.9,245.5 43.9,245.5 C43.9,245.5 39.8,300.4 61.9,310.2 C84,320 79.1,320 84,320 C88.9,320 125,334.8 146.3,329 C167.6,323.3 173.3,316.7 173.3,316.7 C173.3,316.7 194.6,318.3 201.2,299.5 C207.8,280.7 211.9,241.3 209.4,223.3 C206.9,205.3 203.7,181.5 218.4,173.3 C233.2,165.1 248.7,155.3 246.3,147.1 C243.8,138.9 230.7,127.4 230.7,127.4 C230.7,127.4 227.4,106.9 229.9,102 C232.4,97.1 247.1,84.8 238.9,75.8 C230.7,66.8 216,66.8 216,66.8 L197.2,68.4 C197.2,68.4 165.2,39.7 123.4,41.4 C81.6,43 55.4,68.4 55.4,68.4 C55.4,68.4 41.5,63.5 29.2,68.4 C16.9,73.4 14.4,68.5 16.9,82.4 L16.9,82.4 Z" id="Shape" fill="#FBA919"></path>
            <path d="M91.8,204.4 C91.8,204.4 75.6,229.2 63.7,246.8 C61.9,249.5 75.6,249.7 75.6,249.7 L91.8,204.4 L91.8,204.4 Z M99.5,153 C99.5,153 94.6,165.2 91.9,171.7 C89,178.7 77.9,182.2 77.9,182.2 C77.9,182.2 83.6,176.2 83.6,160.9 C83.6,154.5 91.9,151.9 91.9,151.9 L99.5,153 L99.5,153 Z" id="Shape" fill="#E78724"></path>
            <path d="M94.6,159.9 C94.6,159.9 84.6,171.8 66,165.1 C47.4,158.4 45.5,134.6 45.5,127.9 C45.5,121.2 80.8,134.6 85.6,137.4 C90.4,140.2 99.3,151.8 94.6,159.9 L94.6,159.9 Z M24.3,32.4 C24.3,32.4 41.5,29.1 52.9,38.1 C64.4,47.2 67.7,54.3 67.7,54.3 L48.4,69.7 C48.4,69.7 39.1,65.4 36.2,53 C33.3,40.5 35.2,34.8 24.3,32.4 Z" id="Shape" fill="#E78724"></path>
            <path d="M89.5,125.4 C82.1,114.9 69.9,110.3 60.2,109.6 C43.6,108.3 35.7,114.2 35.7,114.2 C35.7,114.2 62.9,115.4 70.7,125.6 C85.3,144.8 106.6,146.3 110,142.1 C106.1,142.3 101.7,140.3 97.1,136 C94.2,133.2 91.9,128.8 89.5,125.4 L89.5,125.4 Z M43.7,162.6 C43.7,162.6 13.5,152.2 19.3,141.7 C25,131.2 20.5,125.5 20.5,125.5 C20.5,125.5 3.6,138 7.9,151.4 C10.5,159.6 15,165.5 39.3,176.9 C51,198.5 41.7,237.5 42.3,237.7 C43.2,238 58.7,230.1 57.6,193.6 C57.2,182.4 56.3,167.2 43.7,162.6 L43.7,162.6 Z M83.2,51.1 C70.6,57.5 53.2,66.5 53.2,66.5 L60,69.9 C59.3,71 59,71.6 59,71.6 L66,74.8 C66,74.8 83.1,87.2 93.5,95.1 C90,84.4 79.8,67.5 79.8,67.5 C79.8,67.5 77,59.7 83.2,51.1 L83.2,51.1 Z M125.2,312.9 C86.3,312.9 73.2,293.2 73.2,293.2 L79.3,308 C81.6,314.4 106.1,334.3 125.2,334.3 L125.2,312.9 Z" id="Shape" fill="#E78724"></path>
            <path d="M77.4,279.9 C77.4,279.9 81,301.8 95.3,301.8 C107.5,301.8 111.1,283.3 111.1,279.5 L77.4,279.9 L77.4,279.9 Z M53.6,246.9 C54.9,243.4 59.3,229.2 60.8,216.4 C62.5,201 61.9,178.4 61.9,178.4 C61.9,178.4 58.1,193.2 54.7,195.6 C51.4,198 45.2,214.2 45.2,214.2 C45.2,214.2 41.9,238.4 40.3,246.5 C44.6,247.3 48.3,244.7 53.6,246.9 L53.6,246.9 Z M19,151.2 C19,151.2 27.1,148.3 29.5,130.7 C31.9,113 26.6,97.8 26.6,97.8 C26.6,97.8 27.1,122.1 24.2,126.9 C21.3,131.7 19,133.1 15.6,139.3 C12.3,145.4 17.1,149.3 19,151.2 Z" id="Shape" fill="#E78724"></path>
            <path d="M28.7,36.6 L27,35.6 C22.2,35.7 28.7,36.6 28.7,36.6 Z" id="Shape" fill="#FDC168"></path>
            <path d="M89.8,45.8 C89.8,45.8 82.2,44.5 78.3,38.8 C74.5,33.1 63.7,21.6 46.4,21.5 C29.2,21.4 12.1,26.1 12.1,26.1 L27,35.5 C28.6,35.4 31.3,35.5 35.9,35.6 C54.6,36.2 57.5,54.7 57.5,54.7 L123.4,45.6" id="Shape" fill="#FBA919"></path>
            <path d="M96.2,147.9 C96.2,147.9 87.3,156.8 73.6,153.9 C59.9,151 51.6,145 51,134.5 C50.4,124 53.9,119.9 53.9,119.9 C53.9,119.9 69.2,124.7 76.5,131 C83.7,137.4 89.1,147.6 96.2,147.9 Z" id="Shape" fill="#FFFFFF"></path>
            <path d="M85.4,144.8 C85.4,144.8 77.7,148.3 69,145.5 C57.7,141.7 56.9,130 56.9,130 C56.9,130 50,150.4 69.4,154.3 C85,157.4 94.2,148.4 94.2,148.4 L85.4,144.8 Z" id="Shape" fill="#C9C9C9"></path>
            <path d="M90.9,41.5 C90.1,24 104.4,10.1 109.3,9.5 C109.6,12.5 109,24 114,27.5 C115.4,18.1 120.3,7.7 139.6,0.9 C135.5,11.8 139,21 140.8,25.3 C154,13.4 162.8,15.3 162.8,15.3 C162.8,15.3 153.7,31.1 157.2,41.4 C130.8,39.5 91,44.3 90.9,41.5 L90.9,41.5 Z M34.9,68.1 C28.6,62.9 33.3,58 32.8,52.1 C32.5,48.9 32.3,46 31.2,44.3 C25.4,35.1 11.7,32.4 11.6,32.3 L5.2,31 L9.5,26 C10.1,25.4 27.5,8.7 54.5,17.4 C73.4,23.5 87.4,44.2 87.9,45 L78.4,49.5 C78.3,49.3 67.2,29.9 51,24.7 C37.9,20.5 25.8,24.5 20.6,27.1 C26.1,29.3 33.3,33.3 37.6,40.1 C39.6,43.3 40,47.4 40.3,51.3 C40.7,56.5 41.1,61.4 45,64.6 L34.9,68.1 Z M18,144.4 C18,144.4 25.9,134.6 28.3,115.4 C29.2,107.9 27.6,93 25,87.2 C25.5,101.3 21.9,115.4 21.9,115.4 C21.9,115.4 19.5,141.6 18,144.4 Z" id="Shape" fill="#463014"></path>
            <path d="M59.9,58.2 C59.9,58.2 57.4,47.1 50.3,41.4 C40.4,33.5 28.2,37.7 28.1,37.7 L26.3,32.3 C26.9,32.1 40.8,27.7 53.6,36.7 C66.5,45.7 68,53.9 68.2,54.9 L59.9,58.2 Z M43,137.4 C43,137.4 38.8,131.4 39.6,124.9 C40,121.7 41.5,118.3 44.2,117.2 C49.2,115 51.4,120.7 51.4,120.7 C51.4,120.7 44.3,122.3 43,137.4 L43,137.4 Z" id="Shape" fill="#463014"></path>
            <path d="M88.7,146.5 C88.9,146.8 89,147 89,147 C89,147 76,156.8 62.7,146.9 C55.6,141.6 56.2,128.5 58.4,122.9 C64.1,124.2 68.9,126.5 72.9,129.2 C67.8,124.7 63.4,121.3 63.4,121.2 L57.6,119.6 L46.4,115.7 C46.3,116.6 42.2,135.8 54,148.9 C59.2,154.7 83.8,167.7 95.5,145.5 L88.7,146.5 L88.7,146.5 Z" id="Shape" fill="#463014"></path>
            <path d="M87.5,147.9 C94.8,159 113.3,152.7 113,140.9 C113,140.9 100.7,147.7 89.8,135.2 C83.4,127.9 63.1,107.7 35.4,114.4 C54.4,118.6 79.7,136 87.5,147.9 L87.5,147.9 Z" id="Shape" fill="#463014"></path>
            <path d="M32.7,179.3 C34.5,180.3 40.7,186.7 40.7,196.4 C40.7,201.2 40.2,225.4 37.8,240.2 C41.4,242.5 43.9,243 47.5,245.4 C49.3,228.3 50.6,203.4 50,193.4 C49.3,182 43.2,174.3 37.5,171 C35.7,170 33.9,169 32,168 C22.3,162.7 12.2,157.3 12.2,148 C12.2,140.7 15,138.5 18,136.1 L18.3,135.8 C20.3,134.2 22.5,132.4 23.9,129.4 C27.5,121.2 28.1,100.5 23.9,95.2 C21.8,92.6 16.2,83.7 17.8,77.8 C18.4,75.5 19.8,73.9 22.2,72.7 C24.7,71.4 28,70.8 32.1,70.8 C40.1,70.8 49,73.2 53.6,74.7 C70,80 89.8,95 95.5,99.4 C95.7,99.5 95.8,99.6 95.8,99.6 L99.4,102.1 L97.1,98.3 C97,98.1 82.6,74.4 56.8,65.7 C51.8,64 42,61.2 32.3,61.2 C26.5,61.2 21.7,62.2 17.8,64.2 C13.1,66.6 9.9,70.5 8.6,75.3 C5.4,87.2 15.9,100.5 16.3,100.9 C17.5,103.1 18.1,119.1 15.2,125.5 C14.8,126.4 13.7,127.3 12.4,128.4 C12,128.7 11.5,129.1 11,129.5 C7,132.5 0.9,137.1 0.9,147.7 C0.9,162.2 15.6,170 27.3,176.3 C29.2,177.4 31.1,178.4 32.7,179.3 L32.7,179.3 Z" id="Shape" fill="#463014"></path>
            <path d="M34.9,68.1 C28.6,62.9 33.3,58 32.8,52.1 C32.5,48.9 32.3,46 31.2,44.3 C25.4,35.1 11.7,32.4 11.6,32.3 L5.2,31 L9.5,26 C10.1,25.4 27.5,8.7 54.5,17.4 C73.4,23.5 87.4,44.2 87.9,45 L78.4,49.5 C78.3,49.3 67.2,29.9 51,24.7 C37.9,20.5 25.8,24.5 20.6,27.1 C26.1,29.3 33.3,33.3 37.6,40.1 C39.6,43.3 40,47.4 40.3,51.3 C40.7,56.5 41.1,61.4 45,64.6 L34.9,68.1 Z" id="Shape" fill="#463014"></path>
            <path d="M34.7,69.2 L34.3,68.9 C29.6,65 30.5,61.2 31.3,57.5 C31.7,55.8 32.1,54 31.9,52.2 C31.6,49.2 31.4,46.3 30.5,44.8 C25,36.1 11.6,33.3 11.5,33.3 L3.5,31.7 L8.8,25.5 C8.8,25.4 20,14.1 39,14.1 C44.2,14.1 49.5,15 54.8,16.7 C74.5,23.1 88.6,44.5 88.7,44.7 L89.3,45.6 L78,50.8 L77.6,50.1 C76.4,48 65.8,30.5 50.7,25.7 C47,24.5 43.1,23.9 39.1,23.9 C31.9,23.9 26.1,25.9 22.9,27.2 C28.1,29.5 34.4,33.5 38.4,39.8 C40.6,43.2 40.9,47.4 41.3,51.5 C41.7,56.5 42.1,61.3 45.6,64.2 L46.9,65.3 L34.7,69.2 L34.7,69.2 Z" id="Shape" fill="#463014"></path>
            <path d="M59.9,58.2 C59.9,58.2 57.4,47.1 50.3,41.4 C40.4,33.5 28.2,37.7 28.1,37.7 L26.3,32.3 C26.9,32.1 40.8,27.7 53.6,36.7 C66.5,45.7 68,53.9 68.2,54.9 L59.9,58.2 Z" id="Shape" fill="#463014"></path>
            <path d="M59.2,59.5 L59,58.4 C59,58.3 56.5,47.6 49.7,42.2 C45.9,39.1 41.2,37.6 35.9,37.6 C31.8,37.6 28.7,38.6 28.4,38.7 L27.5,39 L25.1,31.7 L26,31.4 C26.4,31.3 30.1,30.1 35.3,30.1 C42.2,30.1 48.7,32.1 54.1,35.9 C67.3,45.2 68.9,53.7 69,54.7 L69.1,55.4 L59.2,59.5 L59.2,59.5 Z M35.9,35.7 C41.6,35.7 46.7,37.4 50.9,40.7 C56.9,45.5 59.7,53.9 60.6,56.9 L67.1,54.3 C66.5,52 63.9,45.1 53.1,37.5 C47.9,33.9 41.9,32 35.3,32 C31.7,32 28.9,32.6 27.5,32.9 L28.7,36.5 C30.1,36.2 32.7,35.7 35.9,35.7 L35.9,35.7 Z M94.7,296.5 C91.9,296.5 89,295.5 87,293.7 C85.5,292.4 80.3,287.6 78,281.8 C77.1,279.6 77.3,277.9 78.6,276.6 C79.5,275.7 81.2,274.7 84.8,274.7 L104,274.7 C106.7,274.7 108.7,275.3 109.8,276.4 C111.2,277.9 110.8,279.8 110.4,280.8 C109.7,282.5 106.8,288.2 101.9,293.5 C100.2,295.4 97.6,296.5 94.7,296.5 L94.7,296.5 Z M97.7,148.6 L87.5,147.9 C87.5,147.9 90.1,152.5 91.8,158.4 C93.7,165.1 90.1,174.9 90.1,174.9 C90.1,174.9 103.6,159.6 97.7,148.6 L97.7,148.6 Z M85,323.4 C48.8,320.6 36,286.4 36,279.2 L45.5,279.2 L40.8,279.2 L45.5,279.2 C45.5,282.3 55.2,311.6 85.8,313.9 L85,323.4 Z" id="Shape" fill="#463014"></path>
            <path d="M74.8,262 C74.2,258.7 74.2,255.6 74.9,252.6 C72.1,250.5 67.2,249.8 63.5,248.6 C60.5,246.7 45,250.6 33.7,236.9 C19.6,219.8 22.6,209.7 22.6,209.7 C19,213.7 15.5,212.2 10,230.9 C4.5,249.6 12.6,262.7 27.7,275.8 C34.8,282 44.9,284.5 53.6,285.5 C50.7,282.6 58.6,282.3 64,280.3 C63.6,275.9 64.3,271.7 67.6,268.2 C69.6,266.1 72.1,264.9 74.7,263.9 C74.8,263.6 75,263.2 75.1,262.9 C74.9,262.6 74.8,262.3 74.8,262 Z" id="Shape" fill="#FFFFFF"></path>
            <path d="M63.8,280.1 C63.5,279.2 63.2,278.2 63,277.3 C62.7,276.3 61.5,273.3 63,276.7 C62.6,275.8 62.3,275 62.2,274.1 C37.7,274.1 16.4,257.3 20.5,221.9 C17.3,217.6 12.8,230.5 12.8,230.5 C12.8,230.5 0.5,266.1 32.2,279.9 C42.7,284.5 52.1,287.8 54.3,286.5 C58.9,287.4 63,284.2 64.6,282.1 C64.3,281.4 64,280.8 63.8,280.1 L63.8,280.1 Z" id="Shape" fill="#C9C9C9"></path>
            <path d="M74.3,256.9 C74.3,253.9 74.9,251 76.4,248.1 L76.7,247.5 C67.3,247.4 56.4,246.5 47.2,242.8 C37,238.7 24.3,224.8 22.2,208.5 C22.2,208.5 3.1,223.3 8.7,254.8 C14,284.5 38.8,294.1 67.1,295.8 C67.1,295.6 63.9,289 64.9,285 C48.8,286.2 30.9,280 22.2,265.7 C14.3,252.6 16.5,230.3 19.7,227.1 C27.7,252.2 56.4,257.3 74.3,256.9 L74.3,256.9 Z" id="Shape" fill="#463014"></path>
            <path d="M77.3,238.9 C72.2,253.8 61.8,265.9 61.8,265.9 C61.8,265.9 76.1,265.2 76.9,262.7 C77.5,260.8 89.8,231.9 94.6,198.1 C90.1,205.5 77.7,237.6 77.3,238.9 L77.3,238.9 Z" id="Shape" fill="#463014"></path>
            <path d="M158.4,204.4 C158.4,204.4 174.6,229.2 186.5,246.8 C188.3,249.5 174.6,249.7 174.6,249.7 L158.4,204.4 L158.4,204.4 Z M150.7,153 C150.7,153 155.6,165.2 158.3,171.7 C161.2,178.7 172.3,182.2 172.3,182.2 C172.3,182.2 166.6,176.2 166.6,160.9 C166.6,154.5 158.3,151.9 158.3,151.9 L150.7,153 L150.7,153 Z" id="Shape" fill="#E78724"></path>
            <path d="M155.6,159.9 C155.6,159.9 165.6,171.8 184.2,165.1 C202.8,158.4 204.7,134.6 204.7,127.9 C204.7,121.2 169.4,134.6 164.6,137.4 C159.9,140.3 150.8,151.8 155.6,159.9 L155.6,159.9 Z M225.9,32.4 C225.9,32.4 208.7,29.1 197.3,38.1 C185.8,47.2 182.5,54.3 182.5,54.3 L201.8,69.6 C201.8,69.6 211.1,65.3 214,52.9 C216.8,40.5 214.9,34.8 225.9,32.4 L225.9,32.4 Z" id="Shape" fill="#E78724"></path>
            <path d="M160.6,125.4 C168,114.9 180.2,110.3 189.9,109.6 C206.5,108.3 214.4,114.2 214.4,114.2 C214.4,114.2 187.2,115.4 179.4,125.6 C164.8,144.8 143.5,146.3 140.1,142.1 C144,142.3 148.4,140.3 153,136 C155.9,133.2 158.3,128.8 160.6,125.4 L160.6,125.4 Z M206.5,162.6 C206.5,162.6 236.7,152.2 230.9,141.7 C225.2,131.2 229.7,125.5 229.7,125.5 C229.7,125.5 246.5,138.1 242.2,151.4 C239.6,159.6 235.1,165.5 210.8,176.9 C199.1,198.5 208.4,237.5 207.8,237.7 C206.9,238 191.4,230.1 192.5,193.6 C193,182.4 193.9,167.2 206.5,162.6 Z M167,51.1 C179.6,57.5 197,66.5 197,66.5 L190.2,69.9 C190.9,71 191.2,71.6 191.2,71.6 L184.2,74.8 C184.2,74.8 167.1,87.2 156.6,95.1 C160.1,84.4 170.3,67.5 170.3,67.5 C170.3,67.5 173.2,59.7 167,51.1 L167,51.1 Z M125,312.9 C163.9,312.9 177,293.2 177,293.2 L170.9,308 C168.6,314.4 144.1,334.3 125,334.3 L125,312.9 Z" id="Shape" fill="#E78724"></path>
            <path d="M172.7,279.9 C172.7,279.9 169.1,301.8 154.8,301.8 C142.6,301.8 139,283.3 139,279.5 L172.7,279.9 L172.7,279.9 Z M196.6,246.9 C195.3,243.4 190.9,229.2 189.4,216.4 C187.7,201 188.3,178.4 188.3,178.4 C188.3,178.4 192.1,193.2 195.5,195.6 C198.8,198 205,214.2 205,214.2 C205,214.2 208.3,238.4 209.9,246.5 C205.6,247.3 201.9,244.7 196.6,246.9 L196.6,246.9 Z M231.2,151.2 C231.2,151.2 223.1,148.3 220.7,130.7 C218.3,113 223.6,97.8 223.6,97.8 C223.6,97.8 223.1,122.1 226,126.9 C228.9,131.7 231.2,133.1 234.6,139.3 C237.8,145.4 233.1,149.3 231.2,151.2 Z" id="Shape" fill="#E78724"></path>
            <path d="M221.5,36.6 L223.2,35.6 C228,35.7 221.5,36.6 221.5,36.6 Z" id="Shape" fill="#FDC168"></path>
            <path d="M160.4,45.8 C160.4,45.8 168,44.5 171.9,38.8 C175.7,33.1 186.5,21.6 203.8,21.5 C221,21.4 238.1,26.1 238.1,26.1 L223.2,35.5 C221.6,35.4 218.9,35.5 214.3,35.6 C195.6,36.2 192.7,54.7 192.7,54.7 L126.8,45.6" id="Shape" fill="#FBA919"></path>
            <path d="M154,147.9 C154,147.9 162.9,156.8 176.6,153.9 C190.3,151 198.6,145 199.2,134.5 C199.8,124 196.3,119.9 196.3,119.9 C196.3,119.9 181,124.7 173.7,131 C166.4,137.3 161,147.6 154,147.9 Z" id="Shape" fill="#FFFFFF"></path>
            <path d="M164.8,144.8 C164.8,144.8 172.5,148.3 181.2,145.5 C192.5,141.7 193.3,130 193.3,130 C193.3,130 200.2,150.4 180.8,154.3 C165.2,157.4 156,148.4 156,148.4 L164.8,144.8 Z" id="Shape" fill="#C9C9C9"></path>
            <path d="M215.3,68.1 C221.6,62.9 216.9,58 217.4,52.1 C217.7,48.9 217.9,46 219,44.3 C224.8,35.1 238.5,32.4 238.6,32.3 L245,31 L240.7,26 C240.1,25.4 222.7,8.7 195.7,17.4 C176.8,23.5 162.8,44.2 162.3,45 L171.8,49.5 C171.9,49.3 183,29.9 199.2,24.7 C212.3,20.5 224.4,24.5 229.6,27.1 C224.1,29.3 216.9,33.3 212.6,40.1 C210.6,43.3 210.2,47.4 209.9,51.3 C209.5,56.5 209,61.4 205.2,64.6 L215.3,68.1 Z M232.1,144.4 C232.1,144.4 224.2,134.6 221.8,115.4 C220.9,107.9 222.5,93 225.1,87.2 C224.6,101.3 228.2,115.4 228.2,115.4 C228.2,115.4 230.7,141.6 232.1,144.4 Z" id="Shape" fill="#463014"></path>
            <path d="M190.3,58.2 C190.3,58.2 192.8,47.1 199.9,41.4 C209.8,33.5 222,37.7 222.1,37.7 L223.9,32.3 C223.3,32.1 209.4,27.7 196.6,36.7 C183.7,45.7 182.2,53.9 182,54.9 L190.3,58.2 L190.3,58.2 Z M207.2,137.4 C207.2,137.4 211.4,131.4 210.6,124.9 C210.2,121.7 208.7,118.3 206.1,117.2 C201.1,115 198.9,120.7 198.9,120.7 C198.9,120.7 205.9,122.3 207.2,137.4 Z" id="Shape" fill="#463014"></path>
            <path d="M161.5,146.5 C161.3,146.8 161.2,147 161.2,147 C161.2,147 174.2,156.8 187.5,146.9 C194.6,141.6 194,128.5 191.8,122.9 C186.1,124.2 181.3,126.5 177.3,129.2 C182.4,124.7 186.8,121.3 186.8,121.2 L192.6,119.6 L203.8,115.7 C203.9,116.6 208,135.8 196.2,148.9 C191,154.7 166.4,167.7 154.7,145.5 L161.5,146.5 L161.5,146.5 Z" id="Shape" fill="#463014"></path>
            <path d="M162.7,147.9 C155.4,159 136.9,152.7 137.2,140.9 C137.2,140.9 149.5,147.7 160.4,135.2 C166.8,127.9 187.2,107.7 214.8,114.4 C195.8,118.6 170.5,136 162.7,147.9 L162.7,147.9 Z" id="Shape" fill="#463014"></path>
            <path d="M217.4,179.3 C215.6,180.3 209.4,186.7 209.4,196.4 C209.4,201.2 209.9,225.4 212.3,240.2 C208.7,242.5 206.2,243 202.6,245.4 C200.8,228.3 199.5,203.4 200.1,193.4 C200.8,182 206.9,174.3 212.6,171 C214.4,170 216.2,169 218.1,168 C227.8,162.7 237.9,157.3 237.9,148 C237.9,140.7 235.1,138.5 232.1,136.1 L231.8,135.8 C229.8,134.2 227.6,132.4 226.2,129.4 C222.6,121.2 222,100.5 226.2,95.2 C228.3,92.6 233.9,83.7 232.3,77.8 C231.7,75.5 230.3,73.9 227.9,72.7 C225.4,71.4 222.1,70.8 218,70.8 C210,70.8 201.1,73.2 196.5,74.7 C180.2,80 160.4,95 154.7,99.4 C154.5,99.5 154.4,99.6 154.4,99.6 L150.8,102.1 L153.1,98.3 C153.2,98.1 167.6,74.4 193.4,65.7 C198.4,64 208.2,61.2 217.9,61.2 C223.7,61.2 228.5,62.2 232.4,64.2 C237.1,66.6 240.3,70.5 241.6,75.3 C244.8,87.2 234.3,100.5 233.9,100.9 C232.7,103.1 232.1,119.1 235,125.5 C235.4,126.4 236.5,127.3 237.8,128.4 C238.2,128.7 238.7,129.1 239.2,129.5 C243.2,132.5 249.3,137.1 249.3,147.7 C249.3,162.2 234.6,170 222.9,176.3 C220.9,177.4 219.1,178.4 217.4,179.3 L217.4,179.3 Z" id="Shape" fill="#463014"></path>
            <path d="M199.9,66.4 C197.6,62.4 191.6,54.8 177.9,48.1 C162.6,40.6 144.8,36.8 125.1,36.8 C105.4,36.8 87.7,40.6 72.3,48.1 C58.6,54.8 52.6,62.4 50.3,66.4 L49.3,67.7 L61.1,70.3 L61.5,69.8 L61.7,69.4 C61.9,68.6 63.5,64.4 76.6,58 C90.6,51.2 107,47.7 125.2,47.7 C143.4,47.7 159.8,51.2 173.8,58 C186.9,64.4 188.5,68.6 188.7,69.4 L188.9,69.8 L189.3,70.3 L201.1,67.7 L199.9,66.4 L199.9,66.4 Z" id="Shape" fill="#463014"></path>
            <path d="M215.3,68.1 C221.6,62.9 216.9,58 217.4,52.1 C217.7,48.9 217.9,46 219,44.3 C224.8,35.1 238.5,32.4 238.6,32.3 L245,31 L240.7,26 C240.1,25.4 222.7,8.7 195.7,17.4 C176.8,23.5 162.8,44.2 162.3,45 L171.8,49.5 C171.9,49.3 183,29.9 199.2,24.7 C212.3,20.5 224.4,24.5 229.6,27.1 C224.1,29.3 216.9,33.3 212.6,40.1 C210.6,43.3 210.2,47.4 209.9,51.3 C209.5,56.5 209,61.4 205.2,64.6 L215.3,68.1 Z" id="Shape" fill="#463014"></path>
            <path d="M203.2,65.1 L204.5,64 C208,61.1 208.4,56.3 208.9,51.3 C209.2,47.3 209.6,43.1 211.8,39.6 C215.8,33.3 222.1,29.4 227.3,27 C224.2,25.7 218.3,23.7 211.1,23.7 C207.1,23.7 203.2,24.3 199.5,25.5 C184.5,30.4 173.8,47.9 172.6,49.9 L172.1,50.6 L161,45.5 L161.6,44.6 C161.7,44.4 175.8,23 195.5,16.6 C200.8,14.9 206.1,14 211.3,14 C230.3,14 241.5,25.3 241.6,25.4 L246.9,31.6 L238.9,33.2 C238.8,33.2 225.4,36 219.9,44.7 C219,46.2 218.7,49 218.5,52.1 C218.3,53.9 218.7,55.7 219.1,57.4 C219.9,61.1 220.7,64.9 216.1,68.8 L215.7,69.1 L203.2,65.1 L203.2,65.1 Z" id="Shape" fill="#463014"></path>
            <path d="M190.3,58.2 C190.3,58.2 192.8,47.1 199.9,41.4 C209.8,33.5 222,37.7 222.1,37.7 L223.9,32.3 C223.3,32.1 209.4,27.7 196.6,36.7 C183.7,45.7 182.2,53.9 182,54.9 L190.3,58.2 L190.3,58.2 Z" id="Shape" fill="#463014"></path>
            <path d="M181,55.5 L181.1,54.8 C181.2,53.9 182.9,45.3 196,36 C201.4,32.2 207.9,30.2 214.8,30.2 C220,30.2 223.7,31.3 224.1,31.5 L225,31.8 L222.6,39.1 L221.7,38.8 C221.4,38.7 218.3,37.7 214.2,37.7 C208.9,37.7 204.3,39.3 200.4,42.3 C193.7,47.7 191.2,58.4 191.1,58.5 L190.9,59.6 L181,55.5 L181,55.5 Z M221.5,36.6 L222.7,33 C221.3,32.6 218.5,32.1 214.9,32.1 C208.3,32.1 202.4,33.9 197.2,37.6 C186.4,45.2 183.8,52.1 183.2,54.4 L189.7,57 C190.6,54 193.4,45.6 199.4,40.8 C203.5,37.5 208.7,35.8 214.4,35.8 C217.5,35.7 220.1,36.2 221.5,36.6 L221.5,36.6 Z M148.2,293.6 C143.3,288.3 140.4,282.7 139.7,280.9 C139.3,279.9 138.8,278 140.3,276.5 C141.4,275.4 143.4,274.8 146.1,274.8 L165.3,274.8 C168.9,274.8 170.6,275.8 171.5,276.7 C172.7,277.9 172.9,279.7 172.1,281.9 C169.8,287.7 164.7,292.5 163.1,293.8 C161.1,295.5 158.2,296.6 155.4,296.6 C152.6,296.5 150,295.4 148.2,293.6 Z M152.5,148.6 L162.7,147.9 C162.7,147.9 160.1,152.5 158.4,158.4 C156.5,165.1 160.1,174.9 160.1,174.9 C160.1,174.9 146.6,159.6 152.5,148.6 L152.5,148.6 Z" id="Shape" fill="#463014"></path>
            <path d="M125.1,112.2 C118.6,112.2 110.2,112 103.8,107.5 C103.8,107.5 112.1,122.1 125.1,122.1 L125.1,120.3 L125.1,122.1 C138.1,122.1 146.4,107.5 146.4,107.5 C140,112 131.6,112.2 125.1,112.2 Z" id="Shape" fill="#E78724"></path>
            <path d="M143,112.1 C136.5,116 130.7,117.4 125.1,117.5 C119.6,117.4 113.7,116 107.2,112.1 C107.2,112.1 116.7,123.7 125,123.8 C133.5,123.7 143,112.1 143,112.1 Z M165.2,323.4 L164.5,314 C195.1,311.6 204.7,282.4 204.7,279.3 L214.2,279.3 C214.2,286.3 201.4,320.6 165.2,323.4 L165.2,323.4 Z" id="Shape" fill="#463014"></path>
            <path d="M175.4,262 C176,258.7 176,255.6 175.3,252.6 C178.1,250.5 183,249.8 186.7,248.6 C189.7,246.7 205.3,250.6 216.5,236.9 C230.6,219.8 227.6,209.7 227.6,209.7 C231.2,213.7 234.7,212.2 240.2,230.9 C245.7,249.6 237.6,262.7 222.5,275.8 C215.4,282 205.3,284.5 196.6,285.5 C199.5,282.6 191.6,282.3 186.2,280.3 C186.6,275.9 185.9,271.7 182.6,268.2 C180.6,266.1 178.1,264.9 175.5,263.9 C175.4,263.6 175.2,263.2 175.1,262.9 C175.3,262.6 175.3,262.3 175.4,262 L175.4,262 Z" id="Shape" fill="#FFFFFF"></path>
            <path d="M186.3,280.1 C186.6,279.2 186.9,278.2 187.1,277.3 C187.4,276.3 188.6,273.3 187.1,276.7 C187.5,275.8 187.8,275 187.9,274.1 C212.4,274.1 233.7,257.3 229.6,221.9 C232.8,217.6 237.3,230.5 237.3,230.5 C237.3,230.5 249.6,266.1 217.9,279.9 C207.4,284.5 198,287.8 195.8,286.5 C191.2,287.4 187.1,284.2 185.5,282.1 C185.9,281.4 186.1,280.8 186.3,280.1 L186.3,280.1 Z" id="Shape" fill="#C9C9C9"></path>
            <path d="M175.8,256.9 C175.8,253.9 175.2,251 173.7,248.1 L173.4,247.5 C182.8,247.4 193.7,246.5 202.9,242.8 C213.1,238.7 225.8,224.8 227.9,208.5 C227.9,208.5 247,223.3 241.4,254.8 C236.1,284.5 211.3,294.1 183,295.8 C183,295.6 186.2,289 185.2,285 C201.3,286.2 219.2,280 227.9,265.7 C235.8,252.6 233.6,230.3 230.3,227.1 C222.5,252.2 193.8,257.3 175.8,256.9 L175.8,256.9 Z" id="Shape" fill="#463014"></path>
            <path d="M187.3,264.3 C183.9,260.6 177.7,256.3 163.4,256.3 L87,256.3 C72.7,256.3 66.4,260.7 63.1,264.3 C58.2,269.6 57.4,277 60.8,286.3 C69.9,310.9 82.6,335.9 125.2,336 C167.8,336 180.6,310.9 189.6,286.3 C193,277.1 192.2,269.7 187.3,264.3 L187.3,264.3 Z M180.6,284.6 C176.3,297 164.7,326.9 125.1,327 C85.5,326.9 73.9,297 69.6,284.6 C67.2,277.7 67.4,272.7 70.2,269.5 C72.1,267.3 76.4,264.8 86.3,264.8 L163.9,264.8 C173.8,264.8 178.1,267.4 180,269.5 C182.8,272.6 183,277.7 180.6,284.6 L180.6,284.6 Z" id="Shape" fill="#463014"></path>
            <path d="M172.9,238.9 C178,253.8 188.4,265.9 188.4,265.9 C188.4,265.9 174.1,265.2 173.3,262.7 C172.7,260.8 160.4,231.9 155.6,198.1 C160.1,205.5 172.4,237.6 172.9,238.9 L172.9,238.9 Z" id="Shape" fill="#463014"></path>
        </g>
    </g>
</svg>