<svg preserveAspectRatio="xMidYMid" width="50" height="50" viewBox="0 0 225 315" xmlns="http://www.w3.org/2000/svg"><g stroke="#000" fill="none" fill-rule="evenodd"><path d="M2.6 2.5l-.029 199.8c0 60.7 49.22 109.9 109.9 109.9 60.7 0 109.9-49.2 109.9-109.9V2.5H2.6z" stroke-width="4" fill="#E60000" fill-rule="nonzero"/><g transform="translate(87 13)" fill-rule="nonzero" stroke-width="4" fill="#FFF"><circle cx="25.5" cy="29" r="7.5"/><path d="M27.4 22.2V11H34V6.94h-6.6V0h-3.8v6.94H17V11h6.6v11.2"/><circle cx="25.5" cy="51" r="22.5"/><path d="M.2 53v7h50.6v-7z"/></g><g transform="translate(87 13)" fill-rule="nonzero" fill="#FFF"><circle cx="25.5" cy="29" r="7.5"/><path d="M27.4 22.2V11H34V6.94h-6.6V0h-3.8v6.94H17V11h6.6v11.2"/><circle cx="25.5" cy="51" r="22.5"/><path d="M.2 53v7h50.6v-7z"/></g><path d="M90.87 75.5l.26 132.5h42.97V75.5z" stroke-width="4" fill="#FFF" fill-rule="nonzero"/><path fill="#FFF" fill-rule="nonzero" d="M90.87 75.5l.26 132.5h42.97V75.5z"/><g fill-rule="nonzero" stroke-width="4" fill="#FFF"><path d="M33.99 75.5l.26 132.5h42.97V75.5zm160.341-24.501v22h-50v-22h7.14v11h7.14v-11h7.14v11h7.15v-11h7.14v11h7.14v-11h7.15zm-20.883-14.133h8.24l-4.12-7.14 4.12-7.13h-8.24l-4.12-7.14-4.12 7.14h-8.24l4.12 7.13-4.12 7.14h8.24l4.12 7.13z"/><path d="M112.49 312.418c-41.7-.699-77.7-23.799-93.399-53.399 7-27 10-50.5 10-79.5h83.5"/></g><g fill-rule="nonzero" fill="#FFF"><path d="M33.99 75.5l.26 132.5h42.97V75.5zm160.341-24.501v22h-50v-22h7.14v11h7.14v-11h7.14v11h7.15v-11h7.14v11h7.14v-11h7.15zm-20.883-14.133h8.24l-4.12-7.14 4.12-7.13h-8.24l-4.12-7.14-4.12 7.14h-8.24l4.12 7.13-4.12 7.14h8.24l4.12 7.13z"/><path d="M112.49 312.418c-41.7-.699-77.7-23.799-93.399-53.399 7-27 10-50.5 10-79.5h83.5"/></g><path d="M88.72 233.95h7" stroke-width="2"/><path d="M96.04 230c2 2-1.5 2-1.5 4s3.5 2 1.5 4c-1.7 1.7-3.5-1.1-3.5-4 0-3.2 2-5.5 3.5-4z" fill="#000" fill-rule="nonzero"/><path d="M112.62 198.05c-24.6 0-33.7 23-33.7 30.4v78.4" stroke-width="3"/><path d="M112.72 312.25l-.5-104.2c-13.9 0-24.2 12.9-24.2 24.3v77.5m.7-24.9h7" stroke-width="2"/><path d="M96.04 281c2 2-1.5 2-1.5 4s3.5 2 1.5 4c-1.7 1.7-3.5-1.1-3.5-4 0-3.2 2-5.5 3.5-4z" fill="#000" fill-rule="nonzero"/><g fill-rule="nonzero" stroke-width="4" fill="#FFF"><path d="M191.05 75.5l-.26 132.5h-42.97V75.5zM30.709 50.999v22h50v-22h-7.14v11h-7.14v-11h-7.14v11h-7.15v-11h-7.14v11h-7.14v-11h-7.15zm20.883-14.133h-8.24l4.12-7.14-4.12-7.13h8.24l4.12-7.14 4.12 7.14h8.24l-4.12 7.13 4.12 7.14h-8.24l-4.12 7.13z"/><path d="M112.55 312.418c41.7-.699 77.7-23.799 93.399-53.399-7-27-10-50.5-10-79.5h-83.5"/></g><g fill-rule="nonzero" fill="#FFF"><path d="M191.05 75.5l-.26 132.5h-42.97V75.5zM30.709 50.999v22h50v-22h-7.14v11h-7.14v-11h-7.14v11h-7.15v-11h-7.14v11h-7.14v-11h-7.15zm20.883-14.133h-8.24l4.12-7.14-4.12-7.13h8.24l4.12-7.14 4.12 7.14h8.24l-4.12 7.13 4.12 7.14h-8.24l-4.12 7.13z"/><path d="M112.55 312.418c41.7-.699 77.7-23.799 93.399-53.399-7-27-10-50.5-10-79.5h-83.5"/></g><path d="M136.32 233.95h-7" stroke-width="2"/><path d="M129 230c-2 2 1.5 2 1.5 4s-3.5 2-1.5 4c1.7 1.7 3.5-1.1 3.5-4 0-3.2-2-5.5-3.5-4z" fill="#000" fill-rule="nonzero"/><path d="M112.42 198.05c24.6 0 33.7 23 33.7 30.4v78.4" stroke-width="3"/><path d="M112.32 312.25l.5-104.2c13.9 0 24.2 12.9 24.2 24.3v77.5m-.7-24.9h-7" stroke-width="2"/><path d="M129 281c-2 2 1.5 2 1.5 4s-3.5 2-1.5 4c1.7 1.7 3.5-1.1 3.5-4 0-3.2-2-5.5-3.5-4z" fill="#000" fill-rule="nonzero"/><path d="M24.5 152v25h176v-25H187v12h-13.6v-12h-13.5v12h-13.6v-12h-13.5v12h-13.5v-12h-13.6v12H92.19v-12H78.66v12H65.12v-12H51.56v12H38.03v-12z" stroke-width="4" fill="#FFF" fill-rule="nonzero"/><path fill="#FFF" fill-rule="nonzero" d="M24.5 152v25h176v-25H187v12h-13.6v-12h-13.5v12h-13.6v-12h-13.5v12h-13.5v-12h-13.6v12H92.19v-12H78.66v12H65.12v-12H51.56v12H38.03v-12z"/></g></svg>