<svg version="1" xmlns="http://www.w3.org/2000/svg" width="50" height="50" viewBox="0 0 421.000000 200.000000"><path fill="#fdfdfd" d="M0 100V0h421v200H0V100z"/><path fill="#050505" d="M48 198c-14-1-23-7-28-17-2-5-2-7-3-31 0-25 0-27-2-31-3-5-7-8-12-9l-3-1V90h2c4-1 10-4 12-10 3-4 3-5 4-30 0-14 1-27 1-29 2-6 4-9 8-13 8-6 19-8 46-8h18l1 67v68l4 3c2 2 5 4 7 4l5 1-1 4c0 2-1 7-2 10l-1 7-5-1c-14-2-20-4-26-11s-6-6-6-72l-1-60h-7c-8 0-13 1-16 6-2 3-2 5-3 28 0 30-1 33-8 41l-5 5 5 4c7 8 8 11 8 41 1 18 1 25 2 27 2 4 9 8 15 8h5v20l-4-1c-2 0-7 0-10-1zm311-8v-10l5-1c4 0 8-1 9-2 6-3 6-6 7-32 0-29 1-33 9-41l4-4-5-5c-7-8-8-11-8-41-1-23-1-25-3-28-3-4-8-6-14-6h-4V0h3c5 0 17 1 22 3 8 3 14 9 17 18 0 2 1 15 1 29 1 25 1 26 4 30 2 6 8 9 12 10h3v19l-4 1c-5 1-9 4-12 9-2 4-2 6-3 31 0 24 0 26-2 31-3 7-9 12-16 15-5 1-17 3-23 3l-2 1v-10zm-214-29c-15-3-25-11-31-24-11-23-7-55 9-72 18-18 49-19 66-3 11 9 16 24 16 43v10h-71v3c0 2 1 6 3 10 2 5 4 7 8 9 3 2 8 4 11 5 9 1 27 0 37-4 1-1 1 1 2 6 1 4 2 8 2 10 1 3 0 4-2 5-13 4-37 6-50 2zm35-68c-2-10-7-18-14-21-4-1-14-1-18 1-5 3-11 9-13 15-3 9-5 9 22 9h24l-1-4zm48 70c-1 0-6-2-10-3-7-1-8-2-8-4s3-17 3-18c1 0 5 1 9 2 7 2 10 3 20 3 14 0 18-1 20-6 4-8-2-14-20-21-15-6-23-11-27-18-2-4-3-6-3-14-1-7 0-9 2-14 3-7 8-11 15-15 8-3 18-5 29-4 8 1 23 4 24 5 0 0 0 5-2 10-1 8-2 10-3 9-11-4-29-5-35-2-5 2-7 6-6 10 1 5 4 8 13 12 19 8 23 10 28 13 2 2 6 6 7 8 3 5 3 6 3 16 0 12-1 15-7 21-7 7-19 11-37 10h-15zm81 0c-4-1-14-3-17-4l-2-1 2-10c1-6 2-10 2-10 0-1 4 1 9 2 7 2 10 3 21 3 10 0 13 0 15-2 7-4 6-13-1-18-2-1-9-5-15-7-18-7-24-12-28-20-3-6-3-18-1-24 6-17 26-24 52-20 15 2 18 3 17 6 0 1-1 5-2 10-1 6-2 7-3 7-11-4-29-5-35-2-9 5-8 14 1 19 2 1 9 4 15 7 17 7 23 11 27 19 3 6 3 19 1 25-4 10-13 16-25 19-7 1-28 2-33 1z"/></svg>