<svg preserveAspectRatio="xMidYMid" width="50" height="50" viewBox="0 0 602 734" xmlns="http://www.w3.org/2000/svg"><defs><linearGradient x1="50%" y1="0%" x2="50%" y2="100%" id="a"><stop stop-color="#16B0ED" stop-opacity=".8" offset="0%"/><stop stop-color="#0F59B2" stop-opacity=".837" offset="100%"/></linearGradient><linearGradient x1="50%" y1="0%" x2="50%" y2="100%" id="b"><stop stop-color="#7DB643" offset="0%"/><stop stop-color="#367533" offset="100%"/></linearGradient><linearGradient x1="50%" y1="0%" x2="50%" y2="100%" id="c"><stop stop-color="#88C649" stop-opacity=".8" offset="0%"/><stop stop-color="#439240" stop-opacity=".84" offset="100%"/></linearGradient></defs><g fill="none" fill-rule="evenodd"><path d="M0 155.57L155-1v728L0 572.238V155.57z" fill="url(#a)" transform="translate(2 3)"/><path d="M443.06 156.982L600-1l-3.181 728L442 572.22l1.06-415.238z" fill="url(#b)" transform="matrix(-1 0 0 1 1044 3)"/><path d="M154.986 0L558 615.19 445.225 728 42 114.172 154.986 0z" fill="url(#c)" transform="translate(2 3)"/><path d="M157 286.832L156.787 311 33 127.71 44.462 116 157 286.832z" fill-opacity=".13" fill="#000"/></g></svg>