<?xml version="1.0" encoding="UTF-8"?>
<svg width="256px" height="134px" viewBox="0 0 256 134" version="1.1" xmlns="http://www.w3.org/2000/svg" xmlns:xlink="http://www.w3.org/1999/xlink">
    <!-- Generator: Sketch 43.2 (39069) - http://www.bohemiancoding.com/sketch -->
    <title>php</title>
    <desc>Created with Sketch.</desc>
    <defs></defs>
    <g id="Page-1" stroke="none" stroke-width="1" fill="none" fill-rule="evenodd">
        <g id="php">
            <ellipse id="Oval" fill="#8993BE" fill-rule="nonzero" cx="128" cy="66.63" rx="128" ry="66.63"></ellipse>
            <path d="M35.945,106.082 L49.973,35.068 L82.41,35.068 C96.437,35.945 103.451,42.958 103.451,55.233 C103.451,76.274 86.794,88.548 71.889,87.671 L56.11,87.671 L52.603,106.082 L35.945,106.082 Z M59.616,74.521 L59.617,74.521 L70.137,74.521 C78.027,73.644 85.041,71.014 85.917,56.109 C85.917,50.849 81.534,48.219 75.397,48.219 L64,48.219 L59.616,74.521 Z" id="Combined-Shape" fill="#232531"></path>
            <path d="M100.192,87.671 L114.219,16.658 L130.877,16.658 L127.37,35.068 L143.15,35.068 C157.178,35.945 162.438,42.958 160.685,51.726 L154.548,87.671 L137.014,87.671 L143.151,55.233 C144.027,50.849 144.027,48.219 137.891,48.219 L124.74,48.219 L116.85,87.671 L100.192,87.671 L100.192,87.671 Z" id="Path" fill="#232531"></path>
            <path d="M153.425,106.082 L167.452,35.068 L199.89,35.068 C213.918,35.945 220.932,42.958 220.932,55.233 C220.932,76.274 204.274,88.548 189.37,87.671 L173.589,87.671 L170.082,106.082 L153.425,106.082 L153.425,106.082 Z M177.095,74.521 L177.096,74.521 L187.617,74.521 C195.507,73.644 202.521,71.014 203.397,56.109 C203.397,50.849 199.014,48.219 192.877,48.219 L181.479,48.219 L177.095,74.521 Z" id="Combined-Shape" fill="#232531"></path>
        </g>
    </g>
</svg>