<svg preserveAspectRatio="xMidYMid" version="1" xmlns="http://www.w3.org/2000/svg" width="50" height="50" viewBox="0 0 117.000000 118.000000"><path fill="#fdfcfd" d="M0 59V0h117v118l-7-1h-6l3-1c2-1 5-4 6-5l2-4V10l-2-3c-1-2-4-4-6-5-3 0-20-1-52 0H7L4 6 1 9v50c0 47 0 49 2 52 1 2 3 4 5 5l3 1H5l-5 1V59zm25 31c-4-1-7-4-10-9-1-3-2-6-2-12 0-19 8-36 20-42 3-1 7-2 12-2 7-1 8 0 13 2 9 4 13 14 12 25 0 3-2 10-3 15-2 6-3 11-3 11s1 1 3 1c3 0 3 0 1 7l-1 5H47c-12 0-21 0-22-1zm28-21c3-10 4-21 2-26-3-7-15-8-21 0-3 3-5 8-7 17-1 7-1 7 1 11 3 5 5 6 15 6l7 1 3-9zm25 21c-5-1-5-4-2-20 1-7 1-7 4-7 4-1 4-1 2 12-2 8-2 9 0 10 3 2 7 2 8-1 1-6 5-21 5-21h7c0 1-5 22-6 26-1 2-1 2-8 2-5 0-9 0-10-1z"/><path fill="#d8aed4" d="M34 117h24-24zm2-25c15-1 31-1 31 0H36zm38-3c0-1-1-2 0-2 0 0 1 0 1 2 2 2 1 2-1 0zm-56-3l-2-2 2 2c1 1 3 2 3 2 0 1-1 0-3-2zm67 0h2-2zm-4-2v-3c0-1 0-1 1 1 0 4 0 5-1 2zm-66-2v-1s1 0 1 1c1 2 0 2-1 0zm83-1v-1 1zm-60-4h5-5zm-25-2v-1 1zm69 0v-1 1zm-7-1v-1 1zm8-4v-1 1zm10-1v-1 1zm-66-4v-2 2zm49 2v-1 1zm25 0v-1 1zm-17-2v-2 2zm-71-3v-2 2zm1-6v-1 1zm42 0v-1 1zm14-1v-1 1zM41 38h1-1zm-19-2s0-1 1-2c2-1 2-1 1 1-2 1-2 2-2 1zm21-12h3-3zm68-18l-2-3 3 2c2 3 3 4 2 4 0 0-1-2-3-3zM33 2h25-25z"/><path fill="#9c3493" d="M6 114c-5-4-6-4-5-56C1 8 0 8 6 4c2-1 8-1 52-1h50l3 3 4 3v48c1 53 1 53-6 58-3 1-5 2-52 2-48 0-48-1-51-3zm63-28c1-3 1-6 1-7h-4c-2 0-3-1-2-2 6-15 8-29 6-37-5-17-29-22-43-9C16 41 9 64 14 79c1 5 7 11 12 12 2 1 12 1 22 1h19l2-6zm30-7c3-17 3-17-1-16-4 0-4-1-7 17-2 5-2 6-5 6-2 0-4-1-4-2-1-2 0-8 2-18 1-3 1-3-3-3s-4 0-5 3c0 2-1 6-2 9v9c0 6 2 8 13 8h9l3-13zm-68-4c-3-3-4-7-3-14 1-13 6-20 13-22 6-2 11 0 14 4 1 2 2 4 1 10 0 3-1 8-2 11s-2 7-3 9l-1 4h-9c-7 0-9-1-10-2z"/></svg>