<svg preserveAspectRatio="xMidYMid" width="50" height="50" viewBox="0 0 171 146" xmlns="http://www.w3.org/2000/svg"><g transform="translate(-1)" fill="none"><path d="M164.444 112.427c-9.078 4.732-56.106 24.068-66.118 29.287-10.012 5.221-15.574 5.17-23.483 1.389-7.909-3.781-57.955-23.996-66.97-28.305-4.506-2.154-6.875-3.971-6.875-5.688V91.915S66.151 77.731 76.67 73.958c10.518-3.774 14.167-3.91 23.118-.63 8.952 3.278 62.474 12.935 71.321 16.175l-.004 16.951c.001 1.7-2.04 3.565-6.66 5.973z" fill="#A41E11"/><path d="M164.444 95.227c-9.078 4.73-56.106 24.068-66.118 29.287-10.012 5.221-15.574 5.17-23.483 1.389-7.91-3.779-57.955-23.998-66.97-28.305-9.015-4.309-9.204-7.275-.348-10.742 8.855-3.469 58.626-22.996 69.146-26.77 10.518-3.772 14.167-3.91 23.118-.63 8.952 3.279 55.7 21.886 64.545 25.126 8.848 3.243 9.188 5.913.11 10.645z" fill="#D82C20"/><path d="M164.444 84.387c-9.078 4.732-56.106 24.068-66.118 29.29-10.012 5.218-15.574 5.167-23.483 1.386-7.91-3.779-57.955-23.996-66.97-28.305C3.367 84.604.998 82.789.998 81.072V63.875S66.151 49.692 76.67 45.918c10.518-3.773 14.167-3.91 23.118-.63 8.952 3.278 62.474 12.933 71.321 16.174l-.004 16.953c.001 1.699-2.04 3.564-6.66 5.972z" fill="#A41E11"/><path d="M164.444 67.187c-9.078 4.732-56.106 24.068-66.118 29.29-10.012 5.218-15.574 5.167-23.483 1.386-7.91-3.779-57.955-23.997-66.97-28.305s-9.204-7.274-.348-10.743c8.855-3.467 58.626-22.995 69.146-26.768 10.518-3.773 14.167-3.91 23.118-.63 8.952 3.278 55.7 21.884 64.545 25.125 8.848 3.242 9.188 5.913.11 10.645z" fill="#D82C20"/><path d="M164.444 55.307c-9.078 4.732-56.106 24.07-66.118 29.29-10.012 5.22-15.574 5.168-23.483 1.387-7.91-3.779-57.955-23.997-66.97-28.305-4.506-2.154-6.875-3.97-6.875-5.686V34.796S66.151 20.613 76.67 16.84c10.518-3.774 14.167-3.91 23.118-.63 8.952 3.278 62.474 12.933 71.321 16.174l-.004 16.952c.001 1.698-2.04 3.563-6.66 5.971z" fill="#A41E11"/><path d="M164.444 38.107c-9.078 4.732-56.106 24.069-66.118 29.29-10.012 5.218-15.574 5.167-23.483 1.387-7.909-3.78-57.955-23.997-66.97-28.305s-9.204-7.275-.348-10.743C16.38 26.268 66.151 6.742 76.671 2.968 87.19-.806 90.838-.942 99.79 2.338c8.952 3.279 55.7 21.885 64.545 25.126 8.848 3.24 9.188 5.912.11 10.643z" fill="#D82C20"/><path fill="#FFF" d="M108.344 21.547l-14.74 1.53-3.3 7.94-5.33-8.86-17.02-1.53 12.7-4.58-3.81-7.03 11.89 4.65 11.21-3.67-3.03 7.27zm-18.92 38.52l-27.51-11.41 39.42-6.05z"/><ellipse fill="#FFF" cx="51.284" cy="34.127" rx="21.069" ry="8.167"/><path fill="#7A0C00" d="M125.764 23.717l23.33 9.22-23.31 9.21z"/><path fill="#AD2115" d="M99.954 33.927l25.81-10.21.02 18.43-2.53.99z"/></g></svg>