<svg version="1" xmlns="http://www.w3.org/2000/svg" width="50" height="50" viewBox="0 0 300.000000 300.000000"><path fill="#fdfefe" d="M0 150V0h300v300H0V150z"/><path fill="#a1dbf3" d="M226 295c-1 0-8-1-15-2s-13-2-14-2c0-1 1-5 3-10s4-12 5-16c2-5 3-9 3-10 1-3 2-4 17-8s35-13 46-19c3-2 6-3 6-3 0 1-3 28-5 39-2 10-7 19-13 24l-4 4c1 0 0 1 0 0-1 0-4 0-7 1-6 2-17 3-22 2zm-45-6s-7-1-16-2c-9-2-21-3-26-4-6-1-15-2-19-3-4 0-8-1-8-1-1 0-3-4-5-8s-4-7-4-7c-1 0-1-1-1-2 0 0-1-2-1-4-1-3-1-4 2-3 1 0 4 1 8 1 3 0 8 1 13 1 17 2 62 0 72-3 3-1 3 1-2 15-6 18-7 21-10 21-1 0-2-1-3-1zm-91-13c-4 0-10-1-14-2-4 0-12-1-18-2-27-4-32-5-39-10l-4-2c0 1-1 0 0 0 0-1 0-2-1-3-4-3-8-14-8-21-1-7-1-8 1-7 16 6 39 14 54 18 7 1 14 3 16 3 1 1 5 2 7 2 3 0 5 1 5 2 1 1 3 7 6 12 2 6 5 11 5 11 0 1-2 0-10-1zm33-28c-8-1-18-2-22-2l-6-2-3-9c-4-13-8-28-10-43-2-9-2-18-2-38 0-29 1-41 7-67 1-7 2-13 2-14-1 0 0-1 0 0 1 0 2-2 2-5 1-3 2-6 3-7 1-2 15-3 28-3h10v51c0 33 0 53 1 56 1 4 4 9 8 11 1 1 12 1 37 2h34v3c1 4-2 24-6 42-4 20-4 19-5 20-3 2-14 3-31 5-20 2-26 2-47 0zm-44-6c-2-1-7-2-12-3-10-3-17-5-32-10-5-1-9-2-10-2 0 1-1 0 0 0 0-1-4-3-9-4-5-2-9-4-9-5v-10c2-8 4-28 7-48 1-6 2-18 3-25 2-8 3-20 4-26 3-21 5-33 5-34 1 0 4-1 7-2s5-3 5-3c-1 0 0-1 0 0 1 0 7-1 14-2 16-4 30-7 31-6 0 0 0 4-2 8-3 12-5 25-8 41-2 12-2 18-2 44 0 28 0 31 3 44 3 16 4 23 7 33 2 4 3 8 3 8 0 2-2 3-5 2zm134-5c0-1 1-6 2-10 2-11 5-33 6-40 1-10-2-9 33-9 23 0 30 0 30 1s-1 9-4 29c-1 4-1 5-7 8-4 3-10 6-15 8-4 2-7 4-7 5h-1c-1 0-5 1-9 3-9 3-20 7-25 8l-4 1 1-4zm-53-72c-3-1-5-1-6-1-1 1-1 1 0 0 0 0-2-2-4-5-5-5-6-10-6-22v-8l3 1c9 2 12 2 19 2 13 1 26-4 34-13 12-12 15-20 15-52-1-29 2-42 8-49l3-3h26c33 0 35 0 40 11l2 5v118l-2 5c-1 3-4 6-5 7-2 1-3 2-3 3 0 0 0 1-1 1 0 1-1 0 0-1s0-1-2 0c-3 1-115 2-121 1zm-16-46c-1-1-1-11 0-46 1-49 1-49 7-54 4-4 9-4 22-4h12l-3 6c-6 12-7 19-7 48 0 16-1 28-1 31-3 11-8 16-17 19-6 2-11 2-13 0zM28 63c0-2 2-18 3-27 2-11 4-17 8-22 1-2 2-3 2-4 1 1 5-2 4-3-1 0 0-1 0 0l6-2c5-2 8-3 16-3 9-1 34 2 36 3 0 1-2 6-4 13-3 6-6 16-9 22-4 12-2 11-18 14-10 2-22 4-36 8-5 2-8 2-8 2v-1zm70-14c0-3 12-38 15-41 1-1 2-1 14 0 7 1 13 2 13 3l-3 3c-4 4-5 9-5 22 0 9-1 12-2 12-5 0-30 2-31 2-1 1-1 0-1-1z"/><path fill="#6bc6ed" d="M221 294c-4-1-11-2-15-2l-8-2s2-9 6-19l6-19 4-1c9-2 34-11 48-18l15-7-1 5c-2 19-5 36-7 41-3 12-13 20-26 22-7 2-12 2-22 0zm-50-7c-21-3-32-5-45-6-7-1-14-2-14-3-2-1-12-21-11-22 0-1 5 0 10 1 15 2 61 1 75-1 7-1 12-1 12-1s-2 6-4 14c-3 7-5 14-6 16-1 4-2 4-17 2zm-85-12c-3 0-10-1-16-2s-16-2-23-3-15-2-18-4c-13-4-22-16-23-31l-1-6 9 3c21 8 48 16 67 20l7 1 5 11c3 7 6 12 6 12 0 1-8 0-13-1zm41-27c-3 0-11-1-18-2-15-2-13-1-17-11-7-21-12-57-12-80 0-11 2-38 5-53 3-19 8-41 10-42 4-1 34-3 36-2 0 1 1 15 0 53v52l3 5c2 4 3 6 7 8l6 3h66c0 8-10 62-12 64 0 1-19 4-29 4-11 1-35 2-45 1zm-64-11c-18-5-32-9-47-15l-10-4 1-3c0-2 1-10 3-18 1-8 2-21 4-29 1-8 2-18 2-22 1-4 3-16 4-26s3-24 4-30c1-7 2-13 2-14 0 0 2-2 5-2 2-1 11-3 19-5 16-4 31-7 32-6 0 0 0 5-2 11-10 39-12 76-8 113 1 14 5 34 11 53 1 2-1 2-20-3zm150 2c1-4 7-40 9-55l1-5h61l-1 2c0 1-1 8-2 15s-2 14-3 15c-1 4-29 18-51 25-14 5-15 5-14 3zm-53-74c-3-1-5-1-6-1-1 1-1 1 0 0 0 0-2-2-4-5-5-5-6-10-6-22v-8l3 1c9 2 12 2 19 2 13 1 26-4 34-13 12-12 15-20 15-52-1-29 2-42 8-49l3-3h26c33 0 35 0 40 11l2 5v118l-2 5c-1 3-4 6-5 7-2 1-3 2-3 3 0 0 0 1-1 1 0 1-1 0 0-1s0-1-2 0c-3 1-115 2-121 1zm-16-46c-1-1-1-11 0-46 1-49 1-49 7-54 4-4 9-4 22-4h12l-3 6c-6 12-7 19-7 48 0 16-1 28-1 31-3 11-8 16-17 19-6 2-11 2-13 0zM28 61c0-2 1-10 2-18 3-17 5-24 11-30C49 3 63 0 81 2c16 3 21 3 21 4 0 0-1 5-3 11-3 5-6 15-9 22l-4 12-5 1c-16 2-35 7-46 10-7 2-8 2-7-1zm70-12c0-2 14-39 15-41 1-1 23 1 25 3 1 0 1 1-1 2-1 0-2 2-4 5-1 3-2 6-2 16v13l-9 1c-6 0-13 1-17 1h-7z"/><path fill="#f39a14" d="M214 292c-8-1-15-2-15-2-1 0-1-2 1-6 2-5 7-21 10-31 0-1 2-1 4-2 11-1 39-12 53-20 5-3 9-5 9-4 0 0-4 35-6 41-3 13-12 22-25 25-8 2-13 2-31-1zm-36-5c-3 0-17-2-31-4-32-4-34-5-35-6s-10-19-10-20 2-1 5 0c13 2 41 3 58 2 16-1 28-3 31-4 2-1 2 0-1 10-5 16-9 24-10 23-1 0-4 0-7-1zm-87-12c-3 0-14-2-25-3s-24-3-28-4c-18-3-26-10-31-26-1-5-2-12-1-12 0 0 3 1 7 2 10 4 19 7 38 13 4 1 21 5 31 8l6 1 5 10c2 6 5 11 5 12s-1 1-7-1zm22-29c-18-2-17-1-20-10-7-23-11-43-12-70-1-32 2-62 11-97 3-9 2-9 24-10l15-1v53c0 52 0 52 2 56 1 3 4 6 6 8l4 3h34l35 1-1 7c-1 11-5 33-9 54-1 3-5 4-22 6-16 2-50 2-67 0zm-39-7c-26-6-67-19-66-22 0-1 0-8 5-38 1-8 2-20 3-25 1-6 2-18 3-25 1-8 3-19 3-23 1-4 2-13 3-19l2-12 5-1c13-4 25-7 32-8 4-1 9-2 12-3h6s-1 5-2 11c-14 54-14 113 0 158 2 5 3 9 3 9-1 0-5-1-9-2zm140 0s0-4 1-7c3-13 4-23 6-35 1-7 2-13 2-15l1-3h58s0 7-1 16c-3 19-1 17-23 28-16 8-44 18-44 16zm-54-74c-3-1-5-1-6-1-1 1-1 1 0 0 0 0-2-2-4-5-5-5-6-10-6-22v-8l3 1c9 2 12 2 19 2 13 1 26-4 34-13 12-12 15-20 15-52-1-29 2-42 8-49l3-3h26c33 0 35 0 40 11l2 5v118l-2 5c-1 3-4 6-5 7-2 1-3 2-3 3 0 0 0 1-1 1 0 1-1 0 0-1s0-1-2 0c-3 1-115 2-121 1zm-16-46c-1-1-1-11 0-46 1-49 1-49 7-54 4-4 9-4 22-4h12l-3 6c-6 12-7 19-7 48 0 16-1 28-1 31-3 11-8 16-17 19-6 2-11 2-13 0zM29 63c0-3 4-32 5-35 2-9 7-17 15-21 6-3 17-6 22-5 7 0 31 4 31 4l-2 6c-3 8-7 17-11 28l-3 10-9 2c-18 3-41 9-47 11h-1zm70-15c0-1 6-18 9-26 6-16 6-15 9-14 2 0 7 1 12 2 5 0 9 1 9 1s-2 2-4 5l-3 4v13c-1 13-1 14-3 14-5 0-18 1-24 1-3 1-5 1-5 0z"/><path fill="#019ee0" d="M214 292c-8-1-15-2-15-2-1 0-1-2 1-6 2-5 7-21 10-31 0-1 2-1 4-2 11-1 39-12 53-20 5-3 9-5 9-4 0 0-4 35-6 41-3 13-12 22-25 25-8 2-13 2-31-1zm-36-5c-3 0-17-2-31-4-32-4-34-5-35-6s-10-19-10-20 2-1 5 0c13 2 41 3 58 2 16-1 28-3 31-4 2-1 2 0-1 10-5 16-9 24-10 23-1 0-4 0-7-1zm-87-12c-3 0-14-2-25-3s-24-3-28-4c-18-3-26-10-31-26-1-5-2-12-1-12 0 0 3 1 7 2 10 4 19 7 38 13 4 1 21 5 31 8l6 1 5 10c2 6 5 11 5 12s-1 1-7-1zm22-29c-18-2-17-1-20-10-7-23-11-43-12-70-1-32 2-62 11-97 3-9 2-9 24-10l15-1v53c0 52 0 52 2 56 1 3 4 6 6 8l4 3h34l35 1-1 7c-1 11-5 33-9 54-1 3-5 4-22 6-16 2-50 2-67 0zm-39-7c-26-6-67-19-66-22 0-1 0-8 5-38 1-8 2-20 3-25 1-6 2-18 3-25 1-8 3-19 3-23 1-4 2-13 3-19l2-12 5-1c13-4 25-7 32-8 4-1 9-2 12-3h6s-1 5-2 11c-14 54-14 113 0 158 2 5 3 9 3 9-1 0-5-1-9-2zm140 0s0-4 1-7c3-13 4-23 6-35 1-7 2-13 2-15l1-3h58s0 7-1 16c-3 19-1 17-23 28-16 8-44 18-44 16zM29 63c0-3 4-32 5-35 2-9 7-17 15-21 6-3 17-6 22-5 7 0 31 4 31 4l-2 6c-3 8-7 17-11 28l-3 10-9 2c-18 3-41 9-47 11h-1zm70-15c0-1 6-18 9-26 6-16 6-15 9-14 2 0 7 1 12 2 5 0 9 1 9 1s-2 2-4 5l-3 4v13c-1 13-1 14-3 14-5 0-18 1-24 1-3 1-5 1-5 0z"/></svg>