<svg xmlns="http://www.w3.org/2000/svg" width="50" height="50" viewBox="0 0 200 200"><linearGradient id="a" gradientUnits="userSpaceOnUse" x1="15.907" y1="107.199" x2="183.465" y2="107.199"><stop offset="0" stop-color="#bcbec0"/><stop offset=".17" stop-color="#939598"/><stop offset=".817" stop-color="#939598"/><stop offset="1" stop-color="#bcbec0"/></linearGradient><path fill="url(#a)" d="M183.449 164.1l-9.407-115.056a3.726 3.726 0 0 0-.611-1.733 5.218 5.218 0 0 0-1.391-1.411 6.997 6.997 0 0 0-1.967-.949 7.984 7.984 0 0 0-2.341-.348H31.639c-.821 0-1.612.124-2.341.348a7.01 7.01 0 0 0-1.967.949 5.218 5.218 0 0 0-1.391 1.411 3.749 3.749 0 0 0-.611 1.733L15.923 164.1a4.671 4.671 0 0 0 .35 2.208 5.133 5.133 0 0 0 1.302 1.811 6.288 6.288 0 0 0 2.053 1.225c.787.29 1.665.45 2.599.45h154.919c.934 0 1.812-.16 2.599-.45a6.288 6.288 0 0 0 2.053-1.225 5.146 5.146 0 0 0 1.302-1.811c.285-.68.413-1.426.349-2.208z"/><path fill="#E4E4E4" d="M183.449 159.761l-9.407-115.056a3.726 3.726 0 0 0-.611-1.733 5.218 5.218 0 0 0-1.391-1.411 6.997 6.997 0 0 0-1.967-.949 7.984 7.984 0 0 0-2.341-.348H31.639c-.821 0-1.612.124-2.341.348a7.01 7.01 0 0 0-1.967.949 5.218 5.218 0 0 0-1.391 1.411 3.749 3.749 0 0 0-.611 1.733l-9.407 115.056a4.671 4.671 0 0 0 .35 2.208 5.133 5.133 0 0 0 1.302 1.811 6.288 6.288 0 0 0 2.053 1.225c.787.29 1.665.45 2.599.45h154.919c.934 0 1.812-.16 2.599-.45a6.288 6.288 0 0 0 2.053-1.225 5.146 5.146 0 0 0 1.302-1.811c.286-.68.414-1.426.35-2.208z"/><linearGradient id="b" gradientUnits="userSpaceOnUse" x1="26.217" y1="141.976" x2="173.154" y2="141.976"><stop offset="0" stop-color="#58595b"/><stop offset=".195"/><stop offset=".853"/><stop offset="1" stop-color="#58595b"/></linearGradient><path fill="url(#b)" d="M173.134 131.227a6.615 6.615 0 0 1-.495 2.138 7.24 7.24 0 0 1-1.813 2.537 8.723 8.723 0 0 1-2.855 1.718 10.351 10.351 0 0 1-3.611.632H35.003c-1.295 0-2.513-.225-3.607-.632a8.72 8.72 0 0 1-2.852-1.718 7.242 7.242 0 0 1-1.812-2.537 6.608 6.608 0 0 1-.495-3.088l.096-1.241c-.071.745-.112 1.182-.116 1.241l.02 16.665a6.62 6.62 0 0 0 .495 3.088 7.238 7.238 0 0 0 1.812 2.537 8.73 8.73 0 0 0 2.852 1.718c1.093.407 2.311.632 3.607.632H164.36c1.297 0 2.517-.225 3.611-.632a8.734 8.734 0 0 0 2.855-1.718 7.232 7.232 0 0 0 1.813-2.537c.399-.951.58-1.995.495-3.088v-15.715z"/><linearGradient id="c" gradientUnits="userSpaceOnUse" x1="99.686" y1="140.499" x2="99.686" y2="21.068"><stop offset="0" stop-color="#414042"/><stop offset="1" stop-color="#6d6e71"/></linearGradient><path fill="url(#c)" d="M173.134 130.492l-7.55-95.196c-.068-.854-.365-1.666-.845-2.404-.479-.736-1.139-1.398-1.934-1.953a9.786 9.786 0 0 0-2.737-1.312 11.228 11.228 0 0 0-3.264-.48H42.56c-1.144 0-2.246.171-3.26.48a9.705 9.705 0 0 0-2.735 1.312c-.794.555-1.454 1.217-1.933 1.953-.479.737-.777 1.55-.845 2.404l-7.55 95.196a6.29 6.29 0 0 0 .495 3.005 7.046 7.046 0 0 0 1.812 2.468 8.804 8.804 0 0 0 2.852 1.672c1.093.396 2.311.615 3.606.615H164.36c1.297 0 2.517-.219 3.611-.615a8.79 8.79 0 0 0 2.855-1.672 7.049 7.049 0 0 0 1.813-2.468 6.288 6.288 0 0 0 .495-3.005z"/><path fill="#FFF" d="M26.237 130.492l.001.447c-.011.295.031.732.144 1.285.118.559.357 1.207.771 1.927a7.429 7.429 0 0 0 1.892 2.036c1.657 1.307 4.256 1.907 7.168 1.761l4.722-.099 5.235-.002h107.026c1.824.007 3.573-.022 5.235.008l4.722.098c2.934.143 5.509-.46 7.171-1.766a7.417 7.417 0 0 0 1.893-2.039c.407-.705.654-1.373.769-1.924.113-.553.155-.992.143-1.285l.001-.447.017.446c.023.294 0 .734-.091 1.3-.096.57-.313 1.244-.702 1.989a7.636 7.636 0 0 1-1.861 2.178c-1.669 1.433-4.363 2.168-7.341 2.143l-4.722.098c-1.663.029-3.411.001-5.235.008H46.169l-5.235-.002-4.722-.099-1.094-.023c-.363-.018-.733-.07-1.087-.104-.354-.043-.709-.064-1.041-.126l-.944-.27c-1.276-.319-2.335-.956-3.178-1.624a7.642 7.642 0 0 1-1.861-2.182c-.382-.73-.607-1.424-.699-1.986-.091-.566-.114-1.007-.091-1.3l.02-.446z" opacity=".4"/><path fill="#F89832" d="M119.104 85.081c-1.505-2.175-3.594-3.843-5.992-5.158-2.394-1.313-5.098-2.275-7.838-3.038-2.738-.762-5.513-1.326-8.052-1.842-2.154-.438-4.023-.839-5.613-1.239-1.589-.4-2.901-.799-3.943-1.234-1.041-.435-1.813-.907-2.324-1.452-.51-.545-.758-1.163-.753-1.89.007-.966.407-1.776 1.087-2.446.68-.67 1.639-1.202 2.765-1.613 1.126-.411 2.419-.701 3.767-.889a30.001 30.001 0 0 1 4.096-.273 46.6 46.6 0 0 1 6.402.443 44.18 44.18 0 0 1 6.194 1.323 12.13 12.13 0 0 0 1.177.317c.225.046.461.086.707.114s.501.045.762.045c1.09 0 2.074-.198 2.936-.54a6.78 6.78 0 0 0 2.203-1.407 6.148 6.148 0 0 0 1.374-1.954c.31-.706.466-1.451.454-2.181a5.607 5.607 0 0 0-.357-1.902 5.523 5.523 0 0 0-.965-1.625 6.404 6.404 0 0 0-1.51-1.286 8.238 8.238 0 0 0-1.994-.885 52.698 52.698 0 0 0-4.228-1.109 58.672 58.672 0 0 0-4.458-.794 65.96 65.96 0 0 0-4.676-.478 73.582 73.582 0 0 0-4.882-.16c-3.089 0-6.239.344-9.229 1.05-2.993.706-5.828 1.775-8.285 3.226-2.462 1.454-4.547 3.292-6.03 5.536-1.488 2.25-2.373 4.911-2.427 8.003-.055 3.131.789 5.681 2.252 7.78 1.466 2.105 3.553 3.754 5.974 5.081 2.425 1.329 5.185 2.333 7.992 3.148 2.811.816 5.668 1.442 8.286 2.016 1.511.331 3.036.664 4.474 1.016 1.439.352 2.79.723 3.953 1.128 1.164.405 2.139.844 2.824 1.333.686.489 1.082 1.027 1.087 1.631.003.409.007.957-.17 1.549-.178.593-.538 1.229-1.263 1.816-.726.587-1.817 1.122-3.458 1.511-1.642.389-3.832.632-6.754.632-1.4 0-2.782-.06-4.146-.179a44.729 44.729 0 0 1-4.03-.536 42.82 42.82 0 0 1-3.903-.891 41.686 41.686 0 0 1-3.766-1.243 9.228 9.228 0 0 0-1.533-.416 8.868 8.868 0 0 0-1.586-.137 8.477 8.477 0 0 0-2.873.491 7.473 7.473 0 0 0-2.339 1.349 6.425 6.425 0 0 0-1.586 2.024 5.886 5.886 0 0 0-.611 2.514c-.012.652.1 1.298.317 1.916.217.618.539 1.208.948 1.746a7.2 7.2 0 0 0 3.354 2.421 59.743 59.743 0 0 0 5.347 1.729c1.819.495 3.672.909 5.555 1.241a64.95 64.95 0 0 0 5.741.747c1.942.166 3.911.25 5.903.25 3.895 0 7.493-.47 10.697-1.343 3.2-.872 6.002-2.145 8.309-3.75 2.303-1.602 4.111-3.534 5.331-5.727 1.216-2.187 1.847-4.632 1.8-7.267-.06-3.367-.985-6.061-2.494-8.242z"/><path d="M113.112 79.923c-2.394-1.313-5.098-2.275-7.838-3.038-2.738-.762-5.513-1.326-8.052-1.842-2.154-.438-4.023-.839-5.613-1.239-1.589-.4-2.901-.799-3.943-1.234-1.041-.435-1.813-.907-2.324-1.452a2.645 2.645 0 0 1-.712-1.398c-.015.123-.04.241-.041.369-.005.728.243 1.346.753 1.89.51.545 1.282 1.017 2.324 1.452 1.042.435 2.354.834 3.943 1.234 1.59.4 3.459.8 5.613 1.239 2.539.515 5.314 1.079 8.052 1.842 2.74.763 5.444 1.726 7.838 3.038 2.398 1.315 4.487 2.983 5.992 5.158 1.481 2.14 2.393 4.777 2.484 8.053.006-.224.014-.447.01-.673-.06-3.366-.985-6.06-2.494-8.241-1.505-2.175-3.594-3.843-5.992-5.158zM71.9 62.602c1.484-2.243 3.568-4.082 6.03-5.536 2.457-1.451 5.293-2.52 8.285-3.226 2.99-.706 6.139-1.05 9.228-1.05 1.66 0 3.288.053 4.882.16 1.594.106 3.153.266 4.676.478 1.523.212 3.01.477 4.458.794a52.28 52.28 0 0 1 4.228 1.109c.739.221 1.407.52 1.994.885a6.448 6.448 0 0 1 1.51 1.286c.416.489.741 1.034.965 1.625.192.508.293 1.056.329 1.625.02-.195.031-.39.028-.585a5.607 5.607 0 0 0-.357-1.902 5.523 5.523 0 0 0-.965-1.625 6.404 6.404 0 0 0-1.51-1.286 8.238 8.238 0 0 0-1.994-.885 52.698 52.698 0 0 0-4.228-1.109 58.672 58.672 0 0 0-4.458-.794 65.96 65.96 0 0 0-4.676-.478 73.582 73.582 0 0 0-4.882-.16c-3.089 0-6.239.344-9.228 1.05-2.993.706-5.828 1.775-8.285 3.226-2.462 1.454-4.547 3.292-6.03 5.536-1.488 2.25-2.373 4.911-2.427 8.003-.004.217.007.424.012.635.092-2.994.963-5.582 2.415-7.776zm-2.993 37.103a6.425 6.425 0 0 1 1.586-2.024 7.462 7.462 0 0 1 2.339-1.349 8.473 8.473 0 0 1 2.873-.491 9.238 9.238 0 0 1 1.586.137 9.228 9.228 0 0 1 1.533.416 41.79 41.79 0 0 0 3.766 1.243c1.279.356 2.581.653 3.903.891 1.323.238 2.667.417 4.03.536 1.363.119 2.746.179 4.146.179 2.922 0 5.113-.242 6.754-.632 1.641-.389 2.732-.925 3.458-1.511.725-.586 1.085-1.223 1.263-1.815.178-.592.173-1.14.17-1.549 0-.043-.017-.082-.021-.124a4.022 4.022 0 0 1-.149.812c-.178.593-.538 1.229-1.263 1.815-.726.587-1.817 1.122-3.458 1.511-1.642.389-3.832.632-6.754.632-1.4 0-2.782-.06-4.146-.179a45.091 45.091 0 0 1-4.03-.536 42.82 42.82 0 0 1-3.903-.891 41.686 41.686 0 0 1-3.766-1.243 9.228 9.228 0 0 0-1.533-.416 8.868 8.868 0 0 0-1.586-.137 8.477 8.477 0 0 0-2.873.491 7.473 7.473 0 0 0-2.339 1.349 6.425 6.425 0 0 0-1.586 2.024 5.886 5.886 0 0 0-.611 2.514c-.003.143.023.285.032.427a5.878 5.878 0 0 1 .579-2.08z" fill="#583712"/><path d="M116.685 63.442a6.78 6.78 0 0 1-2.203 1.407 7.925 7.925 0 0 1-3.698.495 8.037 8.037 0 0 1-.707-.114 9.236 9.236 0 0 1-.634-.154 16.169 16.169 0 0 1-.543-.163 44.18 44.18 0 0 0-6.194-1.323 46.6 46.6 0 0 0-6.402-.443 29.99 29.99 0 0 0-4.096.273c-1.348.188-2.641.478-3.767.889-1.126.411-2.086.943-2.765 1.613-.68.671-1.08 1.48-1.087 2.446-.001.17.014.333.041.492.095-.802.456-1.495 1.046-2.077.68-.67 1.639-1.202 2.765-1.613 1.126-.411 2.419-.701 3.767-.889a30.012 30.012 0 0 1 4.096-.273 46.6 46.6 0 0 1 6.402.443 44.18 44.18 0 0 1 6.194 1.323 12.13 12.13 0 0 0 1.177.317c.225.046.461.086.707.114a7.925 7.925 0 0 0 3.698-.495 6.78 6.78 0 0 0 2.203-1.407 6.148 6.148 0 0 0 1.374-1.954c.31-.706.466-1.451.454-2.181-.002-.095-.022-.183-.028-.276a5.348 5.348 0 0 1-.427 1.597 6.12 6.12 0 0 1-1.373 1.953zm3.113 36.286c-1.22 2.193-3.028 4.125-5.331 5.727-2.308 1.605-5.11 2.878-8.309 3.75-3.203.873-6.802 1.343-10.697 1.343-1.992 0-3.961-.084-5.903-.25a65.376 65.376 0 0 1-5.741-.747 62.017 62.017 0 0 1-5.555-1.241 59.743 59.743 0 0 1-5.347-1.729 7.26 7.26 0 0 1-1.883-.985 7.086 7.086 0 0 1-1.471-1.436 6.398 6.398 0 0 1-.948-1.746 5.574 5.574 0 0 1-.285-1.489c-.013.144-.029.287-.032.434-.012.652.1 1.298.317 1.916.217.618.539 1.208.948 1.746a7.2 7.2 0 0 0 3.354 2.421 59.743 59.743 0 0 0 5.347 1.729c1.819.495 3.672.909 5.555 1.241a64.95 64.95 0 0 0 5.741.747c1.942.166 3.911.25 5.903.25 3.895 0 7.493-.47 10.697-1.343 3.2-.872 6.002-2.145 8.309-3.75 2.303-1.602 4.111-3.534 5.331-5.727 1.216-2.187 1.847-4.632 1.8-7.267-.001-.064-.008-.124-.01-.188a14.187 14.187 0 0 1-1.79 6.594zm-42.1-17.124c2.425 1.329 5.185 2.333 7.992 3.148 2.811.816 5.668 1.442 8.286 2.016 1.511.331 3.036.664 4.474 1.016 1.439.352 2.79.723 3.953 1.128 1.164.405 2.139.844 2.824 1.333.638.454 1.01.954 1.065 1.507.023-.274.023-.524.021-.737-.005-.604-.401-1.142-1.087-1.631-.686-.488-1.661-.928-2.824-1.333-1.163-.405-2.514-.776-3.953-1.128a186.491 186.491 0 0 0-4.474-1.016c-2.618-.574-5.476-1.2-8.286-2.016-2.807-.815-5.567-1.819-7.992-3.148-2.421-1.326-4.507-2.975-5.974-5.081-1.361-1.954-2.176-4.305-2.24-7.144-.002.076-.01.149-.012.226-.055 3.131.789 5.681 2.252 7.78 1.467 2.104 3.554 3.753 5.975 5.08z" fill="#FECD87"/><g opacity=".3"><linearGradient id="d" gradientUnits="userSpaceOnUse" x1="99.686" y1="30.01" x2="99.686" y2="86.001"><stop offset="0" stop-color="#fff"/><stop offset="1" stop-color="#fff" stop-opacity=".5"/></linearGradient><path fill="url(#d)" d="M165.584 35.297c-.068-.854-.365-1.666-.845-2.404-.479-.736-1.139-1.398-1.934-1.953a9.786 9.786 0 0 0-2.737-1.312 11.228 11.228 0 0 0-3.264-.48H42.56c-1.144 0-2.246.171-3.26.48a9.705 9.705 0 0 0-2.735 1.312c-.794.555-1.454 1.217-1.933 1.953-.479.737-.777 1.55-.845 2.404L29.948 83.7h139.475l-3.839-48.403z"/></g></svg>