<svg preserveAspectRatio="xMidYMid" width="50" height="50" viewBox="0 0 101 102" xmlns="http://www.w3.org/2000/svg"><title>typo3</title><path d="M76.031 69.915c-1.501.442-2.697.595-4.262.595-12.84 0-31.7-44.87-31.7-59.804 0-5.501 1.306-7.335 3.142-8.906C27.494 3.632 8.631 9.397 2.604 16.732 1.294 18.567.509 21.45.509 25.115c0 23.317 24.887 76.234 42.44 76.234 8.12 0 21.817-13.36 33.082-31.434M67.835.227c16.243 0 32.488 2.62 32.488 11.788 0 18.602-11.789 41.132-17.815 41.132-10.74 0-24.101-29.864-24.101-44.798 0-6.811 2.62-8.122 9.428-8.122" fill="#FF8700"/></svg>